<?xml version="1.0" encoding="UTF-8" standalone="no"?>
<!DOCTYPE svg PUBLIC "-//W3C//DTD SVG 1.1//EN"
 "http://www.w3.org/Graphics/SVG/1.1/DTD/svg11.dtd">
<!-- Generated by graphviz version 11.0.0 (20240428.1522)
 -->
<!-- Title: model/BloodVesselJunction.h Pages: 1 -->
<svg width="921pt" height="304pt"
 viewBox="0.00 0.00 921.25 303.50" xmlns="http://www.w3.org/2000/svg" xmlns:xlink="http://www.w3.org/1999/xlink">
<g id="graph0" class="graph" transform="scale(1 1) rotate(0) translate(4 299.5)">
<title>model/BloodVesselJunction.h</title>
<!-- Node1 -->
<g id="Node000001" class="node">
<title>Node1</title>
<g id="a_Node000001"><a xlink:title="model::BloodVesselJunction source file">
<polygon fill="#999999" stroke="#666666" points="676.5,-295.5 532.25,-295.5 532.25,-276.25 676.5,-276.25 676.5,-295.5"/>
<text text-anchor="middle" x="604.38" y="-282" font-family="Helvetica,sans-Serif" font-size="10.00">model/BloodVesselJunction.h</text>
</a>
</g>
</g>
<!-- Node2 -->
<g id="Node000002" class="node">
<title>Node2</title>
<g id="a_Node000002"><a xlink:href="_block_8h.html" target="_top" xlink:title="model::Block source file">
<polygon fill="white" stroke="#666666" points="368.5,-185 320.25,-185 320.25,-165.75 368.5,-165.75 368.5,-185"/>
<text text-anchor="middle" x="344.38" y="-171.5" font-family="Helvetica,sans-Serif" font-size="10.00">Block.h</text>
</a>
</g>
</g>
<!-- Node1&#45;&gt;Node2 -->
<g id="edge1_Node000001_Node000002" class="edge">
<title>Node1&#45;&gt;Node2</title>
<g id="a_edge1_Node000001_Node000002"><a xlink:title=" ">
<path fill="none" stroke="#63b8ff" d="M582.65,-275.81C536.87,-256.7 430.25,-212.21 376.53,-189.79"/>
<polygon fill="#63b8ff" stroke="#63b8ff" points="378.19,-186.69 367.61,-186.07 375.49,-193.15 378.19,-186.69"/>
</a>
</g>
</g>
<!-- Node16 -->
<g id="Node000016" class="node">
<title>Node16</title>
<g id="a_Node000016"><a xlink:href="_sparse_system_8h.html" target="_top" xlink:title="SparseSystem source file.">
<polygon fill="white" stroke="#666666" points="724,-129.75 636.75,-129.75 636.75,-110.5 724,-110.5 724,-129.75"/>
<text text-anchor="middle" x="680.38" y="-116.25" font-family="Helvetica,sans-Serif" font-size="10.00">SparseSystem.h</text>
</a>
</g>
</g>
<!-- Node1&#45;&gt;Node16 -->
<g id="edge30_Node000001_Node000016" class="edge">
<title>Node1&#45;&gt;Node16</title>
<g id="a_edge30_Node000001_Node000016"><a xlink:title=" ">
<path fill="none" stroke="#63b8ff" d="M617.84,-275.85C628.79,-267.79 643.8,-255.01 652.38,-240.25 670.64,-208.81 677,-166.16 679.21,-141.34"/>
<polygon fill="#63b8ff" stroke="#63b8ff" points="682.68,-141.88 679.91,-131.65 675.7,-141.37 682.68,-141.88"/>
</a>
</g>
</g>
<!-- Node20 -->
<g id="Node000020" class="node">
<title>Node20</title>
<g id="a_Node000020"><a xlink:href="_blood_vessel_8h.html" target="_top" xlink:title="model::BloodVessel source file">
<polygon fill="white" stroke="#666666" points="643.5,-240.25 565.25,-240.25 565.25,-221 643.5,-221 643.5,-240.25"/>
<text text-anchor="middle" x="604.38" y="-226.75" font-family="Helvetica,sans-Serif" font-size="10.00">BloodVessel.h</text>
</a>
</g>
</g>
<!-- Node1&#45;&gt;Node20 -->
<g id="edge26_Node000001_Node000020" class="edge">
<title>Node1&#45;&gt;Node20</title>
<g id="a_edge26_Node000001_Node000020"><a xlink:title=" ">
<path fill="none" stroke="#63b8ff" d="M604.38,-276.08C604.38,-269.57 604.38,-260.42 604.38,-252.12"/>
<polygon fill="#63b8ff" stroke="#63b8ff" points="607.88,-252.12 604.38,-242.12 600.88,-252.12 607.88,-252.12"/>
</a>
</g>
</g>
<!-- Node3 -->
<g id="Node000003" class="node">
<title>Node3</title>
<g id="a_Node000003"><a xlink:title=" ">
<polygon fill="#e0e0e0" stroke="#999999" points="279,-129.75 215.75,-129.75 215.75,-110.5 279,-110.5 279,-129.75"/>
<text text-anchor="middle" x="247.38" y="-116.25" font-family="Helvetica,sans-Serif" font-size="10.00">Eigen/Core</text>
</a>
</g>
</g>
<!-- Node2&#45;&gt;Node3 -->
<g id="edge2_Node000002_Node000003" class="edge">
<title>Node2&#45;&gt;Node3</title>
<g id="a_edge2_Node000002_Node000003"><a xlink:title=" ">
<path fill="none" stroke="#63b8ff" d="M327.92,-165.34C313.15,-157.23 291.2,-145.18 273.94,-135.71"/>
<polygon fill="#63b8ff" stroke="#63b8ff" points="275.69,-132.68 265.24,-130.93 272.32,-138.81 275.69,-132.68"/>
</a>
</g>
</g>
<!-- Node4 -->
<g id="Node000004" class="node">
<title>Node4</title>
<g id="a_Node000004"><a xlink:title=" ">
<polygon fill="#e0e0e0" stroke="#999999" points="325.77,-129.75 296.98,-129.75 296.98,-110.5 325.77,-110.5 325.77,-129.75"/>
<text text-anchor="middle" x="311.38" y="-116.25" font-family="Helvetica,sans-Serif" font-size="10.00">list</text>
</a>
</g>
</g>
<!-- Node2&#45;&gt;Node4 -->
<g id="edge3_Node000002_Node000004" class="edge">
<title>Node2&#45;&gt;Node4</title>
<g id="a_edge3_Node000002_Node000004"><a xlink:title=" ">
<path fill="none" stroke="#63b8ff" d="M338.93,-165.58C334.6,-158.61 328.41,-148.62 322.99,-139.87"/>
<polygon fill="#63b8ff" stroke="#63b8ff" points="325.98,-138.05 317.74,-131.4 320.03,-141.74 325.98,-138.05"/>
</a>
</g>
</g>
<!-- Node5 -->
<g id="Node000005" class="node">
<title>Node5</title>
<g id="a_Node000005"><a xlink:title=" ">
<polygon fill="#e0e0e0" stroke="#999999" points="34.75,-19.25 0,-19.25 0,0 34.75,0 34.75,-19.25"/>
<text text-anchor="middle" x="17.38" y="-5.75" font-family="Helvetica,sans-Serif" font-size="10.00">map</text>
</a>
</g>
</g>
<!-- Node2&#45;&gt;Node5 -->
<g id="edge4_Node000002_Node000005" class="edge">
<title>Node2&#45;&gt;Node5</title>
<g id="a_edge4_Node000002_Node000005"><a xlink:title=" ">
<path fill="none" stroke="#63b8ff" d="M319.98,-174.63C253.13,-174.76 69.26,-171.28 29.38,-129.75 4.13,-103.47 7.84,-57.32 12.68,-30.83"/>
<polygon fill="#63b8ff" stroke="#63b8ff" points="16.1,-31.57 14.71,-21.07 9.25,-30.14 16.1,-31.57"/>
</a>
</g>
</g>
<!-- Node6 -->
<g id="Node000006" class="node">
<title>Node6</title>
<g id="a_Node000006"><a xlink:title=" ">
<polygon fill="#e0e0e0" stroke="#999999" points="485.88,-19.25 442.88,-19.25 442.88,0 485.88,0 485.88,-19.25"/>
<text text-anchor="middle" x="464.38" y="-5.75" font-family="Helvetica,sans-Serif" font-size="10.00">vector</text>
</a>
</g>
</g>
<!-- Node2&#45;&gt;Node6 -->
<g id="edge5_Node000002_Node000006" class="edge">
<title>Node2&#45;&gt;Node6</title>
<g id="a_edge5_Node000002_Node000006"><a xlink:title=" ">
<path fill="none" stroke="#63b8ff" d="M368.97,-170.71C413.75,-162.56 507.63,-138.36 547.38,-74.5 562.8,-49.73 526.26,-30.91 496.85,-20.32"/>
<polygon fill="#63b8ff" stroke="#63b8ff" points="498.08,-17.04 487.48,-17.15 495.84,-23.67 498.08,-17.04"/>
</a>
</g>
</g>
<!-- Node7 -->
<g id="Node000007" class="node">
<title>Node7</title>
<g id="a_Node000007"><a xlink:href="_block_type_8h.html" target="_top" xlink:title="Specifies the types of blocks and their parameters.">
<polygon fill="white" stroke="#666666" points="108,-129.75 38.75,-129.75 38.75,-110.5 108,-110.5 108,-129.75"/>
<text text-anchor="middle" x="73.38" y="-116.25" font-family="Helvetica,sans-Serif" font-size="10.00">BlockType.h</text>
</a>
</g>
</g>
<!-- Node2&#45;&gt;Node7 -->
<g id="edge6_Node000002_Node000007" class="edge">
<title>Node2&#45;&gt;Node7</title>
<g id="a_edge6_Node000002_Node000007"><a xlink:title=" ">
<path fill="none" stroke="#63b8ff" d="M319.85,-169.56C274.53,-160.65 177.04,-141.49 119.18,-130.12"/>
<polygon fill="#63b8ff" stroke="#63b8ff" points="120.13,-126.75 109.64,-128.25 118.78,-133.61 120.13,-126.75"/>
</a>
</g>
</g>
<!-- Node9 -->
<g id="Node000009" class="node">
<title>Node9</title>
<g id="a_Node000009"><a xlink:href="_d_o_f_handler_8h.html" target="_top" xlink:title="model::DOFHandler source file">
<polygon fill="white" stroke="#666666" points="136.12,-74.5 58.62,-74.5 58.62,-55.25 136.12,-55.25 136.12,-74.5"/>
<text text-anchor="middle" x="97.38" y="-61" font-family="Helvetica,sans-Serif" font-size="10.00">DOFHandler.h</text>
</a>
</g>
</g>
<!-- Node2&#45;&gt;Node9 -->
<g id="edge8_Node000002_Node000009" class="edge">
<title>Node2&#45;&gt;Node9</title>
<g id="a_edge8_Node000002_Node000009"><a xlink:title=" ">
<path fill="none" stroke="#63b8ff" d="M319.85,-168.18C291.78,-160.7 244.75,-146.95 206.38,-129.75 175.24,-115.79 141.7,-95.22 120.17,-81.22"/>
<polygon fill="#63b8ff" stroke="#63b8ff" points="122.17,-78.34 111.9,-75.76 118.32,-84.19 122.17,-78.34"/>
</a>
</g>
</g>
<!-- Node10 -->
<g id="Node000010" class="node">
<title>Node10</title>
<g id="a_Node000010"><a xlink:href="_parameter_8h.html" target="_top" xlink:title="model::Parameter source file">
<polygon fill="white" stroke="#666666" points="412.62,-129.75 344.12,-129.75 344.12,-110.5 412.62,-110.5 412.62,-129.75"/>
<text text-anchor="middle" x="378.38" y="-116.25" font-family="Helvetica,sans-Serif" font-size="10.00">Parameter.h</text>
</a>
</g>
</g>
<!-- Node2&#45;&gt;Node10 -->
<g id="edge12_Node000002_Node000010" class="edge">
<title>Node2&#45;&gt;Node10</title>
<g id="a_edge12_Node000002_Node000010"><a xlink:title=" ">
<path fill="none" stroke="#63b8ff" d="M349.99,-165.58C354.49,-158.53 360.96,-148.4 366.59,-139.58"/>
<polygon fill="#63b8ff" stroke="#63b8ff" points="369.39,-141.7 371.82,-131.38 363.49,-137.93 369.39,-141.7"/>
</a>
</g>
</g>
<!-- Node2&#45;&gt;Node16 -->
<g id="edge21_Node000002_Node000016" class="edge">
<title>Node2&#45;&gt;Node16</title>
<g id="a_edge21_Node000002_Node000016"><a xlink:title=" ">
<path fill="none" stroke="#63b8ff" d="M368.81,-170.5C422.39,-162.01 551.32,-141.58 625.44,-129.83"/>
<polygon fill="#63b8ff" stroke="#63b8ff" points="625.58,-133.35 634.91,-128.33 624.49,-126.44 625.58,-133.35"/>
</a>
</g>
</g>
<!-- Node8 -->
<g id="Node000008" class="node">
<title>Node8</title>
<g id="a_Node000008"><a xlink:title=" ">
<polygon fill="#e0e0e0" stroke="#999999" points="117.38,-19.25 77.38,-19.25 77.38,0 117.38,0 117.38,-19.25"/>
<text text-anchor="middle" x="97.38" y="-5.75" font-family="Helvetica,sans-Serif" font-size="10.00">string</text>
</a>
</g>
</g>
<!-- Node7&#45;&gt;Node8 -->
<g id="edge7_Node000007_Node000008" class="edge">
<title>Node7&#45;&gt;Node8</title>
<g id="a_edge7_Node000007_Node000008"><a xlink:title=" ">
<path fill="none" stroke="#63b8ff" d="M65.7,-110.33C55.85,-97.91 40.95,-74.58 49.38,-55.25 54.42,-43.67 64.11,-33.74 73.48,-26.21"/>
<polygon fill="#63b8ff" stroke="#63b8ff" points="75.37,-29.17 81.33,-20.41 71.21,-23.54 75.37,-29.17"/>
</a>
</g>
</g>
<!-- Node9&#45;&gt;Node5 -->
<g id="edge9_Node000009_Node000005" class="edge">
<title>Node9&#45;&gt;Node5</title>
<g id="a_edge9_Node000009_Node000005"><a xlink:title=" ">
<path fill="none" stroke="#63b8ff" d="M83.8,-54.84C71.97,-46.96 54.54,-35.36 40.5,-26.02"/>
<polygon fill="#63b8ff" stroke="#63b8ff" points="42.54,-23.17 32.27,-20.54 38.66,-29 42.54,-23.17"/>
</a>
</g>
</g>
<!-- Node9&#45;&gt;Node6 -->
<g id="edge11_Node000009_Node000006" class="edge">
<title>Node9&#45;&gt;Node6</title>
<g id="a_edge11_Node000009_Node000006"><a xlink:title=" ">
<path fill="none" stroke="#63b8ff" d="M136.3,-58.23C208.87,-47.7 363.6,-25.25 431.39,-15.41"/>
<polygon fill="#63b8ff" stroke="#63b8ff" points="431.74,-18.9 441.13,-14 430.73,-11.97 431.74,-18.9"/>
</a>
</g>
</g>
<!-- Node9&#45;&gt;Node8 -->
<g id="edge10_Node000009_Node000008" class="edge">
<title>Node9&#45;&gt;Node8</title>
<g id="a_edge10_Node000009_Node000008"><a xlink:title=" ">
<path fill="none" stroke="#63b8ff" d="M97.38,-55.08C97.38,-48.57 97.38,-39.42 97.38,-31.12"/>
<polygon fill="#63b8ff" stroke="#63b8ff" points="100.88,-31.12 97.38,-21.12 93.88,-31.12 100.88,-31.12"/>
</a>
</g>
</g>
<!-- Node10&#45;&gt;Node6 -->
<g id="edge18_Node000010_Node000006" class="edge">
<title>Node10&#45;&gt;Node6</title>
<g id="a_edge18_Node000010_Node000006"><a xlink:title=" ">
<path fill="none" stroke="#63b8ff" d="M399.07,-110.11C413.99,-102.62 433.5,-90.58 445.38,-74.5 454.75,-61.81 459.53,-44.5 461.95,-31.11"/>
<polygon fill="#63b8ff" stroke="#63b8ff" points="465.41,-31.64 463.4,-21.24 458.48,-30.63 465.41,-31.64"/>
</a>
</g>
</g>
<!-- Node10&#45;&gt;Node8 -->
<g id="edge17_Node000010_Node000008" class="edge">
<title>Node10&#45;&gt;Node8</title>
<g id="a_edge17_Node000010_Node000008"><a xlink:title=" ">
<path fill="none" stroke="#63b8ff" d="M343.8,-112.02C291.76,-101.21 197.84,-81.17 183.38,-74.5 157.15,-62.41 131.11,-41.49 114.67,-26.9"/>
<polygon fill="#63b8ff" stroke="#63b8ff" points="117.45,-24.7 107.7,-20.56 112.74,-29.88 117.45,-24.7"/>
</a>
</g>
</g>
<!-- Node10&#45;&gt;Node9 -->
<g id="edge20_Node000010_Node000009" class="edge">
<title>Node10&#45;&gt;Node9</title>
<g id="a_edge20_Node000010_Node000009"><a xlink:title=" ">
<path fill="none" stroke="#63b8ff" d="M343.79,-112.32C340.61,-111.7 337.43,-111.09 334.38,-110.5 269.99,-98.13 195.7,-84.2 147.71,-75.24"/>
<polygon fill="#63b8ff" stroke="#63b8ff" points="148.35,-71.8 137.88,-73.41 147.07,-78.68 148.35,-71.8"/>
</a>
</g>
</g>
<!-- Node11 -->
<g id="Node000011" class="node">
<title>Node11</title>
<g id="a_Node000011"><a xlink:title=" ">
<polygon fill="#e0e0e0" stroke="#999999" points="538,-74.5 492.75,-74.5 492.75,-55.25 538,-55.25 538,-74.5"/>
<text text-anchor="middle" x="515.38" y="-61" font-family="Helvetica,sans-Serif" font-size="10.00">math.h</text>
</a>
</g>
</g>
<!-- Node10&#45;&gt;Node11 -->
<g id="edge13_Node000010_Node000011" class="edge">
<title>Node10&#45;&gt;Node11</title>
<g id="a_edge13_Node000010_Node000011"><a xlink:title=" ">
<path fill="none" stroke="#63b8ff" d="M401.62,-110.09C423.69,-101.51 457.13,-88.52 482.04,-78.83"/>
<polygon fill="#63b8ff" stroke="#63b8ff" points="483.01,-82.21 491.07,-75.32 480.48,-75.68 483.01,-82.21"/>
</a>
</g>
</g>
<!-- Node12 -->
<g id="Node000012" class="node">
<title>Node12</title>
<g id="a_Node000012"><a xlink:title=" ">
<polygon fill="#e0e0e0" stroke="#999999" points="234.5,-74.5 192.25,-74.5 192.25,-55.25 234.5,-55.25 234.5,-74.5"/>
<text text-anchor="middle" x="213.38" y="-61" font-family="Helvetica,sans-Serif" font-size="10.00">cstdio</text>
</a>
</g>
</g>
<!-- Node10&#45;&gt;Node12 -->
<g id="edge14_Node000010_Node000012" class="edge">
<title>Node10&#45;&gt;Node12</title>
<g id="a_edge14_Node000010_Node000012"><a xlink:title=" ">
<path fill="none" stroke="#63b8ff" d="M350.38,-110.09C321.44,-100.75 276.3,-86.18 245.82,-76.34"/>
<polygon fill="#63b8ff" stroke="#63b8ff" points="246.95,-73.03 236.36,-73.29 244.8,-79.69 246.95,-73.03"/>
</a>
</g>
</g>
<!-- Node13 -->
<g id="Node000013" class="node">
<title>Node13</title>
<g id="a_Node000013"><a xlink:title=" ">
<polygon fill="#e0e0e0" stroke="#999999" points="648.12,-74.5 594.62,-74.5 594.62,-55.25 648.12,-55.25 648.12,-74.5"/>
<text text-anchor="middle" x="621.38" y="-61" font-family="Helvetica,sans-Serif" font-size="10.00">iostream</text>
</a>
</g>
</g>
<!-- Node10&#45;&gt;Node13 -->
<g id="edge15_Node000010_Node000013" class="edge">
<title>Node10&#45;&gt;Node13</title>
<g id="a_edge15_Node000010_Node000013"><a xlink:title=" ">
<path fill="none" stroke="#63b8ff" d="M412.93,-111.55C457.99,-101.68 536.54,-84.46 583.28,-74.22"/>
<polygon fill="#63b8ff" stroke="#63b8ff" points="583.94,-77.66 592.96,-72.1 582.44,-70.82 583.94,-77.66"/>
</a>
</g>
</g>
<!-- Node14 -->
<g id="Node000014" class="node">
<title>Node14</title>
<g id="a_Node000014"><a xlink:title=" ">
<polygon fill="#e0e0e0" stroke="#999999" points="302.62,-74.5 252.12,-74.5 252.12,-55.25 302.62,-55.25 302.62,-74.5"/>
<text text-anchor="middle" x="277.38" y="-61" font-family="Helvetica,sans-Serif" font-size="10.00">numeric</text>
</a>
</g>
</g>
<!-- Node10&#45;&gt;Node14 -->
<g id="edge16_Node000010_Node000014" class="edge">
<title>Node10&#45;&gt;Node14</title>
<g id="a_edge16_Node000010_Node000014"><a xlink:title=" ">
<path fill="none" stroke="#63b8ff" d="M361.24,-110.09C345.72,-101.91 322.57,-89.71 304.53,-80.19"/>
<polygon fill="#63b8ff" stroke="#63b8ff" points="306.41,-77.23 295.93,-75.66 303.14,-83.42 306.41,-77.23"/>
</a>
</g>
</g>
<!-- Node15 -->
<g id="Node000015" class="node">
<title>Node15</title>
<g id="a_Node000015"><a xlink:title=" ">
<polygon fill="#e0e0e0" stroke="#999999" points="435.88,-74.5 320.88,-74.5 320.88,-55.25 435.88,-55.25 435.88,-74.5"/>
<text text-anchor="middle" x="378.38" y="-61" font-family="Helvetica,sans-Serif" font-size="10.00">../ThirdParty/exprtk.hpp</text>
</a>
</g>
</g>
<!-- Node10&#45;&gt;Node15 -->
<g id="edge19_Node000010_Node000015" class="edge">
<title>Node10&#45;&gt;Node15</title>
<g id="a_edge19_Node000010_Node000015"><a xlink:title=" ">
<path fill="none" stroke="#63b8ff" d="M378.38,-110.33C378.38,-103.82 378.38,-94.67 378.38,-86.37"/>
<polygon fill="#63b8ff" stroke="#63b8ff" points="381.88,-86.37 378.38,-76.37 374.88,-86.37 381.88,-86.37"/>
</a>
</g>
</g>
<!-- Node16&#45;&gt;Node13 -->
<g id="edge24_Node000016_Node000013" class="edge">
<title>Node16&#45;&gt;Node13</title>
<g id="a_edge24_Node000016_Node000013"><a xlink:title=" ">
<path fill="none" stroke="#63b8ff" d="M670.37,-110.09C662.01,-102.55 649.88,-91.6 639.77,-82.48"/>
<polygon fill="#63b8ff" stroke="#63b8ff" points="642.13,-79.89 632.36,-75.79 637.44,-85.09 642.13,-79.89"/>
</a>
</g>
</g>
<!-- Node17 -->
<g id="Node000017" class="node">
<title>Node17</title>
<g id="a_Node000017"><a xlink:title=" ">
<polygon fill="#e0e0e0" stroke="#999999" points="913.25,-74.5 839.5,-74.5 839.5,-55.25 913.25,-55.25 913.25,-74.5"/>
<text text-anchor="middle" x="876.38" y="-61" font-family="Helvetica,sans-Serif" font-size="10.00">Eigen/Sparse</text>
</a>
</g>
</g>
<!-- Node16&#45;&gt;Node17 -->
<g id="edge22_Node000016_Node000017" class="edge">
<title>Node16&#45;&gt;Node17</title>
<g id="a_edge22_Node000016_Node000017"><a xlink:title=" ">
<path fill="none" stroke="#63b8ff" d="M713.62,-110.09C746.29,-101.22 796.32,-87.62 832.29,-77.85"/>
<polygon fill="#63b8ff" stroke="#63b8ff" points="832.77,-81.35 841.5,-75.35 830.93,-74.59 832.77,-81.35"/>
</a>
</g>
</g>
<!-- Node18 -->
<g id="Node000018" class="node">
<title>Node18</title>
<g id="a_Node000018"><a xlink:title=" ">
<polygon fill="#e0e0e0" stroke="#999999" points="753,-74.5 665.75,-74.5 665.75,-55.25 753,-55.25 753,-74.5"/>
<text text-anchor="middle" x="709.38" y="-61" font-family="Helvetica,sans-Serif" font-size="10.00">Eigen/SparseLU</text>
</a>
</g>
</g>
<!-- Node16&#45;&gt;Node18 -->
<g id="edge23_Node000016_Node000018" class="edge">
<title>Node16&#45;&gt;Node18</title>
<g id="a_edge23_Node000016_Node000018"><a xlink:title=" ">
<path fill="none" stroke="#63b8ff" d="M685.16,-110.33C688.92,-103.44 694.28,-93.59 699.01,-84.91"/>
<polygon fill="#63b8ff" stroke="#63b8ff" points="702.05,-86.64 703.76,-76.19 695.9,-83.3 702.05,-86.64"/>
</a>
</g>
</g>
<!-- Node19 -->
<g id="Node000019" class="node">
<title>Node19</title>
<g id="a_Node000019"><a xlink:title=" ">
<polygon fill="#e0e0e0" stroke="#999999" points="821.62,-74.5 771.12,-74.5 771.12,-55.25 821.62,-55.25 821.62,-74.5"/>
<text text-anchor="middle" x="796.38" y="-61" font-family="Helvetica,sans-Serif" font-size="10.00">memory</text>
</a>
</g>
</g>
<!-- Node16&#45;&gt;Node19 -->
<g id="edge25_Node000016_Node000019" class="edge">
<title>Node16&#45;&gt;Node19</title>
<g id="a_edge25_Node000016_Node000019"><a xlink:title=" ">
<path fill="none" stroke="#63b8ff" d="M700.05,-110.09C718.22,-101.75 745.46,-89.25 766.34,-79.66"/>
<polygon fill="#63b8ff" stroke="#63b8ff" points="767.6,-82.94 775.23,-75.58 764.68,-76.58 767.6,-82.94"/>
</a>
</g>
</g>
<!-- Node20&#45;&gt;Node2 -->
<g id="edge28_Node000020_Node000002" class="edge">
<title>Node20&#45;&gt;Node2</title>
<g id="a_edge28_Node000020_Node000002"><a xlink:title=" ">
<path fill="none" stroke="#63b8ff" d="M564.89,-221.54C514.62,-211.24 428.52,-193.61 380.12,-183.7"/>
<polygon fill="#63b8ff" stroke="#63b8ff" points="380.94,-180.29 370.44,-181.71 379.53,-187.15 380.94,-180.29"/>
</a>
</g>
</g>
<!-- Node20&#45;&gt;Node11 -->
<g id="edge27_Node000020_Node000011" class="edge">
<title>Node20&#45;&gt;Node11</title>
<g id="a_edge27_Node000020_Node000011"><a xlink:title=" ">
<path fill="none" stroke="#63b8ff" d="M599.59,-220.82C585.65,-195.17 544.82,-120.05 525.6,-84.69"/>
<polygon fill="#63b8ff" stroke="#63b8ff" points="528.76,-83.17 520.91,-76.05 522.61,-86.51 528.76,-83.17"/>
</a>
</g>
</g>
<!-- Node20&#45;&gt;Node16 -->
<g id="edge29_Node000020_Node000016" class="edge">
<title>Node20&#45;&gt;Node16</title>
<g id="a_edge29_Node000020_Node000016"><a xlink:title=" ">
<path fill="none" stroke="#63b8ff" d="M610.59,-220.75C623.01,-203.02 651.08,-162.94 667.59,-139.38"/>
<polygon fill="#63b8ff" stroke="#63b8ff" points="670.33,-141.56 673.2,-131.37 664.6,-137.55 670.33,-141.56"/>
</a>
</g>
</g>
</g>
</svg>
