<?xml version="1.0" encoding="UTF-8" standalone="no"?>
<!DOCTYPE svg PUBLIC "-//W3C//DTD SVG 1.1//EN"
 "http://www.w3.org/Graphics/SVG/1.1/DTD/svg11.dtd">
<!-- Generated by graphviz version 11.0.0 (20240428.1522)
 -->
<!-- Title: model/BlockFactory.h Pages: 1 -->
<svg width="916pt" height="248pt"
 viewBox="0.00 0.00 915.59 248.25" xmlns="http://www.w3.org/2000/svg" xmlns:xlink="http://www.w3.org/1999/xlink">
<g id="graph0" class="graph" transform="scale(1 1) rotate(0) translate(4 244.25)">
<title>model/BlockFactory.h</title>
<!-- Node1 -->
<g id="Node000001" class="node">
<title>Node1</title>
<g id="a_Node000001"><a xlink:title="Define the block factory functional.">
<polygon fill="#999999" stroke="#666666" points="318.25,-240.25 208.5,-240.25 208.5,-221 318.25,-221 318.25,-240.25"/>
<text text-anchor="middle" x="263.38" y="-226.75" font-family="Helvetica,sans-Serif" font-size="10.00">model/BlockFactory.h</text>
</a>
</g>
</g>
<!-- Node2 -->
<g id="Node000002" class="node">
<title>Node2</title>
<g id="a_Node000002"><a xlink:title=" ">
<polygon fill="#e0e0e0" stroke="#999999" points="221.38,-185 163.38,-185 163.38,-165.75 221.38,-165.75 221.38,-185"/>
<text text-anchor="middle" x="192.38" y="-171.5" font-family="Helvetica,sans-Serif" font-size="10.00">functional</text>
</a>
</g>
</g>
<!-- Node1&#45;&gt;Node2 -->
<g id="edge1_Node000001_Node000002" class="edge">
<title>Node1&#45;&gt;Node2</title>
<g id="a_edge1_Node000001_Node000002"><a xlink:title=" ">
<path fill="none" stroke="#63b8ff" d="M251.33,-220.59C240.97,-212.82 225.77,-201.42 213.41,-192.15"/>
<polygon fill="#63b8ff" stroke="#63b8ff" points="215.55,-189.38 205.45,-186.18 211.35,-194.98 215.55,-189.38"/>
</a>
</g>
</g>
<!-- Node3 -->
<g id="Node000003" class="node">
<title>Node3</title>
<g id="a_Node000003"><a xlink:title=" ">
<polygon fill="#e0e0e0" stroke="#999999" points="737.88,-19.25 694.88,-19.25 694.88,0 737.88,0 737.88,-19.25"/>
<text text-anchor="middle" x="716.38" y="-5.75" font-family="Helvetica,sans-Serif" font-size="10.00">vector</text>
</a>
</g>
</g>
<!-- Node1&#45;&gt;Node3 -->
<g id="edge2_Node000001_Node000003" class="edge">
<title>Node1&#45;&gt;Node3</title>
<g id="a_edge2_Node000001_Node000003"><a xlink:title=" ">
<path fill="none" stroke="#63b8ff" d="M318.68,-226.29C463.81,-216.1 848.1,-179.45 902.38,-74.5 932.74,-15.79 810.81,-9.35 749.56,-9.69"/>
<polygon fill="#63b8ff" stroke="#63b8ff" points="749.65,-6.19 739.69,-9.82 749.74,-13.19 749.65,-6.19"/>
</a>
</g>
</g>
<!-- Node4 -->
<g id="Node000004" class="node">
<title>Node4</title>
<g id="a_Node000004"><a xlink:href="_block_8h.html" target="_top" xlink:title="model::Block source file">
<polygon fill="white" stroke="#666666" points="287.5,-185 239.25,-185 239.25,-165.75 287.5,-165.75 287.5,-185"/>
<text text-anchor="middle" x="263.38" y="-171.5" font-family="Helvetica,sans-Serif" font-size="10.00">Block.h</text>
</a>
</g>
</g>
<!-- Node1&#45;&gt;Node4 -->
<g id="edge3_Node000001_Node000004" class="edge">
<title>Node1&#45;&gt;Node4</title>
<g id="a_edge3_Node000001_Node000004"><a xlink:title=" ">
<path fill="none" stroke="#63b8ff" d="M263.38,-220.83C263.38,-214.32 263.38,-205.17 263.38,-196.87"/>
<polygon fill="#63b8ff" stroke="#63b8ff" points="266.88,-196.87 263.38,-186.87 259.88,-196.87 266.88,-196.87"/>
</a>
</g>
</g>
<!-- Node4&#45;&gt;Node3 -->
<g id="edge7_Node000004_Node000003" class="edge">
<title>Node4&#45;&gt;Node3</title>
<g id="a_edge7_Node000004_Node000003"><a xlink:title=" ">
<path fill="none" stroke="#63b8ff" d="M287.75,-174.71C393.79,-175.59 812.89,-172.73 885.38,-74.5 921.09,-26.1 808.44,-14.37 749.68,-11.53"/>
<polygon fill="#63b8ff" stroke="#63b8ff" points="750.02,-8.04 739.88,-11.12 749.73,-15.03 750.02,-8.04"/>
</a>
</g>
</g>
<!-- Node5 -->
<g id="Node000005" class="node">
<title>Node5</title>
<g id="a_Node000005"><a xlink:title=" ">
<polygon fill="#e0e0e0" stroke="#999999" points="101,-129.75 37.75,-129.75 37.75,-110.5 101,-110.5 101,-129.75"/>
<text text-anchor="middle" x="69.38" y="-116.25" font-family="Helvetica,sans-Serif" font-size="10.00">Eigen/Core</text>
</a>
</g>
</g>
<!-- Node4&#45;&gt;Node5 -->
<g id="edge4_Node000004_Node000005" class="edge">
<title>Node4&#45;&gt;Node5</title>
<g id="a_edge4_Node000004_Node000005"><a xlink:title=" ">
<path fill="none" stroke="#63b8ff" d="M238.8,-167.63C207.07,-158.92 151.3,-143.61 112.45,-132.95"/>
<polygon fill="#63b8ff" stroke="#63b8ff" points="113.5,-129.61 102.93,-130.34 111.65,-136.36 113.5,-129.61"/>
</a>
</g>
</g>
<!-- Node6 -->
<g id="Node000006" class="node">
<title>Node6</title>
<g id="a_Node000006"><a xlink:title=" ">
<polygon fill="#e0e0e0" stroke="#999999" points="147.78,-129.75 118.97,-129.75 118.97,-110.5 147.78,-110.5 147.78,-129.75"/>
<text text-anchor="middle" x="133.38" y="-116.25" font-family="Helvetica,sans-Serif" font-size="10.00">list</text>
</a>
</g>
</g>
<!-- Node4&#45;&gt;Node6 -->
<g id="edge5_Node000004_Node000006" class="edge">
<title>Node4&#45;&gt;Node6</title>
<g id="a_edge5_Node000004_Node000006"><a xlink:title=" ">
<path fill="none" stroke="#63b8ff" d="M241.32,-165.34C218.43,-155.97 182.69,-141.32 158.67,-131.48"/>
<polygon fill="#63b8ff" stroke="#63b8ff" points="160.22,-128.34 149.63,-127.79 157.56,-134.81 160.22,-128.34"/>
</a>
</g>
</g>
<!-- Node7 -->
<g id="Node000007" class="node">
<title>Node7</title>
<g id="a_Node000007"><a xlink:title=" ">
<polygon fill="#e0e0e0" stroke="#999999" points="34.75,-19.25 0,-19.25 0,0 34.75,0 34.75,-19.25"/>
<text text-anchor="middle" x="17.38" y="-5.75" font-family="Helvetica,sans-Serif" font-size="10.00">map</text>
</a>
</g>
</g>
<!-- Node4&#45;&gt;Node7 -->
<g id="edge6_Node000004_Node000007" class="edge">
<title>Node4&#45;&gt;Node7</title>
<g id="a_edge6_Node000004_Node000007"><a xlink:title=" ">
<path fill="none" stroke="#63b8ff" d="M238.92,-167.75C236.05,-167.04 233.15,-166.36 230.38,-165.75 185.84,-155.98 59.23,-163.32 28.38,-129.75 3.74,-102.94 7.68,-56.98 12.62,-30.68"/>
<polygon fill="#63b8ff" stroke="#63b8ff" points="16.02,-31.5 14.69,-20.99 9.18,-30.04 16.02,-31.5"/>
</a>
</g>
</g>
<!-- Node8 -->
<g id="Node000008" class="node">
<title>Node8</title>
<g id="a_Node000008"><a xlink:href="_block_type_8h.html" target="_top" xlink:title="Specifies the types of blocks and their parameters.">
<polygon fill="white" stroke="#666666" points="235,-129.75 165.75,-129.75 165.75,-110.5 235,-110.5 235,-129.75"/>
<text text-anchor="middle" x="200.38" y="-116.25" font-family="Helvetica,sans-Serif" font-size="10.00">BlockType.h</text>
</a>
</g>
</g>
<!-- Node4&#45;&gt;Node8 -->
<g id="edge8_Node000004_Node000008" class="edge">
<title>Node4&#45;&gt;Node8</title>
<g id="a_edge8_Node000004_Node000008"><a xlink:title=" ">
<path fill="none" stroke="#63b8ff" d="M252.69,-165.34C243.67,-157.72 230.54,-146.62 219.69,-137.45"/>
<polygon fill="#63b8ff" stroke="#63b8ff" points="221.96,-134.78 212.06,-131 217.44,-140.13 221.96,-134.78"/>
</a>
</g>
</g>
<!-- Node10 -->
<g id="Node000010" class="node">
<title>Node10</title>
<g id="a_Node000010"><a xlink:href="_d_o_f_handler_8h.html" target="_top" xlink:title="model::DOFHandler source file">
<polygon fill="white" stroke="#666666" points="136.12,-74.5 58.62,-74.5 58.62,-55.25 136.12,-55.25 136.12,-74.5"/>
<text text-anchor="middle" x="97.38" y="-61" font-family="Helvetica,sans-Serif" font-size="10.00">DOFHandler.h</text>
</a>
</g>
</g>
<!-- Node4&#45;&gt;Node10 -->
<g id="edge10_Node000004_Node000010" class="edge">
<title>Node4&#45;&gt;Node10</title>
<g id="a_edge10_Node000004_Node000010"><a xlink:title=" ">
<path fill="none" stroke="#63b8ff" d="M263.27,-165.64C262.63,-151.99 259.39,-125.6 244.38,-110.5 230.61,-96.66 184.54,-84.06 147.6,-75.8"/>
<polygon fill="#63b8ff" stroke="#63b8ff" points="148.47,-72.41 137.95,-73.71 146.98,-79.25 148.47,-72.41"/>
</a>
</g>
</g>
<!-- Node11 -->
<g id="Node000011" class="node">
<title>Node11</title>
<g id="a_Node000011"><a xlink:href="_parameter_8h.html" target="_top" xlink:title="model::Parameter source file">
<polygon fill="white" stroke="#666666" points="359.62,-129.75 291.12,-129.75 291.12,-110.5 359.62,-110.5 359.62,-129.75"/>
<text text-anchor="middle" x="325.38" y="-116.25" font-family="Helvetica,sans-Serif" font-size="10.00">Parameter.h</text>
</a>
</g>
</g>
<!-- Node4&#45;&gt;Node11 -->
<g id="edge14_Node000004_Node000011" class="edge">
<title>Node4&#45;&gt;Node11</title>
<g id="a_edge14_Node000004_Node000011"><a xlink:title=" ">
<path fill="none" stroke="#63b8ff" d="M273.89,-165.34C282.76,-157.72 295.69,-146.62 306.36,-137.45"/>
<polygon fill="#63b8ff" stroke="#63b8ff" points="308.56,-140.18 313.86,-131.01 304,-134.87 308.56,-140.18"/>
</a>
</g>
</g>
<!-- Node17 -->
<g id="Node000017" class="node">
<title>Node17</title>
<g id="a_Node000017"><a xlink:href="_sparse_system_8h.html" target="_top" xlink:title="SparseSystem source file.">
<polygon fill="white" stroke="#666666" points="697,-129.75 609.75,-129.75 609.75,-110.5 697,-110.5 697,-129.75"/>
<text text-anchor="middle" x="653.38" y="-116.25" font-family="Helvetica,sans-Serif" font-size="10.00">SparseSystem.h</text>
</a>
</g>
</g>
<!-- Node4&#45;&gt;Node17 -->
<g id="edge23_Node000004_Node000017" class="edge">
<title>Node4&#45;&gt;Node17</title>
<g id="a_edge23_Node000004_Node000017"><a xlink:title=" ">
<path fill="none" stroke="#63b8ff" d="M287.77,-171.04C349.31,-162.64 512.08,-140.42 598.17,-128.66"/>
<polygon fill="#63b8ff" stroke="#63b8ff" points="598.61,-132.14 608.04,-127.31 597.66,-125.2 598.61,-132.14"/>
</a>
</g>
</g>
<!-- Node9 -->
<g id="Node000009" class="node">
<title>Node9</title>
<g id="a_Node000009"><a xlink:title=" ">
<polygon fill="#e0e0e0" stroke="#999999" points="117.38,-19.25 77.38,-19.25 77.38,0 117.38,0 117.38,-19.25"/>
<text text-anchor="middle" x="97.38" y="-5.75" font-family="Helvetica,sans-Serif" font-size="10.00">string</text>
</a>
</g>
</g>
<!-- Node8&#45;&gt;Node9 -->
<g id="edge9_Node000008_Node000009" class="edge">
<title>Node8&#45;&gt;Node9</title>
<g id="a_edge9_Node000008_Node000009"><a xlink:title=" ">
<path fill="none" stroke="#63b8ff" d="M165.28,-111.08C122.92,-101.02 56.45,-83.97 49.38,-74.5 37.04,-58 55.17,-39.15 72.57,-26.23"/>
<polygon fill="#63b8ff" stroke="#63b8ff" points="74.5,-29.15 80.72,-20.57 70.51,-23.4 74.5,-29.15"/>
</a>
</g>
</g>
<!-- Node10&#45;&gt;Node3 -->
<g id="edge13_Node000010_Node000003" class="edge">
<title>Node10&#45;&gt;Node3</title>
<g id="a_edge13_Node000010_Node000003"><a xlink:title=" ">
<path fill="none" stroke="#63b8ff" d="M136.32,-59.83C151.06,-58.34 167.98,-56.67 183.38,-55.25 372.42,-37.86 599.46,-19.78 683.23,-13.21"/>
<polygon fill="#63b8ff" stroke="#63b8ff" points="683.33,-16.71 693.02,-12.44 682.78,-9.73 683.33,-16.71"/>
</a>
</g>
</g>
<!-- Node10&#45;&gt;Node7 -->
<g id="edge11_Node000010_Node000007" class="edge">
<title>Node10&#45;&gt;Node7</title>
<g id="a_edge11_Node000010_Node000007"><a xlink:title=" ">
<path fill="none" stroke="#63b8ff" d="M83.8,-54.84C71.97,-46.96 54.54,-35.36 40.5,-26.02"/>
<polygon fill="#63b8ff" stroke="#63b8ff" points="42.54,-23.17 32.27,-20.54 38.66,-29 42.54,-23.17"/>
</a>
</g>
</g>
<!-- Node10&#45;&gt;Node9 -->
<g id="edge12_Node000010_Node000009" class="edge">
<title>Node10&#45;&gt;Node9</title>
<g id="a_edge12_Node000010_Node000009"><a xlink:title=" ">
<path fill="none" stroke="#63b8ff" d="M97.38,-55.08C97.38,-48.57 97.38,-39.42 97.38,-31.12"/>
<polygon fill="#63b8ff" stroke="#63b8ff" points="100.88,-31.12 97.38,-21.12 93.88,-31.12 100.88,-31.12"/>
</a>
</g>
</g>
<!-- Node11&#45;&gt;Node3 -->
<g id="edge20_Node000011_Node000003" class="edge">
<title>Node11&#45;&gt;Node3</title>
<g id="a_edge20_Node000011_Node000003"><a xlink:title=" ">
<path fill="none" stroke="#63b8ff" d="M359.99,-113.21C397.51,-106.22 458.8,-93.16 509.38,-74.5 527.14,-67.95 529.68,-61.98 547.38,-55.25 593.5,-37.7 649.22,-24.44 683.73,-17.1"/>
<polygon fill="#63b8ff" stroke="#63b8ff" points="684.02,-20.62 693.1,-15.15 682.59,-13.76 684.02,-20.62"/>
</a>
</g>
</g>
<!-- Node11&#45;&gt;Node9 -->
<g id="edge19_Node000011_Node000009" class="edge">
<title>Node11&#45;&gt;Node9</title>
<g id="a_edge19_Node000011_Node000009"><a xlink:title=" ">
<path fill="none" stroke="#63b8ff" d="M290.85,-111.71C261.29,-104.57 218.14,-92.23 183.38,-74.5 157.93,-61.52 132.07,-41.13 115.44,-26.89"/>
<polygon fill="#63b8ff" stroke="#63b8ff" points="118.19,-24.64 108.36,-20.69 113.58,-29.91 118.19,-24.64"/>
</a>
</g>
</g>
<!-- Node11&#45;&gt;Node10 -->
<g id="edge22_Node000011_Node000010" class="edge">
<title>Node11&#45;&gt;Node10</title>
<g id="a_edge22_Node000011_Node000010"><a xlink:title=" ">
<path fill="none" stroke="#63b8ff" d="M290.75,-111.04C252.55,-102.12 190.76,-87.69 147.33,-77.54"/>
<polygon fill="#63b8ff" stroke="#63b8ff" points="148.16,-74.14 137.63,-75.28 146.57,-80.96 148.16,-74.14"/>
</a>
</g>
</g>
<!-- Node12 -->
<g id="Node000012" class="node">
<title>Node12</title>
<g id="a_Node000012"><a xlink:title=" ">
<polygon fill="#e0e0e0" stroke="#999999" points="238,-74.5 192.75,-74.5 192.75,-55.25 238,-55.25 238,-74.5"/>
<text text-anchor="middle" x="215.38" y="-61" font-family="Helvetica,sans-Serif" font-size="10.00">math.h</text>
</a>
</g>
</g>
<!-- Node11&#45;&gt;Node12 -->
<g id="edge15_Node000011_Node000012" class="edge">
<title>Node11&#45;&gt;Node12</title>
<g id="a_edge15_Node000011_Node000012"><a xlink:title=" ">
<path fill="none" stroke="#63b8ff" d="M306.71,-110.09C289.65,-101.83 264.13,-89.48 244.4,-79.93"/>
<polygon fill="#63b8ff" stroke="#63b8ff" points="246.01,-76.82 235.49,-75.61 242.96,-83.12 246.01,-76.82"/>
</a>
</g>
</g>
<!-- Node13 -->
<g id="Node000013" class="node">
<title>Node13</title>
<g id="a_Node000013"><a xlink:title=" ">
<polygon fill="#e0e0e0" stroke="#999999" points="298.5,-74.5 256.25,-74.5 256.25,-55.25 298.5,-55.25 298.5,-74.5"/>
<text text-anchor="middle" x="277.38" y="-61" font-family="Helvetica,sans-Serif" font-size="10.00">cstdio</text>
</a>
</g>
</g>
<!-- Node11&#45;&gt;Node13 -->
<g id="edge16_Node000011_Node000013" class="edge">
<title>Node11&#45;&gt;Node13</title>
<g id="a_edge16_Node000011_Node000013"><a xlink:title=" ">
<path fill="none" stroke="#63b8ff" d="M317.45,-110.33C310.82,-102.98 301.16,-92.26 292.99,-83.19"/>
<polygon fill="#63b8ff" stroke="#63b8ff" points="295.78,-81.07 286.49,-75.98 290.58,-85.75 295.78,-81.07"/>
</a>
</g>
</g>
<!-- Node14 -->
<g id="Node000014" class="node">
<title>Node14</title>
<g id="a_Node000014"><a xlink:title=" ">
<polygon fill="#e0e0e0" stroke="#999999" points="610.12,-74.5 556.62,-74.5 556.62,-55.25 610.12,-55.25 610.12,-74.5"/>
<text text-anchor="middle" x="583.38" y="-61" font-family="Helvetica,sans-Serif" font-size="10.00">iostream</text>
</a>
</g>
</g>
<!-- Node11&#45;&gt;Node14 -->
<g id="edge17_Node000011_Node000014" class="edge">
<title>Node11&#45;&gt;Node14</title>
<g id="a_edge17_Node000011_Node000014"><a xlink:title=" ">
<path fill="none" stroke="#63b8ff" d="M359.96,-112.06C402.79,-103.31 477.98,-87.89 542.38,-74.5 543.37,-74.29 544.38,-74.08 545.4,-73.87"/>
<polygon fill="#63b8ff" stroke="#63b8ff" points="545.92,-77.34 554.99,-71.86 544.49,-70.49 545.92,-77.34"/>
</a>
</g>
</g>
<!-- Node15 -->
<g id="Node000015" class="node">
<title>Node15</title>
<g id="a_Node000015"><a xlink:title=" ">
<polygon fill="#e0e0e0" stroke="#999999" points="366.62,-74.5 316.12,-74.5 316.12,-55.25 366.62,-55.25 366.62,-74.5"/>
<text text-anchor="middle" x="341.38" y="-61" font-family="Helvetica,sans-Serif" font-size="10.00">numeric</text>
</a>
</g>
</g>
<!-- Node11&#45;&gt;Node15 -->
<g id="edge18_Node000011_Node000015" class="edge">
<title>Node11&#45;&gt;Node15</title>
<g id="a_edge18_Node000011_Node000015"><a xlink:title=" ">
<path fill="none" stroke="#63b8ff" d="M328.02,-110.33C330.02,-103.67 332.85,-94.24 335.39,-85.78"/>
<polygon fill="#63b8ff" stroke="#63b8ff" points="338.71,-86.89 338.24,-76.31 332.01,-84.88 338.71,-86.89"/>
</a>
</g>
</g>
<!-- Node16 -->
<g id="Node000016" class="node">
<title>Node16</title>
<g id="a_Node000016"><a xlink:title=" ">
<polygon fill="#e0e0e0" stroke="#999999" points="499.88,-74.5 384.88,-74.5 384.88,-55.25 499.88,-55.25 499.88,-74.5"/>
<text text-anchor="middle" x="442.38" y="-61" font-family="Helvetica,sans-Serif" font-size="10.00">../ThirdParty/exprtk.hpp</text>
</a>
</g>
</g>
<!-- Node11&#45;&gt;Node16 -->
<g id="edge21_Node000011_Node000016" class="edge">
<title>Node11&#45;&gt;Node16</title>
<g id="a_edge21_Node000011_Node000016"><a xlink:title=" ">
<path fill="none" stroke="#63b8ff" d="M345.22,-110.09C363.54,-101.75 391.02,-89.25 412.08,-79.66"/>
<polygon fill="#63b8ff" stroke="#63b8ff" points="413.4,-82.91 421.05,-75.58 410.5,-76.54 413.4,-82.91"/>
</a>
</g>
</g>
<!-- Node17&#45;&gt;Node14 -->
<g id="edge26_Node000017_Node000014" class="edge">
<title>Node17&#45;&gt;Node14</title>
<g id="a_edge26_Node000017_Node000014"><a xlink:title=" ">
<path fill="none" stroke="#63b8ff" d="M641.5,-110.09C631.28,-102.32 616.3,-90.92 604.11,-81.65"/>
<polygon fill="#63b8ff" stroke="#63b8ff" points="606.36,-78.96 596.28,-75.69 602.12,-84.53 606.36,-78.96"/>
</a>
</g>
</g>
<!-- Node18 -->
<g id="Node000018" class="node">
<title>Node18</title>
<g id="a_Node000018"><a xlink:title=" ">
<polygon fill="#e0e0e0" stroke="#999999" points="770.25,-74.5 696.5,-74.5 696.5,-55.25 770.25,-55.25 770.25,-74.5"/>
<text text-anchor="middle" x="733.38" y="-61" font-family="Helvetica,sans-Serif" font-size="10.00">Eigen/Sparse</text>
</a>
</g>
</g>
<!-- Node17&#45;&gt;Node18 -->
<g id="edge24_Node000017_Node000018" class="edge">
<title>Node17&#45;&gt;Node18</title>
<g id="a_edge24_Node000017_Node000018"><a xlink:title=" ">
<path fill="none" stroke="#63b8ff" d="M666.95,-110.09C678.78,-102.21 696.21,-90.61 710.25,-81.27"/>
<polygon fill="#63b8ff" stroke="#63b8ff" points="712.09,-84.25 718.48,-75.79 708.21,-78.42 712.09,-84.25"/>
</a>
</g>
</g>
<!-- Node19 -->
<g id="Node000019" class="node">
<title>Node19</title>
<g id="a_Node000019"><a xlink:title=" ">
<polygon fill="#e0e0e0" stroke="#999999" points="876,-74.5 788.75,-74.5 788.75,-55.25 876,-55.25 876,-74.5"/>
<text text-anchor="middle" x="832.38" y="-61" font-family="Helvetica,sans-Serif" font-size="10.00">Eigen/SparseLU</text>
</a>
</g>
</g>
<!-- Node17&#45;&gt;Node19 -->
<g id="edge25_Node000017_Node000019" class="edge">
<title>Node17&#45;&gt;Node19</title>
<g id="a_edge25_Node000017_Node000019"><a xlink:title=" ">
<path fill="none" stroke="#63b8ff" d="M683.74,-110.09C713.18,-101.33 758.08,-87.98 790.83,-78.23"/>
<polygon fill="#63b8ff" stroke="#63b8ff" points="791.82,-81.59 800.41,-75.38 789.83,-74.88 791.82,-81.59"/>
</a>
</g>
</g>
<!-- Node20 -->
<g id="Node000020" class="node">
<title>Node20</title>
<g id="a_Node000020"><a xlink:title=" ">
<polygon fill="#e0e0e0" stroke="#999999" points="678.62,-74.5 628.12,-74.5 628.12,-55.25 678.62,-55.25 678.62,-74.5"/>
<text text-anchor="middle" x="653.38" y="-61" font-family="Helvetica,sans-Serif" font-size="10.00">memory</text>
</a>
</g>
</g>
<!-- Node17&#45;&gt;Node20 -->
<g id="edge27_Node000017_Node000020" class="edge">
<title>Node17&#45;&gt;Node20</title>
<g id="a_edge27_Node000017_Node000020"><a xlink:title=" ">
<path fill="none" stroke="#63b8ff" d="M653.38,-110.33C653.38,-103.82 653.38,-94.67 653.38,-86.37"/>
<polygon fill="#63b8ff" stroke="#63b8ff" points="656.88,-86.37 653.38,-76.37 649.88,-86.37 656.88,-86.37"/>
</a>
</g>
</g>
</g>
</svg>
