<?xml version="1.0" encoding="UTF-8" standalone="no"?>
<!DOCTYPE svg PUBLIC "-//W3C//DTD SVG 1.1//EN"
 "http://www.w3.org/Graphics/SVG/1.1/DTD/svg11.dtd">
<!-- Generated by graphviz version 11.0.0 (20240428.1522)
 -->
<!-- Title: model/BloodVessel.h Pages: 1 -->
<svg width="940pt" height="248pt"
 viewBox="0.00 0.00 939.88 248.25" xmlns="http://www.w3.org/2000/svg" xmlns:xlink="http://www.w3.org/1999/xlink">
<g id="graph0" class="graph" transform="scale(1 1) rotate(0) translate(4 244.25)">
<title>model/BloodVessel.h</title>
<!-- Node1 -->
<g id="Node000001" class="node">
<title>Node1</title>
<g id="a_Node000001"><a xlink:title="model::BloodVessel source file">
<polygon fill="#999999" stroke="#666666" points="535.38,-240.25 427.88,-240.25 427.88,-221 535.38,-221 535.38,-240.25"/>
<text text-anchor="middle" x="481.62" y="-226.75" font-family="Helvetica,sans-Serif" font-size="10.00">model/BloodVessel.h</text>
</a>
</g>
</g>
<!-- Node2 -->
<g id="Node000002" class="node">
<title>Node2</title>
<g id="a_Node000002"><a xlink:title=" ">
<polygon fill="#e0e0e0" stroke="#999999" points="45.25,-74.5 0,-74.5 0,-55.25 45.25,-55.25 45.25,-74.5"/>
<text text-anchor="middle" x="22.62" y="-61" font-family="Helvetica,sans-Serif" font-size="10.00">math.h</text>
</a>
</g>
</g>
<!-- Node1&#45;&gt;Node2 -->
<g id="edge1_Node000001_Node000002" class="edge">
<title>Node1&#45;&gt;Node2</title>
<g id="a_edge1_Node000001_Node000002"><a xlink:title=" ">
<path fill="none" stroke="#63b8ff" d="M443.81,-220.54C381.42,-205.04 253.49,-171.13 149.62,-129.75 113.31,-115.28 73.32,-94.27 48.1,-80.35"/>
<polygon fill="#63b8ff" stroke="#63b8ff" points="50.01,-77.4 39.58,-75.59 46.6,-83.52 50.01,-77.4"/>
</a>
</g>
</g>
<!-- Node3 -->
<g id="Node000003" class="node">
<title>Node3</title>
<g id="a_Node000003"><a xlink:href="_block_8h.html" target="_top" xlink:title="model::Block source file">
<polygon fill="white" stroke="#666666" points="505.75,-185 457.5,-185 457.5,-165.75 505.75,-165.75 505.75,-185"/>
<text text-anchor="middle" x="481.62" y="-171.5" font-family="Helvetica,sans-Serif" font-size="10.00">Block.h</text>
</a>
</g>
</g>
<!-- Node1&#45;&gt;Node3 -->
<g id="edge2_Node000001_Node000003" class="edge">
<title>Node1&#45;&gt;Node3</title>
<g id="a_edge2_Node000001_Node000003"><a xlink:title=" ">
<path fill="none" stroke="#63b8ff" d="M481.62,-220.83C481.62,-214.32 481.62,-205.17 481.62,-196.87"/>
<polygon fill="#63b8ff" stroke="#63b8ff" points="485.13,-196.87 481.63,-186.87 478.13,-196.87 485.13,-196.87"/>
</a>
</g>
</g>
<!-- Node16 -->
<g id="Node000016" class="node">
<title>Node16</title>
<g id="a_Node000016"><a xlink:href="_sparse_system_8h.html" target="_top" xlink:title="SparseSystem source file.">
<polygon fill="white" stroke="#666666" points="754.25,-129.75 667,-129.75 667,-110.5 754.25,-110.5 754.25,-129.75"/>
<text text-anchor="middle" x="710.62" y="-116.25" font-family="Helvetica,sans-Serif" font-size="10.00">SparseSystem.h</text>
</a>
</g>
</g>
<!-- Node1&#45;&gt;Node16 -->
<g id="edge27_Node000001_Node000016" class="edge">
<title>Node1&#45;&gt;Node16</title>
<g id="a_edge27_Node000001_Node000016"><a xlink:title=" ">
<path fill="none" stroke="#63b8ff" d="M500.76,-220.56C540.75,-201.61 633.42,-157.7 681.11,-135.11"/>
<polygon fill="#63b8ff" stroke="#63b8ff" points="682.48,-138.33 690.02,-130.89 679.48,-132.01 682.48,-138.33"/>
</a>
</g>
</g>
<!-- Node4 -->
<g id="Node000004" class="node">
<title>Node4</title>
<g id="a_Node000004"><a xlink:title=" ">
<polygon fill="#e0e0e0" stroke="#999999" points="555.25,-129.75 492,-129.75 492,-110.5 555.25,-110.5 555.25,-129.75"/>
<text text-anchor="middle" x="523.62" y="-116.25" font-family="Helvetica,sans-Serif" font-size="10.00">Eigen/Core</text>
</a>
</g>
</g>
<!-- Node3&#45;&gt;Node4 -->
<g id="edge3_Node000003_Node000004" class="edge">
<title>Node3&#45;&gt;Node4</title>
<g id="a_edge3_Node000003_Node000004"><a xlink:title=" ">
<path fill="none" stroke="#63b8ff" d="M488.56,-165.58C494.24,-158.38 502.46,-147.96 509.52,-139.01"/>
<polygon fill="#63b8ff" stroke="#63b8ff" points="512.16,-141.32 515.6,-131.3 506.66,-136.98 512.16,-141.32"/>
</a>
</g>
</g>
<!-- Node5 -->
<g id="Node000005" class="node">
<title>Node5</title>
<g id="a_Node000005"><a xlink:title=" ">
<polygon fill="#e0e0e0" stroke="#999999" points="640.02,-129.75 611.23,-129.75 611.23,-110.5 640.02,-110.5 640.02,-129.75"/>
<text text-anchor="middle" x="625.62" y="-116.25" font-family="Helvetica,sans-Serif" font-size="10.00">list</text>
</a>
</g>
</g>
<!-- Node3&#45;&gt;Node5 -->
<g id="edge4_Node000003_Node000005" class="edge">
<title>Node3&#45;&gt;Node5</title>
<g id="a_edge4_Node000003_Node000005"><a xlink:title=" ">
<path fill="none" stroke="#63b8ff" d="M506.05,-165.34C532.19,-155.67 573.48,-140.41 600.05,-130.58"/>
<polygon fill="#63b8ff" stroke="#63b8ff" points="601.2,-133.89 609.37,-127.14 598.78,-127.32 601.2,-133.89"/>
</a>
</g>
</g>
<!-- Node6 -->
<g id="Node000006" class="node">
<title>Node6</title>
<g id="a_Node000006"><a xlink:title=" ">
<polygon fill="#e0e0e0" stroke="#999999" points="576,-19.25 541.25,-19.25 541.25,0 576,0 576,-19.25"/>
<text text-anchor="middle" x="558.62" y="-5.75" font-family="Helvetica,sans-Serif" font-size="10.00">map</text>
</a>
</g>
</g>
<!-- Node3&#45;&gt;Node6 -->
<g id="edge5_Node000003_Node000006" class="edge">
<title>Node3&#45;&gt;Node6</title>
<g id="a_edge5_Node000003_Node000006"><a xlink:title=" ">
<path fill="none" stroke="#63b8ff" d="M506.06,-168.59C525.7,-162.51 552.03,-150.81 564.62,-129.75 583.07,-98.89 573.74,-55.11 565.82,-30.12"/>
<polygon fill="#63b8ff" stroke="#63b8ff" points="569.23,-29.25 562.67,-20.93 562.61,-31.52 569.23,-29.25"/>
</a>
</g>
</g>
<!-- Node7 -->
<g id="Node000007" class="node">
<title>Node7</title>
<g id="a_Node000007"><a xlink:title=" ">
<polygon fill="#e0e0e0" stroke="#999999" points="267.12,-19.25 224.12,-19.25 224.12,0 267.12,0 267.12,-19.25"/>
<text text-anchor="middle" x="245.62" y="-5.75" font-family="Helvetica,sans-Serif" font-size="10.00">vector</text>
</a>
</g>
</g>
<!-- Node3&#45;&gt;Node7 -->
<g id="edge6_Node000003_Node000007" class="edge">
<title>Node3&#45;&gt;Node7</title>
<g id="a_edge6_Node000003_Node000007"><a xlink:title=" ">
<path fill="none" stroke="#63b8ff" d="M457.23,-172.04C378.99,-163.99 136.92,-134.53 92.62,-74.5 60.45,-30.9 158.34,-16.88 212.4,-12.52"/>
<polygon fill="#63b8ff" stroke="#63b8ff" points="212.61,-16.01 222.33,-11.79 212.1,-9.03 212.61,-16.01"/>
</a>
</g>
</g>
<!-- Node8 -->
<g id="Node000008" class="node">
<title>Node8</title>
<g id="a_Node000008"><a xlink:href="_block_type_8h.html" target="_top" xlink:title="Specifies the types of blocks and their parameters.">
<polygon fill="white" stroke="#666666" points="474.25,-129.75 405,-129.75 405,-110.5 474.25,-110.5 474.25,-129.75"/>
<text text-anchor="middle" x="439.62" y="-116.25" font-family="Helvetica,sans-Serif" font-size="10.00">BlockType.h</text>
</a>
</g>
</g>
<!-- Node3&#45;&gt;Node8 -->
<g id="edge7_Node000003_Node000008" class="edge">
<title>Node3&#45;&gt;Node8</title>
<g id="a_edge7_Node000003_Node000008"><a xlink:title=" ">
<path fill="none" stroke="#63b8ff" d="M474.69,-165.58C469.01,-158.38 460.79,-147.96 453.73,-139.01"/>
<polygon fill="#63b8ff" stroke="#63b8ff" points="456.59,-136.98 447.65,-131.3 451.09,-141.32 456.59,-136.98"/>
</a>
</g>
</g>
<!-- Node10 -->
<g id="Node000010" class="node">
<title>Node10</title>
<g id="a_Node000010"><a xlink:href="_d_o_f_handler_8h.html" target="_top" xlink:title="model::DOFHandler source file">
<polygon fill="white" stroke="#666666" points="517.38,-74.5 439.88,-74.5 439.88,-55.25 517.38,-55.25 517.38,-74.5"/>
<text text-anchor="middle" x="478.62" y="-61" font-family="Helvetica,sans-Serif" font-size="10.00">DOFHandler.h</text>
</a>
</g>
</g>
<!-- Node3&#45;&gt;Node10 -->
<g id="edge9_Node000003_Node000010" class="edge">
<title>Node3&#45;&gt;Node10</title>
<g id="a_edge9_Node000003_Node000010"><a xlink:title=" ">
<path fill="none" stroke="#63b8ff" d="M457.15,-169.08C436.73,-163.23 408.9,-151.6 395.62,-129.75 382,-107.32 410.12,-89.88 437.25,-78.93"/>
<polygon fill="#63b8ff" stroke="#63b8ff" points="438.36,-82.25 446.48,-75.45 435.89,-75.7 438.36,-82.25"/>
</a>
</g>
</g>
<!-- Node11 -->
<g id="Node000011" class="node">
<title>Node11</title>
<g id="a_Node000011"><a xlink:href="_parameter_8h.html" target="_top" xlink:title="model::Parameter source file">
<polygon fill="white" stroke="#666666" points="348.88,-129.75 280.38,-129.75 280.38,-110.5 348.88,-110.5 348.88,-129.75"/>
<text text-anchor="middle" x="314.62" y="-116.25" font-family="Helvetica,sans-Serif" font-size="10.00">Parameter.h</text>
</a>
</g>
</g>
<!-- Node3&#45;&gt;Node11 -->
<g id="edge13_Node000003_Node000011" class="edge">
<title>Node3&#45;&gt;Node11</title>
<g id="a_edge13_Node000003_Node000011"><a xlink:title=" ">
<path fill="none" stroke="#63b8ff" d="M457.34,-166.63C430.23,-157.99 385.97,-143.87 353.92,-133.65"/>
<polygon fill="#63b8ff" stroke="#63b8ff" points="355.17,-130.38 344.58,-130.68 353.04,-137.05 355.17,-130.38"/>
</a>
</g>
</g>
<!-- Node3&#45;&gt;Node16 -->
<g id="edge22_Node000003_Node000016" class="edge">
<title>Node3&#45;&gt;Node16</title>
<g id="a_edge22_Node000003_Node000016"><a xlink:title=" ">
<path fill="none" stroke="#63b8ff" d="M506.13,-168.68C542.77,-160.16 612.62,-143.91 660.39,-132.81"/>
<polygon fill="#63b8ff" stroke="#63b8ff" points="661.01,-136.26 669.96,-130.58 659.42,-129.44 661.01,-136.26"/>
</a>
</g>
</g>
<!-- Node9 -->
<g id="Node000009" class="node">
<title>Node9</title>
<g id="a_Node000009"><a xlink:title=" ">
<polygon fill="#e0e0e0" stroke="#999999" points="498.62,-19.25 458.62,-19.25 458.62,0 498.62,0 498.62,-19.25"/>
<text text-anchor="middle" x="478.62" y="-5.75" font-family="Helvetica,sans-Serif" font-size="10.00">string</text>
</a>
</g>
</g>
<!-- Node8&#45;&gt;Node9 -->
<g id="edge8_Node000008_Node000009" class="edge">
<title>Node8&#45;&gt;Node9</title>
<g id="a_edge8_Node000008_Node000009"><a xlink:title=" ">
<path fill="none" stroke="#63b8ff" d="M474.63,-110.72C493.55,-104.2 515.3,-93.04 526.62,-74.5 537.24,-57.12 519.9,-38.67 503.17,-26.09"/>
<polygon fill="#63b8ff" stroke="#63b8ff" points="505.56,-23.49 495.36,-20.62 501.54,-29.22 505.56,-23.49"/>
</a>
</g>
</g>
<!-- Node10&#45;&gt;Node6 -->
<g id="edge10_Node000010_Node000006" class="edge">
<title>Node10&#45;&gt;Node6</title>
<g id="a_edge10_Node000010_Node000006"><a xlink:title=" ">
<path fill="none" stroke="#63b8ff" d="M492.2,-54.84C504.03,-46.96 521.46,-35.36 535.5,-26.02"/>
<polygon fill="#63b8ff" stroke="#63b8ff" points="537.34,-29 543.73,-20.54 533.46,-23.17 537.34,-29"/>
</a>
</g>
</g>
<!-- Node10&#45;&gt;Node7 -->
<g id="edge12_Node000010_Node000007" class="edge">
<title>Node10&#45;&gt;Node7</title>
<g id="a_edge12_Node000010_Node000007"><a xlink:title=" ">
<path fill="none" stroke="#63b8ff" d="M439.63,-54.96C394.51,-44.65 321.01,-27.85 278.62,-18.16"/>
<polygon fill="#63b8ff" stroke="#63b8ff" points="279.54,-14.79 269.01,-15.97 277.98,-21.61 279.54,-14.79"/>
</a>
</g>
</g>
<!-- Node10&#45;&gt;Node9 -->
<g id="edge11_Node000010_Node000009" class="edge">
<title>Node10&#45;&gt;Node9</title>
<g id="a_edge11_Node000010_Node000009"><a xlink:title=" ">
<path fill="none" stroke="#63b8ff" d="M478.62,-55.08C478.62,-48.57 478.62,-39.42 478.62,-31.12"/>
<polygon fill="#63b8ff" stroke="#63b8ff" points="482.13,-31.12 478.63,-21.12 475.13,-31.12 482.13,-31.12"/>
</a>
</g>
</g>
<!-- Node11&#45;&gt;Node2 -->
<g id="edge14_Node000011_Node000002" class="edge">
<title>Node11&#45;&gt;Node2</title>
<g id="a_edge14_Node000011_Node000002"><a xlink:title=" ">
<path fill="none" stroke="#63b8ff" d="M279.98,-112.81C223.57,-102.52 112.54,-82.27 56.57,-72.07"/>
<polygon fill="#63b8ff" stroke="#63b8ff" points="57.46,-68.67 47,-70.32 56.21,-75.56 57.46,-68.67"/>
</a>
</g>
</g>
<!-- Node11&#45;&gt;Node7 -->
<g id="edge19_Node000011_Node000007" class="edge">
<title>Node11&#45;&gt;Node7</title>
<g id="a_edge19_Node000011_Node000007"><a xlink:title=" ">
<path fill="none" stroke="#63b8ff" d="M300.82,-110.09C289.54,-102.02 273.98,-89.23 264.62,-74.5 256.17,-61.18 251.33,-43.92 248.65,-30.7"/>
<polygon fill="#63b8ff" stroke="#63b8ff" points="252.13,-30.26 246.96,-21.01 245.23,-31.47 252.13,-30.26"/>
</a>
</g>
</g>
<!-- Node11&#45;&gt;Node9 -->
<g id="edge18_Node000011_Node000009" class="edge">
<title>Node11&#45;&gt;Node9</title>
<g id="a_edge18_Node000011_Node000009"><a xlink:title=" ">
<path fill="none" stroke="#63b8ff" d="M331.71,-110.12C347.75,-101.48 372.26,-87.82 392.62,-74.5 415.91,-59.27 441.36,-40.02 458.48,-26.65"/>
<polygon fill="#63b8ff" stroke="#63b8ff" points="460.64,-29.41 466.34,-20.47 456.31,-23.91 460.64,-29.41"/>
</a>
</g>
</g>
<!-- Node11&#45;&gt;Node10 -->
<g id="edge21_Node000011_Node000010" class="edge">
<title>Node11&#45;&gt;Node10</title>
<g id="a_edge21_Node000011_Node000010"><a xlink:title=" ">
<path fill="none" stroke="#63b8ff" d="M342.45,-110.09C369.19,-101.41 409.84,-88.21 439.77,-78.49"/>
<polygon fill="#63b8ff" stroke="#63b8ff" points="440.8,-81.84 449.23,-75.42 438.64,-75.18 440.8,-81.84"/>
</a>
</g>
</g>
<!-- Node12 -->
<g id="Node000012" class="node">
<title>Node12</title>
<g id="a_Node000012"><a xlink:title=" ">
<polygon fill="#e0e0e0" stroke="#999999" points="315.75,-74.5 273.5,-74.5 273.5,-55.25 315.75,-55.25 315.75,-74.5"/>
<text text-anchor="middle" x="294.62" y="-61" font-family="Helvetica,sans-Serif" font-size="10.00">cstdio</text>
</a>
</g>
</g>
<!-- Node11&#45;&gt;Node12 -->
<g id="edge15_Node000011_Node000012" class="edge">
<title>Node11&#45;&gt;Node12</title>
<g id="a_edge15_Node000011_Node000012"><a xlink:title=" ">
<path fill="none" stroke="#63b8ff" d="M311.32,-110.33C308.79,-103.59 305.2,-94.02 301.99,-85.49"/>
<polygon fill="#63b8ff" stroke="#63b8ff" points="305.32,-84.41 298.53,-76.28 298.77,-86.87 305.32,-84.41"/>
</a>
</g>
</g>
<!-- Node13 -->
<g id="Node000013" class="node">
<title>Node13</title>
<g id="a_Node000013"><a xlink:title=" ">
<polygon fill="#e0e0e0" stroke="#999999" points="665.38,-74.5 611.88,-74.5 611.88,-55.25 665.38,-55.25 665.38,-74.5"/>
<text text-anchor="middle" x="638.62" y="-61" font-family="Helvetica,sans-Serif" font-size="10.00">iostream</text>
</a>
</g>
</g>
<!-- Node11&#45;&gt;Node13 -->
<g id="edge16_Node000011_Node000013" class="edge">
<title>Node11&#45;&gt;Node13</title>
<g id="a_edge16_Node000011_Node000013"><a xlink:title=" ">
<path fill="none" stroke="#63b8ff" d="M349.3,-113.43C410.46,-103.37 537.05,-82.57 600.55,-72.13"/>
<polygon fill="#63b8ff" stroke="#63b8ff" points="600.85,-75.63 610.15,-70.55 599.72,-68.72 600.85,-75.63"/>
</a>
</g>
</g>
<!-- Node14 -->
<g id="Node000014" class="node">
<title>Node14</title>
<g id="a_Node000014"><a xlink:title=" ">
<polygon fill="#e0e0e0" stroke="#999999" points="383.88,-74.5 333.38,-74.5 333.38,-55.25 383.88,-55.25 383.88,-74.5"/>
<text text-anchor="middle" x="358.62" y="-61" font-family="Helvetica,sans-Serif" font-size="10.00">numeric</text>
</a>
</g>
</g>
<!-- Node11&#45;&gt;Node14 -->
<g id="edge17_Node000011_Node000014" class="edge">
<title>Node11&#45;&gt;Node14</title>
<g id="a_edge17_Node000011_Node000014"><a xlink:title=" ">
<path fill="none" stroke="#63b8ff" d="M321.89,-110.33C327.91,-103.05 336.64,-92.48 344.08,-83.48"/>
<polygon fill="#63b8ff" stroke="#63b8ff" points="346.57,-85.96 350.24,-76.03 341.17,-81.51 346.57,-85.96"/>
</a>
</g>
</g>
<!-- Node15 -->
<g id="Node000015" class="node">
<title>Node15</title>
<g id="a_Node000015"><a xlink:title=" ">
<polygon fill="#e0e0e0" stroke="#999999" points="217.12,-74.5 102.12,-74.5 102.12,-55.25 217.12,-55.25 217.12,-74.5"/>
<text text-anchor="middle" x="159.62" y="-61" font-family="Helvetica,sans-Serif" font-size="10.00">../ThirdParty/exprtk.hpp</text>
</a>
</g>
</g>
<!-- Node11&#45;&gt;Node15 -->
<g id="edge20_Node000011_Node000015" class="edge">
<title>Node11&#45;&gt;Node15</title>
<g id="a_edge20_Node000011_Node000015"><a xlink:title=" ">
<path fill="none" stroke="#63b8ff" d="M288.33,-110.09C263.17,-101.45 224.97,-88.32 196.72,-78.62"/>
<polygon fill="#63b8ff" stroke="#63b8ff" points="198.07,-75.38 187.48,-75.44 195.8,-82 198.07,-75.38"/>
</a>
</g>
</g>
<!-- Node16&#45;&gt;Node13 -->
<g id="edge25_Node000016_Node000013" class="edge">
<title>Node16&#45;&gt;Node13</title>
<g id="a_edge25_Node000016_Node000013"><a xlink:title=" ">
<path fill="none" stroke="#63b8ff" d="M698.41,-110.09C687.8,-102.24 672.19,-90.7 659.58,-81.37"/>
<polygon fill="#63b8ff" stroke="#63b8ff" points="662,-78.81 651.88,-75.67 657.83,-84.44 662,-78.81"/>
</a>
</g>
</g>
<!-- Node17 -->
<g id="Node000017" class="node">
<title>Node17</title>
<g id="a_Node000017"><a xlink:title=" ">
<polygon fill="#e0e0e0" stroke="#999999" points="757.5,-74.5 683.75,-74.5 683.75,-55.25 757.5,-55.25 757.5,-74.5"/>
<text text-anchor="middle" x="720.62" y="-61" font-family="Helvetica,sans-Serif" font-size="10.00">Eigen/Sparse</text>
</a>
</g>
</g>
<!-- Node16&#45;&gt;Node17 -->
<g id="edge23_Node000016_Node000017" class="edge">
<title>Node16&#45;&gt;Node17</title>
<g id="a_edge23_Node000016_Node000017"><a xlink:title=" ">
<path fill="none" stroke="#63b8ff" d="M712.28,-110.33C713.51,-103.74 715.26,-94.46 716.83,-86.07"/>
<polygon fill="#63b8ff" stroke="#63b8ff" points="720.25,-86.82 718.66,-76.35 713.37,-85.53 720.25,-86.82"/>
</a>
</g>
</g>
<!-- Node18 -->
<g id="Node000018" class="node">
<title>Node18</title>
<g id="a_Node000018"><a xlink:title=" ">
<polygon fill="#e0e0e0" stroke="#999999" points="863.25,-74.5 776,-74.5 776,-55.25 863.25,-55.25 863.25,-74.5"/>
<text text-anchor="middle" x="819.62" y="-61" font-family="Helvetica,sans-Serif" font-size="10.00">Eigen/SparseLU</text>
</a>
</g>
</g>
<!-- Node16&#45;&gt;Node18 -->
<g id="edge24_Node000016_Node000018" class="edge">
<title>Node16&#45;&gt;Node18</title>
<g id="a_edge24_Node000016_Node000018"><a xlink:title=" ">
<path fill="none" stroke="#63b8ff" d="M729.12,-110.09C746.03,-101.83 771.31,-89.48 790.86,-79.93"/>
<polygon fill="#63b8ff" stroke="#63b8ff" points="792.24,-83.15 799.68,-75.62 789.16,-76.86 792.24,-83.15"/>
</a>
</g>
</g>
<!-- Node19 -->
<g id="Node000019" class="node">
<title>Node19</title>
<g id="a_Node000019"><a xlink:title=" ">
<polygon fill="#e0e0e0" stroke="#999999" points="931.88,-74.5 881.38,-74.5 881.38,-55.25 931.88,-55.25 931.88,-74.5"/>
<text text-anchor="middle" x="906.62" y="-61" font-family="Helvetica,sans-Serif" font-size="10.00">memory</text>
</a>
</g>
</g>
<!-- Node16&#45;&gt;Node19 -->
<g id="edge26_Node000016_Node000019" class="edge">
<title>Node16&#45;&gt;Node19</title>
<g id="a_edge26_Node000016_Node000019"><a xlink:title=" ">
<path fill="none" stroke="#63b8ff" d="M743.87,-110.09C778.86,-100.59 833.77,-85.67 869.99,-75.83"/>
<polygon fill="#63b8ff" stroke="#63b8ff" points="870.84,-79.22 879.58,-73.22 869.01,-72.47 870.84,-79.22"/>
</a>
</g>
</g>
</g>
</svg>
