<?xml version="1.0" encoding="UTF-8" standalone="no"?>
<!DOCTYPE svg PUBLIC "-//W3C//DTD SVG 1.1//EN"
 "http://www.w3.org/Graphics/SVG/1.1/DTD/svg11.dtd">
<!-- Generated by graphviz version 11.0.0 (20240428.1522)
 -->
<!-- Title: model/Block.h Pages: 1 -->
<svg width="1067pt" height="193pt"
 viewBox="0.00 0.00 1066.50 193.00" xmlns="http://www.w3.org/2000/svg" xmlns:xlink="http://www.w3.org/1999/xlink">
<g id="graph0" class="graph" transform="scale(1 1) rotate(0) translate(4 189)">
<title>model/Block.h</title>
<!-- Node1 -->
<g id="Node000001" class="node">
<title>Node1</title>
<g id="a_Node000001"><a xlink:title="model::Block source file">
<polygon fill="#999999" stroke="#666666" points="247.38,-185 169.88,-185 169.88,-165.75 247.38,-165.75 247.38,-185"/>
<text text-anchor="middle" x="208.62" y="-171.5" font-family="Helvetica,sans-Serif" font-size="10.00">model/Block.h</text>
</a>
</g>
</g>
<!-- Node2 -->
<g id="Node000002" class="node">
<title>Node2</title>
<g id="a_Node000002"><a xlink:title=" ">
<polygon fill="#e0e0e0" stroke="#999999" points="63.25,-129.75 0,-129.75 0,-110.5 63.25,-110.5 63.25,-129.75"/>
<text text-anchor="middle" x="31.62" y="-116.25" font-family="Helvetica,sans-Serif" font-size="10.00">Eigen/Core</text>
</a>
</g>
</g>
<!-- Node1&#45;&gt;Node2 -->
<g id="edge1_Node000001_Node000002" class="edge">
<title>Node1&#45;&gt;Node2</title>
<g id="a_edge1_Node000001_Node000002"><a xlink:title=" ">
<path fill="none" stroke="#63b8ff" d="M178.6,-165.34C149.48,-156.58 105.09,-143.23 72.71,-133.48"/>
<polygon fill="#63b8ff" stroke="#63b8ff" points="73.83,-130.17 63.25,-130.64 71.81,-136.87 73.83,-130.17"/>
</a>
</g>
</g>
<!-- Node3 -->
<g id="Node000003" class="node">
<title>Node3</title>
<g id="a_Node000003"><a xlink:title=" ">
<polygon fill="#e0e0e0" stroke="#999999" points="110.03,-129.75 81.22,-129.75 81.22,-110.5 110.03,-110.5 110.03,-129.75"/>
<text text-anchor="middle" x="95.62" y="-116.25" font-family="Helvetica,sans-Serif" font-size="10.00">list</text>
</a>
</g>
</g>
<!-- Node1&#45;&gt;Node3 -->
<g id="edge2_Node000001_Node000003" class="edge">
<title>Node1&#45;&gt;Node3</title>
<g id="a_edge2_Node000001_Node000003"><a xlink:title=" ">
<path fill="none" stroke="#63b8ff" d="M189.46,-165.34C170.45,-156.39 141.26,-142.63 120.48,-132.84"/>
<polygon fill="#63b8ff" stroke="#63b8ff" points="122.11,-129.74 111.58,-128.64 119.13,-136.07 122.11,-129.74"/>
</a>
</g>
</g>
<!-- Node4 -->
<g id="Node000004" class="node">
<title>Node4</title>
<g id="a_Node000004"><a xlink:title=" ">
<polygon fill="#e0e0e0" stroke="#999999" points="179,-19.25 144.25,-19.25 144.25,0 179,0 179,-19.25"/>
<text text-anchor="middle" x="161.62" y="-5.75" font-family="Helvetica,sans-Serif" font-size="10.00">map</text>
</a>
</g>
</g>
<!-- Node1&#45;&gt;Node4 -->
<g id="edge3_Node000001_Node000004" class="edge">
<title>Node1&#45;&gt;Node4</title>
<g id="a_edge3_Node000001_Node000004"><a xlink:title=" ">
<path fill="none" stroke="#63b8ff" d="M202.82,-165.52C197.34,-156.77 189.29,-142.84 184.62,-129.75 172.65,-96.11 166.45,-54.78 163.62,-30.7"/>
<polygon fill="#63b8ff" stroke="#63b8ff" points="167.13,-30.61 162.58,-21.04 160.18,-31.36 167.13,-30.61"/>
</a>
</g>
</g>
<!-- Node5 -->
<g id="Node000005" class="node">
<title>Node5</title>
<g id="a_Node000005"><a xlink:title=" ">
<polygon fill="#e0e0e0" stroke="#999999" points="264.12,-19.25 221.12,-19.25 221.12,0 264.12,0 264.12,-19.25"/>
<text text-anchor="middle" x="242.62" y="-5.75" font-family="Helvetica,sans-Serif" font-size="10.00">vector</text>
</a>
</g>
</g>
<!-- Node1&#45;&gt;Node5 -->
<g id="edge4_Node000001_Node000005" class="edge">
<title>Node1&#45;&gt;Node5</title>
<g id="a_edge4_Node000001_Node000005"><a xlink:title=" ">
<path fill="none" stroke="#63b8ff" d="M204.65,-165.56C196.07,-145.17 177.91,-93.62 194.62,-55.25 199.67,-43.67 209.36,-33.74 218.73,-26.21"/>
<polygon fill="#63b8ff" stroke="#63b8ff" points="220.62,-29.17 226.58,-20.41 216.46,-23.54 220.62,-29.17"/>
</a>
</g>
</g>
<!-- Node6 -->
<g id="Node000006" class="node">
<title>Node6</title>
<g id="a_Node000006"><a xlink:href="_block_type_8h.html" target="_top" xlink:title="Specifies the types of blocks and their parameters.">
<polygon fill="white" stroke="#666666" points="677.25,-129.75 608,-129.75 608,-110.5 677.25,-110.5 677.25,-129.75"/>
<text text-anchor="middle" x="642.62" y="-116.25" font-family="Helvetica,sans-Serif" font-size="10.00">BlockType.h</text>
</a>
</g>
</g>
<!-- Node1&#45;&gt;Node6 -->
<g id="edge5_Node000001_Node000006" class="edge">
<title>Node1&#45;&gt;Node6</title>
<g id="a_edge5_Node000001_Node000006"><a xlink:title=" ">
<path fill="none" stroke="#63b8ff" d="M247.52,-169.6C327.58,-159.78 510.49,-137.34 596.42,-126.79"/>
<polygon fill="#63b8ff" stroke="#63b8ff" points="596.63,-130.29 606.13,-125.6 595.78,-123.35 596.63,-130.29"/>
</a>
</g>
</g>
<!-- Node8 -->
<g id="Node000008" class="node">
<title>Node8</title>
<g id="a_Node000008"><a xlink:href="_d_o_f_handler_8h.html" target="_top" xlink:title="model::DOFHandler source file">
<polygon fill="white" stroke="#666666" points="281.38,-74.5 203.88,-74.5 203.88,-55.25 281.38,-55.25 281.38,-74.5"/>
<text text-anchor="middle" x="242.62" y="-61" font-family="Helvetica,sans-Serif" font-size="10.00">DOFHandler.h</text>
</a>
</g>
</g>
<!-- Node1&#45;&gt;Node8 -->
<g id="edge7_Node000001_Node000008" class="edge">
<title>Node1&#45;&gt;Node8</title>
<g id="a_edge7_Node000001_Node000008"><a xlink:title=" ">
<path fill="none" stroke="#63b8ff" d="M211.41,-165.5C216.84,-148.17 228.96,-109.48 236.4,-85.74"/>
<polygon fill="#63b8ff" stroke="#63b8ff" points="239.7,-86.91 239.35,-76.32 233.02,-84.82 239.7,-86.91"/>
</a>
</g>
</g>
<!-- Node9 -->
<g id="Node000009" class="node">
<title>Node9</title>
<g id="a_Node000009"><a xlink:href="_parameter_8h.html" target="_top" xlink:title="model::Parameter source file">
<polygon fill="white" stroke="#666666" points="519.88,-129.75 451.38,-129.75 451.38,-110.5 519.88,-110.5 519.88,-129.75"/>
<text text-anchor="middle" x="485.62" y="-116.25" font-family="Helvetica,sans-Serif" font-size="10.00">Parameter.h</text>
</a>
</g>
</g>
<!-- Node1&#45;&gt;Node9 -->
<g id="edge11_Node000001_Node000009" class="edge">
<title>Node1&#45;&gt;Node9</title>
<g id="a_edge11_Node000001_Node000009"><a xlink:title=" ">
<path fill="none" stroke="#63b8ff" d="M247.72,-166.86C298.3,-157.14 386.24,-140.23 439.87,-129.92"/>
<polygon fill="#63b8ff" stroke="#63b8ff" points="440.44,-133.37 449.6,-128.05 439.12,-126.5 440.44,-133.37"/>
</a>
</g>
</g>
<!-- Node15 -->
<g id="Node000015" class="node">
<title>Node15</title>
<g id="a_Node000015"><a xlink:href="_sparse_system_8h.html" target="_top" xlink:title="SparseSystem source file.">
<polygon fill="white" stroke="#666666" points="898.25,-129.75 811,-129.75 811,-110.5 898.25,-110.5 898.25,-129.75"/>
<text text-anchor="middle" x="854.62" y="-116.25" font-family="Helvetica,sans-Serif" font-size="10.00">SparseSystem.h</text>
</a>
</g>
</g>
<!-- Node1&#45;&gt;Node15 -->
<g id="edge20_Node000001_Node000015" class="edge">
<title>Node1&#45;&gt;Node15</title>
<g id="a_edge20_Node000001_Node000015"><a xlink:title=" ">
<path fill="none" stroke="#63b8ff" d="M247.58,-171.16C357.62,-162.09 671.11,-136.25 799.14,-125.7"/>
<polygon fill="#63b8ff" stroke="#63b8ff" points="799.39,-129.19 809.06,-124.88 798.81,-122.21 799.39,-129.19"/>
</a>
</g>
</g>
<!-- Node7 -->
<g id="Node000007" class="node">
<title>Node7</title>
<g id="a_Node000007"><a xlink:title=" ">
<polygon fill="#e0e0e0" stroke="#999999" points="629.62,-19.25 589.62,-19.25 589.62,0 629.62,0 629.62,-19.25"/>
<text text-anchor="middle" x="609.62" y="-5.75" font-family="Helvetica,sans-Serif" font-size="10.00">string</text>
</a>
</g>
</g>
<!-- Node6&#45;&gt;Node7 -->
<g id="edge6_Node000006_Node000007" class="edge">
<title>Node6&#45;&gt;Node7</title>
<g id="a_edge6_Node000006_Node000007"><a xlink:title=" ">
<path fill="none" stroke="#63b8ff" d="M658.6,-110.14C677.58,-98.23 705.2,-76.28 692.62,-55.25 681.38,-36.44 659.18,-25.1 640.56,-18.55"/>
<polygon fill="#63b8ff" stroke="#63b8ff" points="641.88,-15.3 631.29,-15.62 639.77,-21.97 641.88,-15.3"/>
</a>
</g>
</g>
<!-- Node8&#45;&gt;Node4 -->
<g id="edge8_Node000008_Node000004" class="edge">
<title>Node8&#45;&gt;Node4</title>
<g id="a_edge8_Node000008_Node000004"><a xlink:title=" ">
<path fill="none" stroke="#63b8ff" d="M228.88,-54.84C216.9,-46.96 199.25,-35.36 185.04,-26.02"/>
<polygon fill="#63b8ff" stroke="#63b8ff" points="186.98,-23.1 176.7,-20.53 183.13,-28.95 186.98,-23.1"/>
</a>
</g>
</g>
<!-- Node8&#45;&gt;Node5 -->
<g id="edge10_Node000008_Node000005" class="edge">
<title>Node8&#45;&gt;Node5</title>
<g id="a_edge10_Node000008_Node000005"><a xlink:title=" ">
<path fill="none" stroke="#63b8ff" d="M242.62,-55.08C242.62,-48.57 242.62,-39.42 242.62,-31.12"/>
<polygon fill="#63b8ff" stroke="#63b8ff" points="246.13,-31.12 242.63,-21.12 239.13,-31.12 246.13,-31.12"/>
</a>
</g>
</g>
<!-- Node8&#45;&gt;Node7 -->
<g id="edge9_Node000008_Node000007" class="edge">
<title>Node8&#45;&gt;Node7</title>
<g id="a_edge9_Node000008_Node000007"><a xlink:title=" ">
<path fill="none" stroke="#63b8ff" d="M281.64,-56.73C284.68,-56.22 287.7,-55.72 290.62,-55.25 395.8,-38.45 521.04,-21.95 578.28,-14.6"/>
<polygon fill="#63b8ff" stroke="#63b8ff" points="578.45,-18.11 587.93,-13.37 577.57,-11.16 578.45,-18.11"/>
</a>
</g>
</g>
<!-- Node9&#45;&gt;Node5 -->
<g id="edge17_Node000009_Node000005" class="edge">
<title>Node9&#45;&gt;Node5</title>
<g id="a_edge17_Node000009_Node000005"><a xlink:title=" ">
<path fill="none" stroke="#63b8ff" d="M507.48,-110.17C533.4,-98.3 570.94,-76.38 552.62,-55.25 517.04,-14.18 348.05,-10.04 275.66,-10.2"/>
<polygon fill="#63b8ff" stroke="#63b8ff" points="276.01,-6.7 266.03,-10.25 276.04,-13.69 276.01,-6.7"/>
</a>
</g>
</g>
<!-- Node9&#45;&gt;Node7 -->
<g id="edge16_Node000009_Node000007" class="edge">
<title>Node9&#45;&gt;Node7</title>
<g id="a_edge16_Node000009_Node000007"><a xlink:title=" ">
<path fill="none" stroke="#63b8ff" d="M520.21,-111.02C541.58,-104.41 568.16,-93.05 585.62,-74.5 596.94,-62.48 603.05,-44.62 606.26,-30.84"/>
<polygon fill="#63b8ff" stroke="#63b8ff" points="609.68,-31.59 608.18,-21.1 602.82,-30.24 609.68,-31.59"/>
</a>
</g>
</g>
<!-- Node9&#45;&gt;Node8 -->
<g id="edge19_Node000009_Node000008" class="edge">
<title>Node9&#45;&gt;Node8</title>
<g id="a_edge19_Node000009_Node000008"><a xlink:title=" ">
<path fill="none" stroke="#63b8ff" d="M451.07,-111.55C409.67,-102.48 339.99,-87.21 292.7,-76.85"/>
<polygon fill="#63b8ff" stroke="#63b8ff" points="293.48,-73.44 282.96,-74.71 291.98,-80.27 293.48,-73.44"/>
</a>
</g>
</g>
<!-- Node10 -->
<g id="Node000010" class="node">
<title>Node10</title>
<g id="a_Node000010"><a xlink:title=" ">
<polygon fill="#e0e0e0" stroke="#999999" points="683.25,-74.5 638,-74.5 638,-55.25 683.25,-55.25 683.25,-74.5"/>
<text text-anchor="middle" x="660.62" y="-61" font-family="Helvetica,sans-Serif" font-size="10.00">math.h</text>
</a>
</g>
</g>
<!-- Node9&#45;&gt;Node10 -->
<g id="edge12_Node000009_Node000010" class="edge">
<title>Node9&#45;&gt;Node10</title>
<g id="a_edge12_Node000009_Node000010"><a xlink:title=" ">
<path fill="none" stroke="#63b8ff" d="M515.31,-110.09C546.19,-100.7 594.46,-86.01 626.79,-76.17"/>
<polygon fill="#63b8ff" stroke="#63b8ff" points="627.52,-79.61 636.07,-73.35 625.48,-72.91 627.52,-79.61"/>
</a>
</g>
</g>
<!-- Node11 -->
<g id="Node000011" class="node">
<title>Node11</title>
<g id="a_Node000011"><a xlink:title=" ">
<polygon fill="#e0e0e0" stroke="#999999" points="341.75,-74.5 299.5,-74.5 299.5,-55.25 341.75,-55.25 341.75,-74.5"/>
<text text-anchor="middle" x="320.62" y="-61" font-family="Helvetica,sans-Serif" font-size="10.00">cstdio</text>
</a>
</g>
</g>
<!-- Node9&#45;&gt;Node11 -->
<g id="edge13_Node000009_Node000011" class="edge">
<title>Node9&#45;&gt;Node11</title>
<g id="a_edge13_Node000009_Node000011"><a xlink:title=" ">
<path fill="none" stroke="#63b8ff" d="M457.63,-110.09C428.69,-100.75 383.55,-86.18 353.07,-76.34"/>
<polygon fill="#63b8ff" stroke="#63b8ff" points="354.2,-73.03 343.61,-73.29 352.05,-79.69 354.2,-73.03"/>
</a>
</g>
</g>
<!-- Node12 -->
<g id="Node000012" class="node">
<title>Node12</title>
<g id="a_Node000012"><a xlink:title=" ">
<polygon fill="#e0e0e0" stroke="#999999" points="793.38,-74.5 739.88,-74.5 739.88,-55.25 793.38,-55.25 793.38,-74.5"/>
<text text-anchor="middle" x="766.62" y="-61" font-family="Helvetica,sans-Serif" font-size="10.00">iostream</text>
</a>
</g>
</g>
<!-- Node9&#45;&gt;Node12 -->
<g id="edge14_Node000009_Node000012" class="edge">
<title>Node9&#45;&gt;Node12</title>
<g id="a_edge14_Node000009_Node000012"><a xlink:title=" ">
<path fill="none" stroke="#63b8ff" d="M520.36,-112.54C573.28,-102.51 673.7,-83.48 728.54,-73.09"/>
<polygon fill="#63b8ff" stroke="#63b8ff" points="728.86,-76.59 738.03,-71.29 727.56,-69.72 728.86,-76.59"/>
</a>
</g>
</g>
<!-- Node13 -->
<g id="Node000013" class="node">
<title>Node13</title>
<g id="a_Node000013"><a xlink:title=" ">
<polygon fill="#e0e0e0" stroke="#999999" points="409.88,-74.5 359.38,-74.5 359.38,-55.25 409.88,-55.25 409.88,-74.5"/>
<text text-anchor="middle" x="384.62" y="-61" font-family="Helvetica,sans-Serif" font-size="10.00">numeric</text>
</a>
</g>
</g>
<!-- Node9&#45;&gt;Node13 -->
<g id="edge15_Node000009_Node000013" class="edge">
<title>Node9&#45;&gt;Node13</title>
<g id="a_edge15_Node000009_Node000013"><a xlink:title=" ">
<path fill="none" stroke="#63b8ff" d="M468.49,-110.09C452.97,-101.91 429.82,-89.71 411.78,-80.19"/>
<polygon fill="#63b8ff" stroke="#63b8ff" points="413.66,-77.23 403.18,-75.66 410.39,-83.42 413.66,-77.23"/>
</a>
</g>
</g>
<!-- Node14 -->
<g id="Node000014" class="node">
<title>Node14</title>
<g id="a_Node000014"><a xlink:title=" ">
<polygon fill="#e0e0e0" stroke="#999999" points="543.12,-74.5 428.12,-74.5 428.12,-55.25 543.12,-55.25 543.12,-74.5"/>
<text text-anchor="middle" x="485.62" y="-61" font-family="Helvetica,sans-Serif" font-size="10.00">../ThirdParty/exprtk.hpp</text>
</a>
</g>
</g>
<!-- Node9&#45;&gt;Node14 -->
<g id="edge18_Node000009_Node000014" class="edge">
<title>Node9&#45;&gt;Node14</title>
<g id="a_edge18_Node000009_Node000014"><a xlink:title=" ">
<path fill="none" stroke="#63b8ff" d="M485.62,-110.33C485.62,-103.82 485.62,-94.67 485.62,-86.37"/>
<polygon fill="#63b8ff" stroke="#63b8ff" points="489.13,-86.37 485.63,-76.37 482.13,-86.37 489.13,-86.37"/>
</a>
</g>
</g>
<!-- Node15&#45;&gt;Node12 -->
<g id="edge23_Node000015_Node000012" class="edge">
<title>Node15&#45;&gt;Node12</title>
<g id="a_edge23_Node000015_Node000012"><a xlink:title=" ">
<path fill="none" stroke="#63b8ff" d="M839.7,-110.09C826.42,-102.06 806.76,-90.16 791.17,-80.73"/>
<polygon fill="#63b8ff" stroke="#63b8ff" points="793.29,-77.92 782.92,-75.74 789.66,-83.91 793.29,-77.92"/>
</a>
</g>
</g>
<!-- Node16 -->
<g id="Node000016" class="node">
<title>Node16</title>
<g id="a_Node000016"><a xlink:title=" ">
<polygon fill="#e0e0e0" stroke="#999999" points="1058.5,-74.5 984.75,-74.5 984.75,-55.25 1058.5,-55.25 1058.5,-74.5"/>
<text text-anchor="middle" x="1021.62" y="-61" font-family="Helvetica,sans-Serif" font-size="10.00">Eigen/Sparse</text>
</a>
</g>
</g>
<!-- Node15&#45;&gt;Node16 -->
<g id="edge21_Node000015_Node000016" class="edge">
<title>Node15&#45;&gt;Node16</title>
<g id="a_edge21_Node000015_Node000016"><a xlink:title=" ">
<path fill="none" stroke="#63b8ff" d="M882.95,-110.09C910.3,-101.37 951.95,-88.09 982.46,-78.36"/>
<polygon fill="#63b8ff" stroke="#63b8ff" points="983.25,-81.78 991.71,-75.41 981.12,-75.12 983.25,-81.78"/>
</a>
</g>
</g>
<!-- Node17 -->
<g id="Node000017" class="node">
<title>Node17</title>
<g id="a_Node000017"><a xlink:title=" ">
<polygon fill="#e0e0e0" stroke="#999999" points="898.25,-74.5 811,-74.5 811,-55.25 898.25,-55.25 898.25,-74.5"/>
<text text-anchor="middle" x="854.62" y="-61" font-family="Helvetica,sans-Serif" font-size="10.00">Eigen/SparseLU</text>
</a>
</g>
</g>
<!-- Node15&#45;&gt;Node17 -->
<g id="edge22_Node000015_Node000017" class="edge">
<title>Node15&#45;&gt;Node17</title>
<g id="a_edge22_Node000015_Node000017"><a xlink:title=" ">
<path fill="none" stroke="#63b8ff" d="M854.62,-110.33C854.62,-103.82 854.62,-94.67 854.62,-86.37"/>
<polygon fill="#63b8ff" stroke="#63b8ff" points="858.13,-86.37 854.63,-76.37 851.13,-86.37 858.13,-86.37"/>
</a>
</g>
</g>
<!-- Node18 -->
<g id="Node000018" class="node">
<title>Node18</title>
<g id="a_Node000018"><a xlink:title=" ">
<polygon fill="#e0e0e0" stroke="#999999" points="966.88,-74.5 916.38,-74.5 916.38,-55.25 966.88,-55.25 966.88,-74.5"/>
<text text-anchor="middle" x="941.62" y="-61" font-family="Helvetica,sans-Serif" font-size="10.00">memory</text>
</a>
</g>
</g>
<!-- Node15&#45;&gt;Node18 -->
<g id="edge24_Node000015_Node000018" class="edge">
<title>Node15&#45;&gt;Node18</title>
<g id="a_edge24_Node000015_Node000018"><a xlink:title=" ">
<path fill="none" stroke="#63b8ff" d="M869.38,-110.09C882.51,-102.06 901.95,-90.16 917.36,-80.73"/>
<polygon fill="#63b8ff" stroke="#63b8ff" points="918.8,-83.95 925.5,-75.74 915.15,-77.98 918.8,-83.95"/>
</a>
</g>
</g>
</g>
</svg>
