<?xml version="1.0" encoding="UTF-8" standalone="no"?>
<!DOCTYPE svg PUBLIC "-//W3C//DTD SVG 1.1//EN"
 "http://www.w3.org/Graphics/SVG/1.1/DTD/svg11.dtd">
<!-- Generated by graphviz version 11.0.0 (20240428.1522)
 -->
<!-- Title: model/ClosedLoopHeartPulmonary.h Pages: 1 -->
<svg width="922pt" height="248pt"
 viewBox="0.00 0.00 922.25 248.25" xmlns="http://www.w3.org/2000/svg" xmlns:xlink="http://www.w3.org/1999/xlink">
<g id="graph0" class="graph" transform="scale(1 1) rotate(0) translate(4 244.25)">
<title>model/ClosedLoopHeartPulmonary.h</title>
<!-- Node1 -->
<g id="Node000001" class="node">
<title>Node1</title>
<g id="a_Node000001"><a xlink:title="model::ClosedLoopHeartPulmonary source file">
<polygon fill="#999999" stroke="#666666" points="667.5,-240.25 493.25,-240.25 493.25,-221 667.5,-221 667.5,-240.25"/>
<text text-anchor="middle" x="580.38" y="-226.75" font-family="Helvetica,sans-Serif" font-size="10.00">model/ClosedLoopHeartPulmonary.h</text>
</a>
</g>
</g>
<!-- Node2 -->
<g id="Node000002" class="node">
<title>Node2</title>
<g id="a_Node000002"><a xlink:href="_block_8h.html" target="_top" xlink:title="model::Block source file">
<polygon fill="white" stroke="#666666" points="466.5,-185 418.25,-185 418.25,-165.75 466.5,-165.75 466.5,-185"/>
<text text-anchor="middle" x="442.38" y="-171.5" font-family="Helvetica,sans-Serif" font-size="10.00">Block.h</text>
</a>
</g>
</g>
<!-- Node1&#45;&gt;Node2 -->
<g id="edge1_Node000001_Node000002" class="edge">
<title>Node1&#45;&gt;Node2</title>
<g id="a_edge1_Node000001_Node000002"><a xlink:title=" ">
<path fill="none" stroke="#63b8ff" d="M556.97,-220.59C534.86,-212.06 501.46,-199.17 476.41,-189.51"/>
<polygon fill="#63b8ff" stroke="#63b8ff" points="477.9,-186.33 467.31,-186 475.38,-192.86 477.9,-186.33"/>
</a>
</g>
</g>
<!-- Node16 -->
<g id="Node000016" class="node">
<title>Node16</title>
<g id="a_Node000016"><a xlink:href="_sparse_system_8h.html" target="_top" xlink:title="SparseSystem source file.">
<polygon fill="white" stroke="#666666" points="739,-129.75 651.75,-129.75 651.75,-110.5 739,-110.5 739,-129.75"/>
<text text-anchor="middle" x="695.38" y="-116.25" font-family="Helvetica,sans-Serif" font-size="10.00">SparseSystem.h</text>
</a>
</g>
</g>
<!-- Node1&#45;&gt;Node16 -->
<g id="edge26_Node000001_Node000016" class="edge">
<title>Node1&#45;&gt;Node16</title>
<g id="a_edge26_Node000001_Node000016"><a xlink:title=" ">
<path fill="none" stroke="#63b8ff" d="M580.94,-220.69C582.23,-207.25 586.47,-181.68 600.38,-165.75 613.17,-151.08 631.83,-140.89 649.24,-133.98"/>
<polygon fill="#63b8ff" stroke="#63b8ff" points="650.23,-137.34 658.42,-130.62 647.83,-130.77 650.23,-137.34"/>
</a>
</g>
</g>
<!-- Node20 -->
<g id="Node000020" class="node">
<title>Node20</title>
<g id="a_Node000020"><a xlink:title=" ">
<polygon fill="#e0e0e0" stroke="#999999" points="651.88,-185 608.88,-185 608.88,-165.75 651.88,-165.75 651.88,-185"/>
<text text-anchor="middle" x="630.38" y="-171.5" font-family="Helvetica,sans-Serif" font-size="10.00">cmath</text>
</a>
</g>
</g>
<!-- Node1&#45;&gt;Node20 -->
<g id="edge27_Node000001_Node000020" class="edge">
<title>Node1&#45;&gt;Node20</title>
<g id="a_edge27_Node000001_Node000020"><a xlink:title=" ">
<path fill="none" stroke="#63b8ff" d="M588.63,-220.83C595.54,-213.48 605.6,-202.76 614.11,-193.69"/>
<polygon fill="#63b8ff" stroke="#63b8ff" points="616.61,-196.15 620.9,-186.46 611.51,-191.36 616.61,-196.15"/>
</a>
</g>
</g>
<!-- Node3 -->
<g id="Node000003" class="node">
<title>Node3</title>
<g id="a_Node000003"><a xlink:title=" ">
<polygon fill="#e0e0e0" stroke="#999999" points="558,-129.75 494.75,-129.75 494.75,-110.5 558,-110.5 558,-129.75"/>
<text text-anchor="middle" x="526.38" y="-116.25" font-family="Helvetica,sans-Serif" font-size="10.00">Eigen/Core</text>
</a>
</g>
</g>
<!-- Node2&#45;&gt;Node3 -->
<g id="edge2_Node000002_Node000003" class="edge">
<title>Node2&#45;&gt;Node3</title>
<g id="a_edge2_Node000002_Node000003"><a xlink:title=" ">
<path fill="none" stroke="#63b8ff" d="M456.62,-165.34C469.17,-157.39 487.71,-145.64 502.52,-136.25"/>
<polygon fill="#63b8ff" stroke="#63b8ff" points="504.21,-139.32 510.78,-131.01 500.46,-133.41 504.21,-139.32"/>
</a>
</g>
</g>
<!-- Node4 -->
<g id="Node000004" class="node">
<title>Node4</title>
<g id="a_Node000004"><a xlink:title=" ">
<polygon fill="#e0e0e0" stroke="#999999" points="604.77,-129.75 575.98,-129.75 575.98,-110.5 604.77,-110.5 604.77,-129.75"/>
<text text-anchor="middle" x="590.38" y="-116.25" font-family="Helvetica,sans-Serif" font-size="10.00">list</text>
</a>
</g>
</g>
<!-- Node2&#45;&gt;Node4 -->
<g id="edge3_Node000002_Node000004" class="edge">
<title>Node2&#45;&gt;Node4</title>
<g id="a_edge3_Node000002_Node000004"><a xlink:title=" ">
<path fill="none" stroke="#63b8ff" d="M466.85,-165.77C490.01,-157.59 526,-144.82 565.21,-130.51"/>
<polygon fill="#63b8ff" stroke="#63b8ff" points="566.18,-133.88 574.37,-127.16 563.77,-127.3 566.18,-133.88"/>
</a>
</g>
</g>
<!-- Node5 -->
<g id="Node000005" class="node">
<title>Node5</title>
<g id="a_Node000005"><a xlink:title=" ">
<polygon fill="#e0e0e0" stroke="#999999" points="34.75,-19.25 0,-19.25 0,0 34.75,0 34.75,-19.25"/>
<text text-anchor="middle" x="17.38" y="-5.75" font-family="Helvetica,sans-Serif" font-size="10.00">map</text>
</a>
</g>
</g>
<!-- Node2&#45;&gt;Node5 -->
<g id="edge4_Node000002_Node000005" class="edge">
<title>Node2&#45;&gt;Node5</title>
<g id="a_edge4_Node000002_Node000005"><a xlink:title=" ">
<path fill="none" stroke="#63b8ff" d="M417.84,-172.88C350.37,-168.5 163.36,-154.4 107.38,-129.75 72.36,-114.34 63.5,-105.71 41.38,-74.5 31.93,-61.18 25.7,-43.69 21.96,-30.38"/>
<polygon fill="#63b8ff" stroke="#63b8ff" points="25.44,-29.86 19.58,-21.04 18.66,-31.59 25.44,-29.86"/>
</a>
</g>
</g>
<!-- Node6 -->
<g id="Node000006" class="node">
<title>Node6</title>
<g id="a_Node000006"><a xlink:title=" ">
<polygon fill="#e0e0e0" stroke="#999999" points="119.88,-19.25 76.88,-19.25 76.88,0 119.88,0 119.88,-19.25"/>
<text text-anchor="middle" x="98.38" y="-5.75" font-family="Helvetica,sans-Serif" font-size="10.00">vector</text>
</a>
</g>
</g>
<!-- Node2&#45;&gt;Node6 -->
<g id="edge5_Node000002_Node000006" class="edge">
<title>Node2&#45;&gt;Node6</title>
<g id="a_edge5_Node000002_Node000006"><a xlink:title=" ">
<path fill="none" stroke="#63b8ff" d="M417.84,-172.03C339.17,-163.96 95.69,-134.44 50.38,-74.5 37.95,-58.07 56.09,-39.21 73.52,-26.26"/>
<polygon fill="#63b8ff" stroke="#63b8ff" points="75.46,-29.17 81.69,-20.6 71.47,-23.42 75.46,-29.17"/>
</a>
</g>
</g>
<!-- Node7 -->
<g id="Node000007" class="node">
<title>Node7</title>
<g id="a_Node000007"><a xlink:href="_block_type_8h.html" target="_top" xlink:title="Specifies the types of blocks and their parameters.">
<polygon fill="white" stroke="#666666" points="477,-129.75 407.75,-129.75 407.75,-110.5 477,-110.5 477,-129.75"/>
<text text-anchor="middle" x="442.38" y="-116.25" font-family="Helvetica,sans-Serif" font-size="10.00">BlockType.h</text>
</a>
</g>
</g>
<!-- Node2&#45;&gt;Node7 -->
<g id="edge6_Node000002_Node000007" class="edge">
<title>Node2&#45;&gt;Node7</title>
<g id="a_edge6_Node000002_Node000007"><a xlink:title=" ">
<path fill="none" stroke="#63b8ff" d="M442.38,-165.58C442.38,-159.07 442.38,-149.92 442.38,-141.62"/>
<polygon fill="#63b8ff" stroke="#63b8ff" points="445.88,-141.62 442.38,-131.62 438.88,-141.62 445.88,-141.62"/>
</a>
</g>
</g>
<!-- Node9 -->
<g id="Node000009" class="node">
<title>Node9</title>
<g id="a_Node000009"><a xlink:href="_d_o_f_handler_8h.html" target="_top" xlink:title="model::DOFHandler source file">
<polygon fill="white" stroke="#666666" points="137.12,-74.5 59.62,-74.5 59.62,-55.25 137.12,-55.25 137.12,-74.5"/>
<text text-anchor="middle" x="98.38" y="-61" font-family="Helvetica,sans-Serif" font-size="10.00">DOFHandler.h</text>
</a>
</g>
</g>
<!-- Node2&#45;&gt;Node9 -->
<g id="edge8_Node000002_Node000009" class="edge">
<title>Node2&#45;&gt;Node9</title>
<g id="a_edge8_Node000002_Node000009"><a xlink:title=" ">
<path fill="none" stroke="#63b8ff" d="M417.91,-166.66C359.19,-148.14 209.85,-101.03 138.07,-78.4"/>
<polygon fill="#63b8ff" stroke="#63b8ff" points="139.28,-75.11 128.69,-75.44 137.17,-81.78 139.28,-75.11"/>
</a>
</g>
</g>
<!-- Node10 -->
<g id="Node000010" class="node">
<title>Node10</title>
<g id="a_Node000010"><a xlink:href="_parameter_8h.html" target="_top" xlink:title="model::Parameter source file">
<polygon fill="white" stroke="#666666" points="389.62,-129.75 321.12,-129.75 321.12,-110.5 389.62,-110.5 389.62,-129.75"/>
<text text-anchor="middle" x="355.38" y="-116.25" font-family="Helvetica,sans-Serif" font-size="10.00">Parameter.h</text>
</a>
</g>
</g>
<!-- Node2&#45;&gt;Node10 -->
<g id="edge12_Node000002_Node000010" class="edge">
<title>Node2&#45;&gt;Node10</title>
<g id="a_edge12_Node000002_Node000010"><a xlink:title=" ">
<path fill="none" stroke="#63b8ff" d="M427.62,-165.34C414.49,-157.31 395.05,-145.41 379.64,-135.98"/>
<polygon fill="#63b8ff" stroke="#63b8ff" points="381.85,-133.23 371.5,-130.99 378.2,-139.2 381.85,-133.23"/>
</a>
</g>
</g>
<!-- Node2&#45;&gt;Node16 -->
<g id="edge21_Node000002_Node000016" class="edge">
<title>Node2&#45;&gt;Node16</title>
<g id="a_edge21_Node000002_Node000016"><a xlink:title=" ">
<path fill="none" stroke="#63b8ff" d="M466.63,-169.27C506.59,-160.86 587.17,-143.9 641.22,-132.52"/>
<polygon fill="#63b8ff" stroke="#63b8ff" points="641.78,-135.98 650.85,-130.5 640.34,-129.13 641.78,-135.98"/>
</a>
</g>
</g>
<!-- Node8 -->
<g id="Node000008" class="node">
<title>Node8</title>
<g id="a_Node000008"><a xlink:title=" ">
<polygon fill="#e0e0e0" stroke="#999999" points="485.38,-19.25 445.38,-19.25 445.38,0 485.38,0 485.38,-19.25"/>
<text text-anchor="middle" x="465.38" y="-5.75" font-family="Helvetica,sans-Serif" font-size="10.00">string</text>
</a>
</g>
</g>
<!-- Node7&#45;&gt;Node8 -->
<g id="edge7_Node000007_Node000008" class="edge">
<title>Node7&#45;&gt;Node8</title>
<g id="a_edge7_Node000007_Node000008"><a xlink:title=" ">
<path fill="none" stroke="#63b8ff" d="M474.05,-110.04C502.04,-101.3 539.73,-87.52 548.38,-74.5 564.79,-49.79 526.56,-30.63 496.68,-19.98"/>
<polygon fill="#63b8ff" stroke="#63b8ff" points="497.8,-16.67 487.21,-16.81 495.57,-23.3 497.8,-16.67"/>
</a>
</g>
</g>
<!-- Node9&#45;&gt;Node5 -->
<g id="edge9_Node000009_Node000005" class="edge">
<title>Node9&#45;&gt;Node5</title>
<g id="a_edge9_Node000009_Node000005"><a xlink:title=" ">
<path fill="none" stroke="#63b8ff" d="M84.63,-54.84C72.65,-46.96 55,-35.36 40.79,-26.02"/>
<polygon fill="#63b8ff" stroke="#63b8ff" points="42.73,-23.1 32.45,-20.53 38.88,-28.95 42.73,-23.1"/>
</a>
</g>
</g>
<!-- Node9&#45;&gt;Node6 -->
<g id="edge11_Node000009_Node000006" class="edge">
<title>Node9&#45;&gt;Node6</title>
<g id="a_edge11_Node000009_Node000006"><a xlink:title=" ">
<path fill="none" stroke="#63b8ff" d="M98.38,-55.08C98.38,-48.57 98.38,-39.42 98.38,-31.12"/>
<polygon fill="#63b8ff" stroke="#63b8ff" points="101.88,-31.12 98.38,-21.12 94.88,-31.12 101.88,-31.12"/>
</a>
</g>
</g>
<!-- Node9&#45;&gt;Node8 -->
<g id="edge10_Node000009_Node000008" class="edge">
<title>Node9&#45;&gt;Node8</title>
<g id="a_edge10_Node000009_Node000008"><a xlink:title=" ">
<path fill="none" stroke="#63b8ff" d="M137.39,-56.73C140.43,-56.22 143.45,-55.72 146.38,-55.25 251.55,-38.45 376.79,-21.95 434.03,-14.6"/>
<polygon fill="#63b8ff" stroke="#63b8ff" points="434.2,-18.11 443.68,-13.37 433.32,-11.16 434.2,-18.11"/>
</a>
</g>
</g>
<!-- Node10&#45;&gt;Node6 -->
<g id="edge18_Node000010_Node000006" class="edge">
<title>Node10&#45;&gt;Node6</title>
<g id="a_edge18_Node000010_Node000006"><a xlink:title=" ">
<path fill="none" stroke="#63b8ff" d="M372.17,-110.14C393.35,-97.68 425.08,-74.53 408.38,-55.25 372.79,-14.18 203.8,-10.04 131.41,-10.2"/>
<polygon fill="#63b8ff" stroke="#63b8ff" points="131.76,-6.7 121.78,-10.25 131.79,-13.69 131.76,-6.7"/>
</a>
</g>
</g>
<!-- Node10&#45;&gt;Node8 -->
<g id="edge17_Node000010_Node000008" class="edge">
<title>Node10&#45;&gt;Node8</title>
<g id="a_edge17_Node000010_Node000008"><a xlink:title=" ">
<path fill="none" stroke="#63b8ff" d="M384.75,-110.02C403.21,-102.97 426.3,-91.49 441.38,-74.5 452.33,-62.15 458.47,-44.32 461.79,-30.64"/>
<polygon fill="#63b8ff" stroke="#63b8ff" points="465.19,-31.49 463.8,-20.99 458.33,-30.07 465.19,-31.49"/>
</a>
</g>
</g>
<!-- Node10&#45;&gt;Node9 -->
<g id="edge20_Node000010_Node000009" class="edge">
<title>Node10&#45;&gt;Node9</title>
<g id="a_edge20_Node000010_Node000009"><a xlink:title=" ">
<path fill="none" stroke="#63b8ff" d="M320.71,-111.94C276.39,-102.76 199.3,-86.79 148.56,-76.27"/>
<polygon fill="#63b8ff" stroke="#63b8ff" points="149.51,-72.89 139,-74.29 148.09,-79.75 149.51,-72.89"/>
</a>
</g>
</g>
<!-- Node11 -->
<g id="Node000011" class="node">
<title>Node11</title>
<g id="a_Node000011"><a xlink:title=" ">
<polygon fill="#e0e0e0" stroke="#999999" points="539,-74.5 493.75,-74.5 493.75,-55.25 539,-55.25 539,-74.5"/>
<text text-anchor="middle" x="516.38" y="-61" font-family="Helvetica,sans-Serif" font-size="10.00">math.h</text>
</a>
</g>
</g>
<!-- Node10&#45;&gt;Node11 -->
<g id="edge13_Node000010_Node000011" class="edge">
<title>Node10&#45;&gt;Node11</title>
<g id="a_edge13_Node000010_Node000011"><a xlink:title=" ">
<path fill="none" stroke="#63b8ff" d="M382.69,-110.09C410.29,-100.96 453,-86.84 482.69,-77.02"/>
<polygon fill="#63b8ff" stroke="#63b8ff" points="483.54,-80.42 491.93,-73.96 481.34,-73.78 483.54,-80.42"/>
</a>
</g>
</g>
<!-- Node12 -->
<g id="Node000012" class="node">
<title>Node12</title>
<g id="a_Node000012"><a xlink:title=" ">
<polygon fill="#e0e0e0" stroke="#999999" points="197.5,-74.5 155.25,-74.5 155.25,-55.25 197.5,-55.25 197.5,-74.5"/>
<text text-anchor="middle" x="176.38" y="-61" font-family="Helvetica,sans-Serif" font-size="10.00">cstdio</text>
</a>
</g>
</g>
<!-- Node10&#45;&gt;Node12 -->
<g id="edge14_Node000010_Node000012" class="edge">
<title>Node10&#45;&gt;Node12</title>
<g id="a_edge14_Node000010_Node000012"><a xlink:title=" ">
<path fill="none" stroke="#63b8ff" d="M325.01,-110.09C292.71,-100.48 241.81,-85.34 208.76,-75.51"/>
<polygon fill="#63b8ff" stroke="#63b8ff" points="209.91,-72.2 199.33,-72.7 207.91,-78.91 209.91,-72.2"/>
</a>
</g>
</g>
<!-- Node13 -->
<g id="Node000013" class="node">
<title>Node13</title>
<g id="a_Node000013"><a xlink:title=" ">
<polygon fill="#e0e0e0" stroke="#999999" points="649.12,-74.5 595.62,-74.5 595.62,-55.25 649.12,-55.25 649.12,-74.5"/>
<text text-anchor="middle" x="622.38" y="-61" font-family="Helvetica,sans-Serif" font-size="10.00">iostream</text>
</a>
</g>
</g>
<!-- Node10&#45;&gt;Node13 -->
<g id="edge15_Node000010_Node000013" class="edge">
<title>Node10&#45;&gt;Node13</title>
<g id="a_edge15_Node000010_Node000013"><a xlink:title=" ">
<path fill="none" stroke="#63b8ff" d="M390.11,-112.15C392.9,-111.59 395.69,-111.04 398.38,-110.5 463.52,-97.48 539.33,-82.39 583.95,-73.51"/>
<polygon fill="#63b8ff" stroke="#63b8ff" points="584.52,-76.97 593.65,-71.59 583.16,-70.1 584.52,-76.97"/>
</a>
</g>
</g>
<!-- Node14 -->
<g id="Node000014" class="node">
<title>Node14</title>
<g id="a_Node000014"><a xlink:title=" ">
<polygon fill="#e0e0e0" stroke="#999999" points="265.62,-74.5 215.12,-74.5 215.12,-55.25 265.62,-55.25 265.62,-74.5"/>
<text text-anchor="middle" x="240.38" y="-61" font-family="Helvetica,sans-Serif" font-size="10.00">numeric</text>
</a>
</g>
</g>
<!-- Node10&#45;&gt;Node14 -->
<g id="edge16_Node000010_Node000014" class="edge">
<title>Node10&#45;&gt;Node14</title>
<g id="a_edge16_Node000010_Node000014"><a xlink:title=" ">
<path fill="none" stroke="#63b8ff" d="M335.87,-110.09C317.86,-101.75 290.85,-89.25 270.15,-79.66"/>
<polygon fill="#63b8ff" stroke="#63b8ff" points="271.9,-76.61 261.35,-75.59 268.96,-82.97 271.9,-76.61"/>
</a>
</g>
</g>
<!-- Node15 -->
<g id="Node000015" class="node">
<title>Node15</title>
<g id="a_Node000015"><a xlink:title=" ">
<polygon fill="#e0e0e0" stroke="#999999" points="398.88,-74.5 283.88,-74.5 283.88,-55.25 398.88,-55.25 398.88,-74.5"/>
<text text-anchor="middle" x="341.38" y="-61" font-family="Helvetica,sans-Serif" font-size="10.00">../ThirdParty/exprtk.hpp</text>
</a>
</g>
</g>
<!-- Node10&#45;&gt;Node15 -->
<g id="edge19_Node000010_Node000015" class="edge">
<title>Node10&#45;&gt;Node15</title>
<g id="a_edge19_Node000010_Node000015"><a xlink:title=" ">
<path fill="none" stroke="#63b8ff" d="M353.06,-110.33C351.31,-103.67 348.83,-94.24 346.61,-85.78"/>
<polygon fill="#63b8ff" stroke="#63b8ff" points="350.05,-85.1 344.12,-76.32 343.28,-86.88 350.05,-85.1"/>
</a>
</g>
</g>
<!-- Node16&#45;&gt;Node13 -->
<g id="edge24_Node000016_Node000013" class="edge">
<title>Node16&#45;&gt;Node13</title>
<g id="a_edge24_Node000016_Node000013"><a xlink:title=" ">
<path fill="none" stroke="#63b8ff" d="M682.99,-110.09C672.23,-102.24 656.4,-90.7 643.62,-81.37"/>
<polygon fill="#63b8ff" stroke="#63b8ff" points="645.94,-78.73 635.8,-75.67 641.81,-84.39 645.94,-78.73"/>
</a>
</g>
</g>
<!-- Node17 -->
<g id="Node000017" class="node">
<title>Node17</title>
<g id="a_Node000017"><a xlink:title=" ">
<polygon fill="#e0e0e0" stroke="#999999" points="914.25,-74.5 840.5,-74.5 840.5,-55.25 914.25,-55.25 914.25,-74.5"/>
<text text-anchor="middle" x="877.38" y="-61" font-family="Helvetica,sans-Serif" font-size="10.00">Eigen/Sparse</text>
</a>
</g>
</g>
<!-- Node16&#45;&gt;Node17 -->
<g id="edge22_Node000016_Node000017" class="edge">
<title>Node16&#45;&gt;Node17</title>
<g id="a_edge22_Node000016_Node000017"><a xlink:title=" ">
<path fill="none" stroke="#63b8ff" d="M726.25,-110.09C756.32,-101.29 802.24,-87.86 835.57,-78.11"/>
<polygon fill="#63b8ff" stroke="#63b8ff" points="836.28,-81.54 844.9,-75.38 834.32,-74.83 836.28,-81.54"/>
</a>
</g>
</g>
<!-- Node18 -->
<g id="Node000018" class="node">
<title>Node18</title>
<g id="a_Node000018"><a xlink:title=" ">
<polygon fill="#e0e0e0" stroke="#999999" points="754,-74.5 666.75,-74.5 666.75,-55.25 754,-55.25 754,-74.5"/>
<text text-anchor="middle" x="710.38" y="-61" font-family="Helvetica,sans-Serif" font-size="10.00">Eigen/SparseLU</text>
</a>
</g>
</g>
<!-- Node16&#45;&gt;Node18 -->
<g id="edge23_Node000016_Node000018" class="edge">
<title>Node16&#45;&gt;Node18</title>
<g id="a_edge23_Node000016_Node000018"><a xlink:title=" ">
<path fill="none" stroke="#63b8ff" d="M697.85,-110.33C699.73,-103.67 702.38,-94.24 704.77,-85.78"/>
<polygon fill="#63b8ff" stroke="#63b8ff" points="708.09,-86.89 707.43,-76.32 701.35,-84.99 708.09,-86.89"/>
</a>
</g>
</g>
<!-- Node19 -->
<g id="Node000019" class="node">
<title>Node19</title>
<g id="a_Node000019"><a xlink:title=" ">
<polygon fill="#e0e0e0" stroke="#999999" points="822.62,-74.5 772.12,-74.5 772.12,-55.25 822.62,-55.25 822.62,-74.5"/>
<text text-anchor="middle" x="797.38" y="-61" font-family="Helvetica,sans-Serif" font-size="10.00">memory</text>
</a>
</g>
</g>
<!-- Node16&#45;&gt;Node19 -->
<g id="edge25_Node000016_Node000019" class="edge">
<title>Node16&#45;&gt;Node19</title>
<g id="a_edge25_Node000016_Node000019"><a xlink:title=" ">
<path fill="none" stroke="#63b8ff" d="M712.68,-110.09C728.36,-101.91 751.73,-89.71 769.95,-80.19"/>
<polygon fill="#63b8ff" stroke="#63b8ff" points="771.4,-83.38 778.65,-75.65 768.16,-77.18 771.4,-83.38"/>
</a>
</g>
</g>
</g>
</svg>
