<?xml version="1.0" encoding="UTF-8" standalone="no"?>
<!DOCTYPE svg PUBLIC "-//W3C//DTD SVG 1.1//EN"
 "http://www.w3.org/Graphics/SVG/1.1/DTD/svg11.dtd">
<!-- Generated by graphviz version 11.0.0 (20240428.1522)
 -->
<!-- Title: model/ClosedLoopCoronaryLeftBC.h Pages: 1 -->
<svg width="922pt" height="370pt"
 viewBox="0.00 0.00 922.25 370.00" xmlns="http://www.w3.org/2000/svg" xmlns:xlink="http://www.w3.org/1999/xlink">
<g id="graph0" class="graph" transform="scale(1 1) rotate(0) translate(4 366)">
<title>model/ClosedLoopCoronaryLeftBC.h</title>
<!-- Node1 -->
<g id="Node000001" class="node">
<title>Node1</title>
<g id="a_Node000001"><a xlink:title="Left side of ClosedLoopCoronaryBC.">
<polygon fill="#999999" stroke="#666666" points="630,-362 494.75,-362 494.75,-331.5 630,-331.5 630,-362"/>
<text text-anchor="start" x="502.75" y="-348.5" font-family="Helvetica,sans-Serif" font-size="10.00">model/ClosedLoopCoronary</text>
<text text-anchor="middle" x="562.38" y="-337.25" font-family="Helvetica,sans-Serif" font-size="10.00">LeftBC.h</text>
</a>
</g>
</g>
<!-- Node2 -->
<g id="Node000002" class="node">
<title>Node2</title>
<g id="a_Node000002"><a xlink:href="_closed_loop_coronary_b_c_8h.html" target="_top" xlink:title="model::ClosedLoopCoronaryBC source file">
<polygon fill="white" stroke="#666666" points="625.88,-295.5 498.88,-295.5 498.88,-276.25 625.88,-276.25 625.88,-295.5"/>
<text text-anchor="middle" x="562.38" y="-282" font-family="Helvetica,sans-Serif" font-size="10.00">ClosedLoopCoronaryBC.h</text>
</a>
</g>
</g>
<!-- Node1&#45;&gt;Node2 -->
<g id="edge1_Node000001_Node000002" class="edge">
<title>Node1&#45;&gt;Node2</title>
<g id="a_edge1_Node000001_Node000002"><a xlink:title=" ">
<path fill="none" stroke="#63b8ff" d="M562.38,-331.2C562.38,-323.96 562.38,-315.09 562.38,-307.19"/>
<polygon fill="#63b8ff" stroke="#63b8ff" points="565.88,-307.46 562.38,-297.46 558.88,-307.46 565.88,-307.46"/>
</a>
</g>
</g>
<!-- Node3 -->
<g id="Node000003" class="node">
<title>Node3</title>
<g id="a_Node000003"><a xlink:href="_block_8h.html" target="_top" xlink:title="model::Block source file">
<polygon fill="white" stroke="#666666" points="516.5,-185 468.25,-185 468.25,-165.75 516.5,-165.75 516.5,-185"/>
<text text-anchor="middle" x="492.38" y="-171.5" font-family="Helvetica,sans-Serif" font-size="10.00">Block.h</text>
</a>
</g>
</g>
<!-- Node2&#45;&gt;Node3 -->
<g id="edge2_Node000002_Node000003" class="edge">
<title>Node2&#45;&gt;Node3</title>
<g id="a_edge2_Node000002_Node000003"><a xlink:title=" ">
<path fill="none" stroke="#63b8ff" d="M556.65,-276C545.26,-258.35 519.59,-218.55 504.36,-194.95"/>
<polygon fill="#63b8ff" stroke="#63b8ff" points="507.37,-193.15 499,-186.65 501.48,-196.95 507.37,-193.15"/>
</a>
</g>
</g>
<!-- Node17 -->
<g id="Node000017" class="node">
<title>Node17</title>
<g id="a_Node000017"><a xlink:href="_sparse_system_8h.html" target="_top" xlink:title="SparseSystem source file.">
<polygon fill="white" stroke="#666666" points="725,-129.75 637.75,-129.75 637.75,-110.5 725,-110.5 725,-129.75"/>
<text text-anchor="middle" x="681.38" y="-116.25" font-family="Helvetica,sans-Serif" font-size="10.00">SparseSystem.h</text>
</a>
</g>
</g>
<!-- Node2&#45;&gt;Node17 -->
<g id="edge31_Node000002_Node000017" class="edge">
<title>Node2&#45;&gt;Node17</title>
<g id="a_edge31_Node000002_Node000017"><a xlink:title=" ">
<path fill="none" stroke="#63b8ff" d="M563.76,-276.07C566.08,-263.22 571.58,-238.92 582.38,-221 603.01,-186.75 637.76,-155.45 660.12,-137.34"/>
<polygon fill="#63b8ff" stroke="#63b8ff" points="662.28,-140.09 667.96,-131.14 657.94,-134.6 662.28,-140.09"/>
</a>
</g>
</g>
<!-- Node21 -->
<g id="Node000021" class="node">
<title>Node21</title>
<g id="a_Node000021"><a xlink:href="_closed_loop_heart_pulmonary_8h.html" target="_top" xlink:title="model::ClosedLoopHeartPulmonary source file">
<polygon fill="white" stroke="#666666" points="735.88,-240.25 590.88,-240.25 590.88,-221 735.88,-221 735.88,-240.25"/>
<text text-anchor="middle" x="663.38" y="-226.75" font-family="Helvetica,sans-Serif" font-size="10.00">ClosedLoopHeartPulmonary.h</text>
</a>
</g>
</g>
<!-- Node2&#45;&gt;Node21 -->
<g id="edge27_Node000002_Node000021" class="edge">
<title>Node2&#45;&gt;Node21</title>
<g id="a_edge27_Node000002_Node000021"><a xlink:title=" ">
<path fill="none" stroke="#63b8ff" d="M579.51,-275.84C595.03,-267.66 618.18,-255.46 636.22,-245.94"/>
<polygon fill="#63b8ff" stroke="#63b8ff" points="637.61,-249.17 644.82,-241.41 634.34,-242.98 637.61,-249.17"/>
</a>
</g>
</g>
<!-- Node4 -->
<g id="Node000004" class="node">
<title>Node4</title>
<g id="a_Node000004"><a xlink:title=" ">
<polygon fill="#e0e0e0" stroke="#999999" points="573,-129.75 509.75,-129.75 509.75,-110.5 573,-110.5 573,-129.75"/>
<text text-anchor="middle" x="541.38" y="-116.25" font-family="Helvetica,sans-Serif" font-size="10.00">Eigen/Core</text>
</a>
</g>
</g>
<!-- Node3&#45;&gt;Node4 -->
<g id="edge3_Node000003_Node000004" class="edge">
<title>Node3&#45;&gt;Node4</title>
<g id="a_edge3_Node000003_Node000004"><a xlink:title=" ">
<path fill="none" stroke="#63b8ff" d="M500.47,-165.58C507.23,-158.23 517.1,-147.51 525.44,-138.44"/>
<polygon fill="#63b8ff" stroke="#63b8ff" points="527.89,-140.95 532.08,-131.22 522.74,-136.21 527.89,-140.95"/>
</a>
</g>
</g>
<!-- Node5 -->
<g id="Node000005" class="node">
<title>Node5</title>
<g id="a_Node000005"><a xlink:title=" ">
<polygon fill="#e0e0e0" stroke="#999999" points="619.77,-129.75 590.98,-129.75 590.98,-110.5 619.77,-110.5 619.77,-129.75"/>
<text text-anchor="middle" x="605.38" y="-116.25" font-family="Helvetica,sans-Serif" font-size="10.00">list</text>
</a>
</g>
</g>
<!-- Node3&#45;&gt;Node5 -->
<g id="edge4_Node000003_Node000005" class="edge">
<title>Node3&#45;&gt;Node5</title>
<g id="a_edge4_Node000003_Node000005"><a xlink:title=" ">
<path fill="none" stroke="#63b8ff" d="M511.54,-165.34C530.55,-156.39 559.74,-142.63 580.52,-132.84"/>
<polygon fill="#63b8ff" stroke="#63b8ff" points="581.87,-136.07 589.42,-128.64 578.89,-129.74 581.87,-136.07"/>
</a>
</g>
</g>
<!-- Node6 -->
<g id="Node000006" class="node">
<title>Node6</title>
<g id="a_Node000006"><a xlink:title=" ">
<polygon fill="#e0e0e0" stroke="#999999" points="34.75,-19.25 0,-19.25 0,0 34.75,0 34.75,-19.25"/>
<text text-anchor="middle" x="17.38" y="-5.75" font-family="Helvetica,sans-Serif" font-size="10.00">map</text>
</a>
</g>
</g>
<!-- Node3&#45;&gt;Node6 -->
<g id="edge5_Node000003_Node000006" class="edge">
<title>Node3&#45;&gt;Node6</title>
<g id="a_edge5_Node000003_Node000006"><a xlink:title=" ">
<path fill="none" stroke="#63b8ff" d="M467.87,-173.52C392.99,-170.62 168.27,-159.57 102.38,-129.75 69.05,-114.67 61.94,-104.75 41.38,-74.5 32.2,-61 25.94,-43.52 22.13,-30.26"/>
<polygon fill="#63b8ff" stroke="#63b8ff" points="25.61,-29.75 19.68,-20.97 18.84,-31.53 25.61,-29.75"/>
</a>
</g>
</g>
<!-- Node7 -->
<g id="Node000007" class="node">
<title>Node7</title>
<g id="a_Node000007"><a xlink:title=" ">
<polygon fill="#e0e0e0" stroke="#999999" points="119.88,-19.25 76.88,-19.25 76.88,0 119.88,0 119.88,-19.25"/>
<text text-anchor="middle" x="98.38" y="-5.75" font-family="Helvetica,sans-Serif" font-size="10.00">vector</text>
</a>
</g>
</g>
<!-- Node3&#45;&gt;Node7 -->
<g id="edge6_Node000003_Node000007" class="edge">
<title>Node3&#45;&gt;Node7</title>
<g id="a_edge6_Node000003_Node000007"><a xlink:title=" ">
<path fill="none" stroke="#63b8ff" d="M468.04,-172.83C383.1,-166.87 102.14,-142.24 50.38,-74.5 37.8,-58.04 56.23,-39.05 73.77,-26.08"/>
<polygon fill="#63b8ff" stroke="#63b8ff" points="75.74,-28.97 81.98,-20.41 71.76,-23.21 75.74,-28.97"/>
</a>
</g>
</g>
<!-- Node8 -->
<g id="Node000008" class="node">
<title>Node8</title>
<g id="a_Node000008"><a xlink:href="_block_type_8h.html" target="_top" xlink:title="Specifies the types of blocks and their parameters.">
<polygon fill="white" stroke="#666666" points="492,-129.75 422.75,-129.75 422.75,-110.5 492,-110.5 492,-129.75"/>
<text text-anchor="middle" x="457.38" y="-116.25" font-family="Helvetica,sans-Serif" font-size="10.00">BlockType.h</text>
</a>
</g>
</g>
<!-- Node3&#45;&gt;Node8 -->
<g id="edge7_Node000003_Node000008" class="edge">
<title>Node3&#45;&gt;Node8</title>
<g id="a_edge7_Node000003_Node000008"><a xlink:title=" ">
<path fill="none" stroke="#63b8ff" d="M486.6,-165.58C481.96,-158.53 475.3,-148.4 469.51,-139.58"/>
<polygon fill="#63b8ff" stroke="#63b8ff" points="472.53,-137.81 464.11,-131.37 466.68,-141.65 472.53,-137.81"/>
</a>
</g>
</g>
<!-- Node10 -->
<g id="Node000010" class="node">
<title>Node10</title>
<g id="a_Node000010"><a xlink:href="_d_o_f_handler_8h.html" target="_top" xlink:title="model::DOFHandler source file">
<polygon fill="white" stroke="#666666" points="137.12,-74.5 59.62,-74.5 59.62,-55.25 137.12,-55.25 137.12,-74.5"/>
<text text-anchor="middle" x="98.38" y="-61" font-family="Helvetica,sans-Serif" font-size="10.00">DOFHandler.h</text>
</a>
</g>
</g>
<!-- Node3&#45;&gt;Node10 -->
<g id="edge9_Node000003_Node000010" class="edge">
<title>Node3&#45;&gt;Node10</title>
<g id="a_edge9_Node000003_Node000010"><a xlink:title=" ">
<path fill="none" stroke="#63b8ff" d="M467.76,-167.78C435.5,-159.13 377.17,-143.43 327.38,-129.75 262.62,-111.96 187.67,-90.98 141.64,-78.05"/>
<polygon fill="#63b8ff" stroke="#63b8ff" points="142.62,-74.69 132.05,-75.36 140.73,-81.43 142.62,-74.69"/>
</a>
</g>
</g>
<!-- Node11 -->
<g id="Node000011" class="node">
<title>Node11</title>
<g id="a_Node000011"><a xlink:href="_parameter_8h.html" target="_top" xlink:title="model::Parameter source file">
<polygon fill="white" stroke="#666666" points="404.62,-129.75 336.12,-129.75 336.12,-110.5 404.62,-110.5 404.62,-129.75"/>
<text text-anchor="middle" x="370.38" y="-116.25" font-family="Helvetica,sans-Serif" font-size="10.00">Parameter.h</text>
</a>
</g>
</g>
<!-- Node3&#45;&gt;Node11 -->
<g id="edge13_Node000003_Node000011" class="edge">
<title>Node3&#45;&gt;Node11</title>
<g id="a_edge13_Node000003_Node000011"><a xlink:title=" ">
<path fill="none" stroke="#63b8ff" d="M471.68,-165.34C452.49,-156.97 423.66,-144.38 401.66,-134.78"/>
<polygon fill="#63b8ff" stroke="#63b8ff" points="403.12,-131.6 392.56,-130.81 400.32,-138.02 403.12,-131.6"/>
</a>
</g>
</g>
<!-- Node3&#45;&gt;Node17 -->
<g id="edge22_Node000003_Node000017" class="edge">
<title>Node3&#45;&gt;Node17</title>
<g id="a_edge22_Node000003_Node000017"><a xlink:title=" ">
<path fill="none" stroke="#63b8ff" d="M516.7,-167.52C547.46,-158.86 600.95,-143.78 638.6,-133.18"/>
<polygon fill="#63b8ff" stroke="#63b8ff" points="639.12,-136.67 647.8,-130.59 637.22,-129.93 639.12,-136.67"/>
</a>
</g>
</g>
<!-- Node9 -->
<g id="Node000009" class="node">
<title>Node9</title>
<g id="a_Node000009"><a xlink:title=" ">
<polygon fill="#e0e0e0" stroke="#999999" points="485.38,-19.25 445.38,-19.25 445.38,0 485.38,0 485.38,-19.25"/>
<text text-anchor="middle" x="465.38" y="-5.75" font-family="Helvetica,sans-Serif" font-size="10.00">string</text>
</a>
</g>
</g>
<!-- Node8&#45;&gt;Node9 -->
<g id="edge8_Node000008_Node000009" class="edge">
<title>Node8&#45;&gt;Node9</title>
<g id="a_edge8_Node000008_Node000009"><a xlink:title=" ">
<path fill="none" stroke="#63b8ff" d="M492.09,-111.73C512.28,-105.46 536.09,-94.21 548.38,-74.5 564.07,-49.32 526.04,-30.29 496.4,-19.8"/>
<polygon fill="#63b8ff" stroke="#63b8ff" points="497.61,-16.51 487.01,-16.68 495.4,-23.16 497.61,-16.51"/>
</a>
</g>
</g>
<!-- Node10&#45;&gt;Node6 -->
<g id="edge10_Node000010_Node000006" class="edge">
<title>Node10&#45;&gt;Node6</title>
<g id="a_edge10_Node000010_Node000006"><a xlink:title=" ">
<path fill="none" stroke="#63b8ff" d="M84.63,-54.84C72.65,-46.96 55,-35.36 40.79,-26.02"/>
<polygon fill="#63b8ff" stroke="#63b8ff" points="42.73,-23.1 32.45,-20.53 38.88,-28.95 42.73,-23.1"/>
</a>
</g>
</g>
<!-- Node10&#45;&gt;Node7 -->
<g id="edge12_Node000010_Node000007" class="edge">
<title>Node10&#45;&gt;Node7</title>
<g id="a_edge12_Node000010_Node000007"><a xlink:title=" ">
<path fill="none" stroke="#63b8ff" d="M98.38,-55.08C98.38,-48.57 98.38,-39.42 98.38,-31.12"/>
<polygon fill="#63b8ff" stroke="#63b8ff" points="101.88,-31.12 98.38,-21.12 94.88,-31.12 101.88,-31.12"/>
</a>
</g>
</g>
<!-- Node10&#45;&gt;Node9 -->
<g id="edge11_Node000010_Node000009" class="edge">
<title>Node10&#45;&gt;Node9</title>
<g id="a_edge11_Node000010_Node000009"><a xlink:title=" ">
<path fill="none" stroke="#63b8ff" d="M137.39,-56.73C140.43,-56.22 143.45,-55.72 146.38,-55.25 251.55,-38.45 376.79,-21.95 434.03,-14.6"/>
<polygon fill="#63b8ff" stroke="#63b8ff" points="434.2,-18.11 443.68,-13.37 433.32,-11.16 434.2,-18.11"/>
</a>
</g>
</g>
<!-- Node11&#45;&gt;Node7 -->
<g id="edge19_Node000011_Node000007" class="edge">
<title>Node11&#45;&gt;Node7</title>
<g id="a_edge19_Node000011_Node000007"><a xlink:title=" ">
<path fill="none" stroke="#63b8ff" d="M382.73,-110C398.89,-96.98 423.5,-72.71 408.38,-55.25 372.79,-14.18 203.8,-10.04 131.41,-10.2"/>
<polygon fill="#63b8ff" stroke="#63b8ff" points="131.76,-6.7 121.78,-10.25 131.79,-13.69 131.76,-6.7"/>
</a>
</g>
</g>
<!-- Node11&#45;&gt;Node9 -->
<g id="edge18_Node000011_Node000009" class="edge">
<title>Node11&#45;&gt;Node9</title>
<g id="a_edge18_Node000011_Node000009"><a xlink:title=" ">
<path fill="none" stroke="#63b8ff" d="M391.97,-110.14C407.6,-102.66 428.21,-90.63 441.38,-74.5 451.81,-61.71 458,-43.92 461.47,-30.36"/>
<polygon fill="#63b8ff" stroke="#63b8ff" points="464.83,-31.36 463.6,-20.84 458,-29.83 464.83,-31.36"/>
</a>
</g>
</g>
<!-- Node11&#45;&gt;Node10 -->
<g id="edge21_Node000011_Node000010" class="edge">
<title>Node11&#45;&gt;Node10</title>
<g id="a_edge21_Node000011_Node000010"><a xlink:title=" ">
<path fill="none" stroke="#63b8ff" d="M335.65,-112.33C288.18,-103.03 202.75,-86.31 148.39,-75.67"/>
<polygon fill="#63b8ff" stroke="#63b8ff" points="149.25,-72.27 138.77,-73.78 147.91,-79.14 149.25,-72.27"/>
</a>
</g>
</g>
<!-- Node12 -->
<g id="Node000012" class="node">
<title>Node12</title>
<g id="a_Node000012"><a xlink:title=" ">
<polygon fill="#e0e0e0" stroke="#999999" points="539,-74.5 493.75,-74.5 493.75,-55.25 539,-55.25 539,-74.5"/>
<text text-anchor="middle" x="516.38" y="-61" font-family="Helvetica,sans-Serif" font-size="10.00">math.h</text>
</a>
</g>
</g>
<!-- Node11&#45;&gt;Node12 -->
<g id="edge14_Node000011_Node000012" class="edge">
<title>Node11&#45;&gt;Node12</title>
<g id="a_edge14_Node000011_Node000012"><a xlink:title=" ">
<path fill="none" stroke="#63b8ff" d="M395.14,-110.09C419.2,-101.32 455.92,-87.93 482.64,-78.18"/>
<polygon fill="#63b8ff" stroke="#63b8ff" points="483.8,-81.48 491.99,-74.77 481.4,-74.91 483.8,-81.48"/>
</a>
</g>
</g>
<!-- Node13 -->
<g id="Node000013" class="node">
<title>Node13</title>
<g id="a_Node000013"><a xlink:title=" ">
<polygon fill="#e0e0e0" stroke="#999999" points="197.5,-74.5 155.25,-74.5 155.25,-55.25 197.5,-55.25 197.5,-74.5"/>
<text text-anchor="middle" x="176.38" y="-61" font-family="Helvetica,sans-Serif" font-size="10.00">cstdio</text>
</a>
</g>
</g>
<!-- Node11&#45;&gt;Node13 -->
<g id="edge15_Node000011_Node000013" class="edge">
<title>Node11&#45;&gt;Node13</title>
<g id="a_edge15_Node000011_Node000013"><a xlink:title=" ">
<path fill="none" stroke="#63b8ff" d="M336.41,-110.04C305.49,-101.73 258.29,-88.96 208.9,-75.18"/>
<polygon fill="#63b8ff" stroke="#63b8ff" points="210.03,-71.86 199.45,-72.54 208.14,-78.6 210.03,-71.86"/>
</a>
</g>
</g>
<!-- Node14 -->
<g id="Node000014" class="node">
<title>Node14</title>
<g id="a_Node000014"><a xlink:title=" ">
<polygon fill="#e0e0e0" stroke="#999999" points="649.12,-74.5 595.62,-74.5 595.62,-55.25 649.12,-55.25 649.12,-74.5"/>
<text text-anchor="middle" x="622.38" y="-61" font-family="Helvetica,sans-Serif" font-size="10.00">iostream</text>
</a>
</g>
</g>
<!-- Node11&#45;&gt;Node14 -->
<g id="edge16_Node000011_Node000014" class="edge">
<title>Node11&#45;&gt;Node14</title>
<g id="a_edge16_Node000011_Node000014"><a xlink:title=" ">
<path fill="none" stroke="#63b8ff" d="M404.89,-111.83C451.81,-101.92 535.46,-84.24 584.21,-73.94"/>
<polygon fill="#63b8ff" stroke="#63b8ff" points="584.68,-77.42 593.74,-71.93 583.23,-70.57 584.68,-77.42"/>
</a>
</g>
</g>
<!-- Node15 -->
<g id="Node000015" class="node">
<title>Node15</title>
<g id="a_Node000015"><a xlink:title=" ">
<polygon fill="#e0e0e0" stroke="#999999" points="265.62,-74.5 215.12,-74.5 215.12,-55.25 265.62,-55.25 265.62,-74.5"/>
<text text-anchor="middle" x="240.38" y="-61" font-family="Helvetica,sans-Serif" font-size="10.00">numeric</text>
</a>
</g>
</g>
<!-- Node11&#45;&gt;Node15 -->
<g id="edge17_Node000011_Node000015" class="edge">
<title>Node11&#45;&gt;Node15</title>
<g id="a_edge17_Node000011_Node000015"><a xlink:title=" ">
<path fill="none" stroke="#63b8ff" d="M348.32,-110.09C327.69,-101.64 296.59,-88.9 273.07,-79.27"/>
<polygon fill="#63b8ff" stroke="#63b8ff" points="274.52,-76.08 263.94,-75.53 271.86,-82.56 274.52,-76.08"/>
</a>
</g>
</g>
<!-- Node16 -->
<g id="Node000016" class="node">
<title>Node16</title>
<g id="a_Node000016"><a xlink:title=" ">
<polygon fill="#e0e0e0" stroke="#999999" points="398.88,-74.5 283.88,-74.5 283.88,-55.25 398.88,-55.25 398.88,-74.5"/>
<text text-anchor="middle" x="341.38" y="-61" font-family="Helvetica,sans-Serif" font-size="10.00">../ThirdParty/exprtk.hpp</text>
</a>
</g>
</g>
<!-- Node11&#45;&gt;Node16 -->
<g id="edge20_Node000011_Node000016" class="edge">
<title>Node11&#45;&gt;Node16</title>
<g id="a_edge20_Node000011_Node000016"><a xlink:title=" ">
<path fill="none" stroke="#63b8ff" d="M365.59,-110.33C361.83,-103.44 356.47,-93.59 351.74,-84.91"/>
<polygon fill="#63b8ff" stroke="#63b8ff" points="354.85,-83.3 346.99,-76.19 348.7,-86.64 354.85,-83.3"/>
</a>
</g>
</g>
<!-- Node17&#45;&gt;Node14 -->
<g id="edge25_Node000017_Node000014" class="edge">
<title>Node17&#45;&gt;Node14</title>
<g id="a_edge25_Node000017_Node000014"><a xlink:title=" ">
<path fill="none" stroke="#63b8ff" d="M671.37,-110.09C663.01,-102.55 650.88,-91.6 640.77,-82.48"/>
<polygon fill="#63b8ff" stroke="#63b8ff" points="643.13,-79.89 633.36,-75.79 638.44,-85.09 643.13,-79.89"/>
</a>
</g>
</g>
<!-- Node18 -->
<g id="Node000018" class="node">
<title>Node18</title>
<g id="a_Node000018"><a xlink:title=" ">
<polygon fill="#e0e0e0" stroke="#999999" points="914.25,-74.5 840.5,-74.5 840.5,-55.25 914.25,-55.25 914.25,-74.5"/>
<text text-anchor="middle" x="877.38" y="-61" font-family="Helvetica,sans-Serif" font-size="10.00">Eigen/Sparse</text>
</a>
</g>
</g>
<!-- Node17&#45;&gt;Node18 -->
<g id="edge23_Node000017_Node000018" class="edge">
<title>Node17&#45;&gt;Node18</title>
<g id="a_edge23_Node000017_Node000018"><a xlink:title=" ">
<path fill="none" stroke="#63b8ff" d="M714.62,-110.09C747.29,-101.22 797.32,-87.62 833.29,-77.85"/>
<polygon fill="#63b8ff" stroke="#63b8ff" points="833.77,-81.35 842.5,-75.35 831.93,-74.59 833.77,-81.35"/>
</a>
</g>
</g>
<!-- Node19 -->
<g id="Node000019" class="node">
<title>Node19</title>
<g id="a_Node000019"><a xlink:title=" ">
<polygon fill="#e0e0e0" stroke="#999999" points="754,-74.5 666.75,-74.5 666.75,-55.25 754,-55.25 754,-74.5"/>
<text text-anchor="middle" x="710.38" y="-61" font-family="Helvetica,sans-Serif" font-size="10.00">Eigen/SparseLU</text>
</a>
</g>
</g>
<!-- Node17&#45;&gt;Node19 -->
<g id="edge24_Node000017_Node000019" class="edge">
<title>Node17&#45;&gt;Node19</title>
<g id="a_edge24_Node000017_Node000019"><a xlink:title=" ">
<path fill="none" stroke="#63b8ff" d="M686.16,-110.33C689.92,-103.44 695.28,-93.59 700.01,-84.91"/>
<polygon fill="#63b8ff" stroke="#63b8ff" points="703.05,-86.64 704.76,-76.19 696.9,-83.3 703.05,-86.64"/>
</a>
</g>
</g>
<!-- Node20 -->
<g id="Node000020" class="node">
<title>Node20</title>
<g id="a_Node000020"><a xlink:title=" ">
<polygon fill="#e0e0e0" stroke="#999999" points="822.62,-74.5 772.12,-74.5 772.12,-55.25 822.62,-55.25 822.62,-74.5"/>
<text text-anchor="middle" x="797.38" y="-61" font-family="Helvetica,sans-Serif" font-size="10.00">memory</text>
</a>
</g>
</g>
<!-- Node17&#45;&gt;Node20 -->
<g id="edge26_Node000017_Node000020" class="edge">
<title>Node17&#45;&gt;Node20</title>
<g id="a_edge26_Node000017_Node000020"><a xlink:title=" ">
<path fill="none" stroke="#63b8ff" d="M701.05,-110.09C719.22,-101.75 746.46,-89.25 767.34,-79.66"/>
<polygon fill="#63b8ff" stroke="#63b8ff" points="768.6,-82.94 776.23,-75.58 765.68,-76.58 768.6,-82.94"/>
</a>
</g>
</g>
<!-- Node21&#45;&gt;Node3 -->
<g id="edge28_Node000021_Node000003" class="edge">
<title>Node21&#45;&gt;Node3</title>
<g id="a_edge28_Node000021_Node000003"><a xlink:title=" ">
<path fill="none" stroke="#63b8ff" d="M634.37,-220.59C604.92,-211.42 559.29,-197.21 527.74,-187.39"/>
<polygon fill="#63b8ff" stroke="#63b8ff" points="528.84,-184.07 518.25,-184.43 526.76,-190.75 528.84,-184.07"/>
</a>
</g>
</g>
<!-- Node21&#45;&gt;Node17 -->
<g id="edge29_Node000021_Node000017" class="edge">
<title>Node21&#45;&gt;Node17</title>
<g id="a_edge29_Node000021_Node000017"><a xlink:title=" ">
<path fill="none" stroke="#63b8ff" d="M664.85,-220.75C667.71,-203.5 674.08,-165.08 678.03,-141.31"/>
<polygon fill="#63b8ff" stroke="#63b8ff" points="681.45,-142.06 679.63,-131.62 674.54,-140.91 681.45,-142.06"/>
</a>
</g>
</g>
<!-- Node22 -->
<g id="Node000022" class="node">
<title>Node22</title>
<g id="a_Node000022"><a xlink:title=" ">
<polygon fill="#e0e0e0" stroke="#999999" points="734.88,-185 691.88,-185 691.88,-165.75 734.88,-165.75 734.88,-185"/>
<text text-anchor="middle" x="713.38" y="-171.5" font-family="Helvetica,sans-Serif" font-size="10.00">cmath</text>
</a>
</g>
</g>
<!-- Node21&#45;&gt;Node22 -->
<g id="edge30_Node000021_Node000022" class="edge">
<title>Node21&#45;&gt;Node22</title>
<g id="a_edge30_Node000021_Node000022"><a xlink:title=" ">
<path fill="none" stroke="#63b8ff" d="M671.63,-220.83C678.54,-213.48 688.6,-202.76 697.11,-193.69"/>
<polygon fill="#63b8ff" stroke="#63b8ff" points="699.61,-196.15 703.9,-186.46 694.51,-191.36 699.61,-196.15"/>
</a>
</g>
</g>
</g>
</svg>
