<?xml version="1.0" encoding="UTF-8" standalone="no"?>
<!DOCTYPE svg PUBLIC "-//W3C//DTD SVG 1.1//EN"
 "http://www.w3.org/Graphics/SVG/1.1/DTD/svg11.dtd">
<!-- Generated by graphviz version 11.0.0 (20240428.1522)
 -->
<!-- Title: model/Parameter.h Pages: 1 -->
<svg width="559pt" height="138pt"
 viewBox="0.00 0.00 559.12 137.75" xmlns="http://www.w3.org/2000/svg" xmlns:xlink="http://www.w3.org/1999/xlink">
<g id="graph0" class="graph" transform="scale(1 1) rotate(0) translate(4 133.75)">
<title>model/Parameter.h</title>
<!-- Node1 -->
<g id="Node000001" class="node">
<title>Node1</title>
<g id="a_Node000001"><a xlink:title="model::Parameter source file">
<polygon fill="#999999" stroke="#666666" points="295.5,-129.75 197.75,-129.75 197.75,-110.5 295.5,-110.5 295.5,-129.75"/>
<text text-anchor="middle" x="246.62" y="-116.25" font-family="Helvetica,sans-Serif" font-size="10.00">model/Parameter.h</text>
</a>
</g>
</g>
<!-- Node2 -->
<g id="Node000002" class="node">
<title>Node2</title>
<g id="a_Node000002"><a xlink:title=" ">
<polygon fill="#e0e0e0" stroke="#999999" points="45.25,-74.5 0,-74.5 0,-55.25 45.25,-55.25 45.25,-74.5"/>
<text text-anchor="middle" x="22.62" y="-61" font-family="Helvetica,sans-Serif" font-size="10.00">math.h</text>
</a>
</g>
</g>
<!-- Node1&#45;&gt;Node2 -->
<g id="edge1_Node000001_Node000002" class="edge">
<title>Node1&#45;&gt;Node2</title>
<g id="a_edge1_Node000001_Node000002"><a xlink:title=" ">
<path fill="none" stroke="#63b8ff" d="M205.7,-110.05C169.12,-101.84 113.78,-89.18 56.72,-74.96"/>
<polygon fill="#63b8ff" stroke="#63b8ff" points="57.69,-71.59 47.14,-72.56 55.99,-78.38 57.69,-71.59"/>
</a>
</g>
</g>
<!-- Node3 -->
<g id="Node000003" class="node">
<title>Node3</title>
<g id="a_Node000003"><a xlink:title=" ">
<polygon fill="#e0e0e0" stroke="#999999" points="105.75,-74.5 63.5,-74.5 63.5,-55.25 105.75,-55.25 105.75,-74.5"/>
<text text-anchor="middle" x="84.62" y="-61" font-family="Helvetica,sans-Serif" font-size="10.00">cstdio</text>
</a>
</g>
</g>
<!-- Node1&#45;&gt;Node3 -->
<g id="edge2_Node000001_Node000003" class="edge">
<title>Node1&#45;&gt;Node3</title>
<g id="a_edge2_Node000001_Node000003"><a xlink:title=" ">
<path fill="none" stroke="#63b8ff" d="M219.14,-110.09C190.81,-100.78 146.65,-86.26 116.73,-76.43"/>
<polygon fill="#63b8ff" stroke="#63b8ff" points="118.05,-73.18 107.46,-73.38 115.86,-79.83 118.05,-73.18"/>
</a>
</g>
</g>
<!-- Node4 -->
<g id="Node000004" class="node">
<title>Node4</title>
<g id="a_Node000004"><a xlink:title=" ">
<polygon fill="#e0e0e0" stroke="#999999" points="177.38,-74.5 123.88,-74.5 123.88,-55.25 177.38,-55.25 177.38,-74.5"/>
<text text-anchor="middle" x="150.62" y="-61" font-family="Helvetica,sans-Serif" font-size="10.00">iostream</text>
</a>
</g>
</g>
<!-- Node1&#45;&gt;Node4 -->
<g id="edge3_Node000001_Node000004" class="edge">
<title>Node1&#45;&gt;Node4</title>
<g id="a_edge3_Node000001_Node000004"><a xlink:title=" ">
<path fill="none" stroke="#63b8ff" d="M230.34,-110.09C215.72,-101.98 194,-89.93 176.92,-80.46"/>
<polygon fill="#63b8ff" stroke="#63b8ff" points="178.76,-77.48 168.31,-75.69 175.36,-83.6 178.76,-77.48"/>
</a>
</g>
</g>
<!-- Node5 -->
<g id="Node000005" class="node">
<title>Node5</title>
<g id="a_Node000005"><a xlink:title=" ">
<polygon fill="#e0e0e0" stroke="#999999" points="245.88,-74.5 195.38,-74.5 195.38,-55.25 245.88,-55.25 245.88,-74.5"/>
<text text-anchor="middle" x="220.62" y="-61" font-family="Helvetica,sans-Serif" font-size="10.00">numeric</text>
</a>
</g>
</g>
<!-- Node1&#45;&gt;Node5 -->
<g id="edge4_Node000001_Node000005" class="edge">
<title>Node1&#45;&gt;Node5</title>
<g id="a_edge4_Node000001_Node000005"><a xlink:title=" ">
<path fill="none" stroke="#63b8ff" d="M242.33,-110.33C239,-103.51 234.26,-93.81 230.06,-85.2"/>
<polygon fill="#63b8ff" stroke="#63b8ff" points="233.21,-83.67 225.68,-76.22 226.92,-86.74 233.21,-83.67"/>
</a>
</g>
</g>
<!-- Node6 -->
<g id="Node000006" class="node">
<title>Node6</title>
<g id="a_Node000006"><a xlink:title=" ">
<polygon fill="#e0e0e0" stroke="#999999" points="299.62,-19.25 259.62,-19.25 259.62,0 299.62,0 299.62,-19.25"/>
<text text-anchor="middle" x="279.62" y="-5.75" font-family="Helvetica,sans-Serif" font-size="10.00">string</text>
</a>
</g>
</g>
<!-- Node1&#45;&gt;Node6 -->
<g id="edge5_Node000001_Node000006" class="edge">
<title>Node1&#45;&gt;Node6</title>
<g id="a_edge5_Node000001_Node000006"><a xlink:title=" ">
<path fill="none" stroke="#63b8ff" d="M249.33,-110.25C254.6,-92.92 266.36,-54.23 273.58,-30.49"/>
<polygon fill="#63b8ff" stroke="#63b8ff" points="276.89,-31.66 276.45,-21.07 270.19,-29.62 276.89,-31.66"/>
</a>
</g>
</g>
<!-- Node7 -->
<g id="Node000007" class="node">
<title>Node7</title>
<g id="a_Node000007"><a xlink:title=" ">
<polygon fill="#e0e0e0" stroke="#999999" points="424.12,-19.25 381.12,-19.25 381.12,0 424.12,0 424.12,-19.25"/>
<text text-anchor="middle" x="402.62" y="-5.75" font-family="Helvetica,sans-Serif" font-size="10.00">vector</text>
</a>
</g>
</g>
<!-- Node1&#45;&gt;Node7 -->
<g id="edge6_Node000001_Node000007" class="edge">
<title>Node1&#45;&gt;Node7</title>
<g id="a_edge6_Node000001_Node000007"><a xlink:title=" ">
<path fill="none" stroke="#63b8ff" d="M295.68,-115.94C326.59,-111.32 364.99,-100.33 388.62,-74.5 399.3,-62.83 402.51,-44.94 403.21,-31.06"/>
<polygon fill="#63b8ff" stroke="#63b8ff" points="406.7,-31.27 403.28,-21.24 399.7,-31.22 406.7,-31.27"/>
</a>
</g>
</g>
<!-- Node8 -->
<g id="Node000008" class="node">
<title>Node8</title>
<g id="a_Node000008"><a xlink:title=" ">
<polygon fill="#e0e0e0" stroke="#999999" points="551.12,-74.5 436.12,-74.5 436.12,-55.25 551.12,-55.25 551.12,-74.5"/>
<text text-anchor="middle" x="493.62" y="-61" font-family="Helvetica,sans-Serif" font-size="10.00">../ThirdParty/exprtk.hpp</text>
</a>
</g>
</g>
<!-- Node1&#45;&gt;Node8 -->
<g id="edge7_Node000001_Node000008" class="edge">
<title>Node1&#45;&gt;Node8</title>
<g id="a_edge7_Node000001_Node000008"><a xlink:title=" ">
<path fill="none" stroke="#63b8ff" d="M288.81,-110.03C330.72,-100.99 395.14,-87.11 440.52,-77.32"/>
<polygon fill="#63b8ff" stroke="#63b8ff" points="441.1,-80.78 450.14,-75.25 439.63,-73.94 441.1,-80.78"/>
</a>
</g>
</g>
<!-- Node9 -->
<g id="Node000009" class="node">
<title>Node9</title>
<g id="a_Node000009"><a xlink:href="_d_o_f_handler_8h.html" target="_top" xlink:title="model::DOFHandler source file">
<polygon fill="white" stroke="#666666" points="379.38,-74.5 301.88,-74.5 301.88,-55.25 379.38,-55.25 379.38,-74.5"/>
<text text-anchor="middle" x="340.62" y="-61" font-family="Helvetica,sans-Serif" font-size="10.00">DOFHandler.h</text>
</a>
</g>
</g>
<!-- Node1&#45;&gt;Node9 -->
<g id="edge8_Node000001_Node000009" class="edge">
<title>Node1&#45;&gt;Node9</title>
<g id="a_edge8_Node000001_Node000009"><a xlink:title=" ">
<path fill="none" stroke="#63b8ff" d="M262.57,-110.09C276.89,-101.98 298.16,-89.93 314.88,-80.46"/>
<polygon fill="#63b8ff" stroke="#63b8ff" points="316.31,-83.67 323.28,-75.7 312.86,-77.58 316.31,-83.67"/>
</a>
</g>
</g>
<!-- Node9&#45;&gt;Node6 -->
<g id="edge10_Node000009_Node000006" class="edge">
<title>Node9&#45;&gt;Node6</title>
<g id="a_edge10_Node000009_Node000006"><a xlink:title=" ">
<path fill="none" stroke="#63b8ff" d="M330.28,-54.84C321.55,-47.22 308.84,-36.12 298.33,-26.95"/>
<polygon fill="#63b8ff" stroke="#63b8ff" points="300.8,-24.46 290.96,-20.52 296.19,-29.73 300.8,-24.46"/>
</a>
</g>
</g>
<!-- Node9&#45;&gt;Node7 -->
<g id="edge11_Node000009_Node000007" class="edge">
<title>Node9&#45;&gt;Node7</title>
<g id="a_edge11_Node000009_Node000007"><a xlink:title=" ">
<path fill="none" stroke="#63b8ff" d="M351.14,-54.84C360.01,-47.22 372.94,-36.12 383.61,-26.95"/>
<polygon fill="#63b8ff" stroke="#63b8ff" points="385.81,-29.68 391.11,-20.51 381.25,-24.37 385.81,-29.68"/>
</a>
</g>
</g>
<!-- Node10 -->
<g id="Node000010" class="node">
<title>Node10</title>
<g id="a_Node000010"><a xlink:title=" ">
<polygon fill="#e0e0e0" stroke="#999999" points="358,-19.25 323.25,-19.25 323.25,0 358,0 358,-19.25"/>
<text text-anchor="middle" x="340.62" y="-5.75" font-family="Helvetica,sans-Serif" font-size="10.00">map</text>
</a>
</g>
</g>
<!-- Node9&#45;&gt;Node10 -->
<g id="edge9_Node000009_Node000010" class="edge">
<title>Node9&#45;&gt;Node10</title>
<g id="a_edge9_Node000009_Node000010"><a xlink:title=" ">
<path fill="none" stroke="#63b8ff" d="M340.62,-55.08C340.62,-48.57 340.62,-39.42 340.62,-31.12"/>
<polygon fill="#63b8ff" stroke="#63b8ff" points="344.13,-31.12 340.63,-21.12 337.13,-31.12 344.13,-31.12"/>
</a>
</g>
</g>
</g>
</svg>
