<?xml version="1.0" encoding="UTF-8" standalone="no"?>
<!DOCTYPE svg PUBLIC "-//W3C//DTD SVG 1.1//EN"
 "http://www.w3.org/Graphics/SVG/1.1/DTD/svg11.dtd">
<!-- Generated by graphviz version 11.0.0 (20240428.1522)
 -->
<!-- Title: model/ResistanceBC.h Pages: 1 -->
<svg width="1067pt" height="248pt"
 viewBox="0.00 0.00 1066.88 248.25" xmlns="http://www.w3.org/2000/svg" xmlns:xlink="http://www.w3.org/1999/xlink">
<g id="graph0" class="graph" transform="scale(1 1) rotate(0) translate(4 244.25)">
<title>model/ResistanceBC.h</title>
<!-- Node1 -->
<g id="Node000001" class="node">
<title>Node1</title>
<g id="a_Node000001"><a xlink:title="model::ResistanceBC source file">
<polygon fill="#999999" stroke="#666666" points="494.12,-240.25 379.12,-240.25 379.12,-221 494.12,-221 494.12,-240.25"/>
<text text-anchor="middle" x="436.62" y="-226.75" font-family="Helvetica,sans-Serif" font-size="10.00">model/ResistanceBC.h</text>
</a>
</g>
</g>
<!-- Node2 -->
<g id="Node000002" class="node">
<title>Node2</title>
<g id="a_Node000002"><a xlink:href="_block_8h.html" target="_top" xlink:title="model::Block source file">
<polygon fill="white" stroke="#666666" points="295.75,-185 247.5,-185 247.5,-165.75 295.75,-165.75 295.75,-185"/>
<text text-anchor="middle" x="271.62" y="-171.5" font-family="Helvetica,sans-Serif" font-size="10.00">Block.h</text>
</a>
</g>
</g>
<!-- Node1&#45;&gt;Node2 -->
<g id="edge1_Node000001_Node000002" class="edge">
<title>Node1&#45;&gt;Node2</title>
<g id="a_edge1_Node000001_Node000002"><a xlink:title=" ">
<path fill="none" stroke="#63b8ff" d="M408.63,-220.59C380.55,-211.53 337.2,-197.54 306.81,-187.73"/>
<polygon fill="#63b8ff" stroke="#63b8ff" points="308.28,-184.53 297.69,-184.79 306.13,-191.19 308.28,-184.53"/>
</a>
</g>
</g>
<!-- Node10 -->
<g id="Node000010" class="node">
<title>Node10</title>
<g id="a_Node000010"><a xlink:href="_parameter_8h.html" target="_top" xlink:title="model::Parameter source file">
<polygon fill="white" stroke="#666666" points="470.88,-129.75 402.38,-129.75 402.38,-110.5 470.88,-110.5 470.88,-129.75"/>
<text text-anchor="middle" x="436.62" y="-116.25" font-family="Helvetica,sans-Serif" font-size="10.00">Parameter.h</text>
</a>
</g>
</g>
<!-- Node1&#45;&gt;Node10 -->
<g id="edge26_Node000001_Node000010" class="edge">
<title>Node1&#45;&gt;Node10</title>
<g id="a_edge26_Node000001_Node000010"><a xlink:title=" ">
<path fill="none" stroke="#63b8ff" d="M436.62,-220.75C436.62,-203.5 436.62,-165.08 436.62,-141.31"/>
<polygon fill="#63b8ff" stroke="#63b8ff" points="440.13,-141.64 436.63,-131.64 433.13,-141.64 440.13,-141.64"/>
</a>
</g>
</g>
<!-- Node16 -->
<g id="Node000016" class="node">
<title>Node16</title>
<g id="a_Node000016"><a xlink:href="_sparse_system_8h.html" target="_top" xlink:title="SparseSystem source file.">
<polygon fill="white" stroke="#666666" points="850.25,-129.75 763,-129.75 763,-110.5 850.25,-110.5 850.25,-129.75"/>
<text text-anchor="middle" x="806.62" y="-116.25" font-family="Helvetica,sans-Serif" font-size="10.00">SparseSystem.h</text>
</a>
</g>
</g>
<!-- Node1&#45;&gt;Node16 -->
<g id="edge27_Node000001_Node000016" class="edge">
<title>Node1&#45;&gt;Node16</title>
<g id="a_edge27_Node000001_Node000016"><a xlink:title=" ">
<path fill="none" stroke="#63b8ff" d="M467.53,-220.56C533.78,-201.13 689.51,-155.47 764.63,-133.44"/>
<polygon fill="#63b8ff" stroke="#63b8ff" points="765.48,-136.84 774.09,-130.67 763.51,-130.12 765.48,-136.84"/>
</a>
</g>
</g>
<!-- Node3 -->
<g id="Node000003" class="node">
<title>Node3</title>
<g id="a_Node000003"><a xlink:title=" ">
<polygon fill="#e0e0e0" stroke="#999999" points="63.25,-129.75 0,-129.75 0,-110.5 63.25,-110.5 63.25,-129.75"/>
<text text-anchor="middle" x="31.62" y="-116.25" font-family="Helvetica,sans-Serif" font-size="10.00">Eigen/Core</text>
</a>
</g>
</g>
<!-- Node2&#45;&gt;Node3 -->
<g id="edge2_Node000002_Node000003" class="edge">
<title>Node2&#45;&gt;Node3</title>
<g id="a_edge2_Node000002_Node000003"><a xlink:title=" ">
<path fill="none" stroke="#63b8ff" d="M247.29,-168.98C206.83,-160 125.18,-141.88 74.77,-130.7"/>
<polygon fill="#63b8ff" stroke="#63b8ff" points="75.59,-127.3 65.07,-128.55 74.08,-134.13 75.59,-127.3"/>
</a>
</g>
</g>
<!-- Node4 -->
<g id="Node000004" class="node">
<title>Node4</title>
<g id="a_Node000004"><a xlink:title=" ">
<polygon fill="#e0e0e0" stroke="#999999" points="110.03,-129.75 81.22,-129.75 81.22,-110.5 110.03,-110.5 110.03,-129.75"/>
<text text-anchor="middle" x="95.62" y="-116.25" font-family="Helvetica,sans-Serif" font-size="10.00">list</text>
</a>
</g>
</g>
<!-- Node2&#45;&gt;Node4 -->
<g id="edge3_Node000002_Node000004" class="edge">
<title>Node2&#45;&gt;Node4</title>
<g id="a_edge3_Node000002_Node000004"><a xlink:title=" ">
<path fill="none" stroke="#63b8ff" d="M247.26,-167.08C217.91,-158.28 167.14,-143.01 123.62,-129.75 122.82,-129.51 122.01,-129.26 121.18,-129"/>
<polygon fill="#63b8ff" stroke="#63b8ff" points="122.48,-125.74 111.89,-126.15 120.42,-132.43 122.48,-125.74"/>
</a>
</g>
</g>
<!-- Node5 -->
<g id="Node000005" class="node">
<title>Node5</title>
<g id="a_Node000005"><a xlink:title=" ">
<polygon fill="#e0e0e0" stroke="#999999" points="189,-19.25 154.25,-19.25 154.25,0 189,0 189,-19.25"/>
<text text-anchor="middle" x="171.62" y="-5.75" font-family="Helvetica,sans-Serif" font-size="10.00">map</text>
</a>
</g>
</g>
<!-- Node2&#45;&gt;Node5 -->
<g id="edge4_Node000002_Node000005" class="edge">
<title>Node2&#45;&gt;Node5</title>
<g id="a_edge4_Node000002_Node000005"><a xlink:title=" ">
<path fill="none" stroke="#63b8ff" d="M253.8,-165.38C226.84,-150.65 176.7,-118.53 156.62,-74.5 150.12,-60.23 154.95,-42.84 160.8,-29.8"/>
<polygon fill="#63b8ff" stroke="#63b8ff" points="163.86,-31.51 165.27,-21.01 157.62,-28.34 163.86,-31.51"/>
</a>
</g>
</g>
<!-- Node6 -->
<g id="Node000006" class="node">
<title>Node6</title>
<g id="a_Node000006"><a xlink:title=" ">
<polygon fill="#e0e0e0" stroke="#999999" points="293.12,-19.25 250.12,-19.25 250.12,0 293.12,0 293.12,-19.25"/>
<text text-anchor="middle" x="271.62" y="-5.75" font-family="Helvetica,sans-Serif" font-size="10.00">vector</text>
</a>
</g>
</g>
<!-- Node2&#45;&gt;Node6 -->
<g id="edge5_Node000002_Node000006" class="edge">
<title>Node2&#45;&gt;Node6</title>
<g id="a_edge5_Node000002_Node000006"><a xlink:title=" ">
<path fill="none" stroke="#63b8ff" d="M271.62,-165.57C271.62,-140.25 271.62,-66.75 271.62,-30.84"/>
<polygon fill="#63b8ff" stroke="#63b8ff" points="275.13,-30.99 271.63,-20.99 268.13,-30.99 275.13,-30.99"/>
</a>
</g>
</g>
<!-- Node7 -->
<g id="Node000007" class="node">
<title>Node7</title>
<g id="a_Node000007"><a xlink:href="_block_type_8h.html" target="_top" xlink:title="Specifies the types of blocks and their parameters.">
<polygon fill="white" stroke="#666666" points="376.25,-129.75 307,-129.75 307,-110.5 376.25,-110.5 376.25,-129.75"/>
<text text-anchor="middle" x="341.62" y="-116.25" font-family="Helvetica,sans-Serif" font-size="10.00">BlockType.h</text>
</a>
</g>
</g>
<!-- Node2&#45;&gt;Node7 -->
<g id="edge6_Node000002_Node000007" class="edge">
<title>Node2&#45;&gt;Node7</title>
<g id="a_edge6_Node000002_Node000007"><a xlink:title=" ">
<path fill="none" stroke="#63b8ff" d="M283.5,-165.34C293.72,-157.57 308.7,-146.17 320.89,-136.9"/>
<polygon fill="#63b8ff" stroke="#63b8ff" points="322.88,-139.78 328.72,-130.94 318.64,-134.21 322.88,-139.78"/>
</a>
</g>
</g>
<!-- Node9 -->
<g id="Node000009" class="node">
<title>Node9</title>
<g id="a_Node000009"><a xlink:href="_d_o_f_handler_8h.html" target="_top" xlink:title="model::DOFHandler source file">
<polygon fill="white" stroke="#666666" points="243.38,-74.5 165.88,-74.5 165.88,-55.25 243.38,-55.25 243.38,-74.5"/>
<text text-anchor="middle" x="204.62" y="-61" font-family="Helvetica,sans-Serif" font-size="10.00">DOFHandler.h</text>
</a>
</g>
</g>
<!-- Node2&#45;&gt;Node9 -->
<g id="edge8_Node000002_Node000009" class="edge">
<title>Node2&#45;&gt;Node9</title>
<g id="a_edge8_Node000002_Node000009"><a xlink:title=" ">
<path fill="none" stroke="#63b8ff" d="M266.14,-165.5C255.25,-147.85 230.67,-108.05 216.09,-84.45"/>
<polygon fill="#63b8ff" stroke="#63b8ff" points="219.21,-82.83 210.98,-76.16 213.26,-86.51 219.21,-82.83"/>
</a>
</g>
</g>
<!-- Node2&#45;&gt;Node10 -->
<g id="edge12_Node000002_Node000010" class="edge">
<title>Node2&#45;&gt;Node10</title>
<g id="a_edge12_Node000002_Node000010"><a xlink:title=" ">
<path fill="none" stroke="#63b8ff" d="M295.97,-166.52C322.83,-157.85 366.44,-143.78 397.98,-133.6"/>
<polygon fill="#63b8ff" stroke="#63b8ff" points="398.7,-137.04 407.14,-130.64 396.55,-130.38 398.7,-137.04"/>
</a>
</g>
</g>
<!-- Node2&#45;&gt;Node16 -->
<g id="edge21_Node000002_Node000016" class="edge">
<title>Node2&#45;&gt;Node16</title>
<g id="a_edge21_Node000002_Node000016"><a xlink:title=" ">
<path fill="none" stroke="#63b8ff" d="M296,-171.95C376.73,-163.91 636.74,-138.03 751.41,-126.62"/>
<polygon fill="#63b8ff" stroke="#63b8ff" points="751.59,-130.12 761.19,-125.65 750.9,-123.15 751.59,-130.12"/>
</a>
</g>
</g>
<!-- Node8 -->
<g id="Node000008" class="node">
<title>Node8</title>
<g id="a_Node000008"><a xlink:title=" ">
<polygon fill="#e0e0e0" stroke="#999999" points="367.62,-19.25 327.62,-19.25 327.62,0 367.62,0 367.62,-19.25"/>
<text text-anchor="middle" x="347.62" y="-5.75" font-family="Helvetica,sans-Serif" font-size="10.00">string</text>
</a>
</g>
</g>
<!-- Node7&#45;&gt;Node8 -->
<g id="edge7_Node000007_Node000008" class="edge">
<title>Node7&#45;&gt;Node8</title>
<g id="a_edge7_Node000007_Node000008"><a xlink:title=" ">
<path fill="none" stroke="#63b8ff" d="M342.12,-110.25C343.07,-93 345.19,-54.58 346.51,-30.81"/>
<polygon fill="#63b8ff" stroke="#63b8ff" points="349.99,-31.32 347.04,-21.14 343,-30.93 349.99,-31.32"/>
</a>
</g>
</g>
<!-- Node9&#45;&gt;Node5 -->
<g id="edge9_Node000009_Node000005" class="edge">
<title>Node9&#45;&gt;Node5</title>
<g id="a_edge9_Node000009_Node000005"><a xlink:title=" ">
<path fill="none" stroke="#63b8ff" d="M199.18,-55.08C194.85,-48.11 188.66,-38.12 183.24,-29.37"/>
<polygon fill="#63b8ff" stroke="#63b8ff" points="186.23,-27.55 177.99,-20.9 180.28,-31.24 186.23,-27.55"/>
</a>
</g>
</g>
<!-- Node9&#45;&gt;Node6 -->
<g id="edge11_Node000009_Node000006" class="edge">
<title>Node9&#45;&gt;Node6</title>
<g id="a_edge11_Node000009_Node000006"><a xlink:title=" ">
<path fill="none" stroke="#63b8ff" d="M215.99,-54.84C225.67,-47.15 239.82,-35.9 251.43,-26.68"/>
<polygon fill="#63b8ff" stroke="#63b8ff" points="253.59,-29.43 259.24,-20.47 249.24,-23.95 253.59,-29.43"/>
</a>
</g>
</g>
<!-- Node9&#45;&gt;Node8 -->
<g id="edge10_Node000009_Node000008" class="edge">
<title>Node9&#45;&gt;Node8</title>
<g id="a_edge10_Node000009_Node000008"><a xlink:title=" ">
<path fill="none" stroke="#63b8ff" d="M228.88,-54.84C253.15,-45.81 290.55,-31.88 316.88,-22.07"/>
<polygon fill="#63b8ff" stroke="#63b8ff" points="317.85,-25.45 326,-18.68 315.41,-18.89 317.85,-25.45"/>
</a>
</g>
</g>
<!-- Node10&#45;&gt;Node6 -->
<g id="edge18_Node000010_Node000006" class="edge">
<title>Node10&#45;&gt;Node6</title>
<g id="a_edge18_Node000010_Node000006"><a xlink:title=" ">
<path fill="none" stroke="#63b8ff" d="M422.84,-110.06C394.5,-91.43 329.44,-48.65 294.62,-25.75"/>
<polygon fill="#63b8ff" stroke="#63b8ff" points="296.8,-22.99 286.52,-20.42 292.95,-28.84 296.8,-22.99"/>
</a>
</g>
</g>
<!-- Node10&#45;&gt;Node8 -->
<g id="edge17_Node000010_Node000008" class="edge">
<title>Node10&#45;&gt;Node8</title>
<g id="a_edge17_Node000010_Node000008"><a xlink:title=" ">
<path fill="none" stroke="#63b8ff" d="M429.34,-110.25C414.67,-92.36 381.34,-51.72 362.08,-28.25"/>
<polygon fill="#63b8ff" stroke="#63b8ff" points="365.02,-26.31 355.97,-20.8 359.6,-30.75 365.02,-26.31"/>
</a>
</g>
</g>
<!-- Node10&#45;&gt;Node9 -->
<g id="edge20_Node000010_Node000009" class="edge">
<title>Node10&#45;&gt;Node9</title>
<g id="a_edge20_Node000010_Node000009"><a xlink:title=" ">
<path fill="none" stroke="#63b8ff" d="M401.89,-111.15C362.94,-102.21 299.41,-87.63 255,-77.44"/>
<polygon fill="#63b8ff" stroke="#63b8ff" points="255.87,-74.05 245.34,-75.22 254.31,-80.87 255.87,-74.05"/>
</a>
</g>
</g>
<!-- Node11 -->
<g id="Node000011" class="node">
<title>Node11</title>
<g id="a_Node000011"><a xlink:title=" ">
<polygon fill="#e0e0e0" stroke="#999999" points="459.25,-74.5 414,-74.5 414,-55.25 459.25,-55.25 459.25,-74.5"/>
<text text-anchor="middle" x="436.62" y="-61" font-family="Helvetica,sans-Serif" font-size="10.00">math.h</text>
</a>
</g>
</g>
<!-- Node10&#45;&gt;Node11 -->
<g id="edge13_Node000010_Node000011" class="edge">
<title>Node10&#45;&gt;Node11</title>
<g id="a_edge13_Node000010_Node000011"><a xlink:title=" ">
<path fill="none" stroke="#63b8ff" d="M436.62,-110.33C436.62,-103.82 436.62,-94.67 436.62,-86.37"/>
<polygon fill="#63b8ff" stroke="#63b8ff" points="440.13,-86.37 436.63,-76.37 433.13,-86.37 440.13,-86.37"/>
</a>
</g>
</g>
<!-- Node12 -->
<g id="Node000012" class="node">
<title>Node12</title>
<g id="a_Node000012"><a xlink:title=" ">
<polygon fill="#e0e0e0" stroke="#999999" points="519.75,-74.5 477.5,-74.5 477.5,-55.25 519.75,-55.25 519.75,-74.5"/>
<text text-anchor="middle" x="498.62" y="-61" font-family="Helvetica,sans-Serif" font-size="10.00">cstdio</text>
</a>
</g>
</g>
<!-- Node10&#45;&gt;Node12 -->
<g id="edge14_Node000010_Node000012" class="edge">
<title>Node10&#45;&gt;Node12</title>
<g id="a_edge14_Node000010_Node000012"><a xlink:title=" ">
<path fill="none" stroke="#63b8ff" d="M447.14,-110.09C456.01,-102.47 468.94,-91.37 479.61,-82.2"/>
<polygon fill="#63b8ff" stroke="#63b8ff" points="481.81,-84.93 487.11,-75.76 477.25,-79.62 481.81,-84.93"/>
</a>
</g>
</g>
<!-- Node13 -->
<g id="Node000013" class="node">
<title>Node13</title>
<g id="a_Node000013"><a xlink:title=" ">
<polygon fill="#e0e0e0" stroke="#999999" points="792.38,-74.5 738.88,-74.5 738.88,-55.25 792.38,-55.25 792.38,-74.5"/>
<text text-anchor="middle" x="765.62" y="-61" font-family="Helvetica,sans-Serif" font-size="10.00">iostream</text>
</a>
</g>
</g>
<!-- Node10&#45;&gt;Node13 -->
<g id="edge15_Node000010_Node000013" class="edge">
<title>Node10&#45;&gt;Node13</title>
<g id="a_edge15_Node000010_Node000013"><a xlink:title=" ">
<path fill="none" stroke="#63b8ff" d="M471.2,-114.91C524.29,-108.22 629.28,-94.11 727.25,-75.03"/>
<polygon fill="#63b8ff" stroke="#63b8ff" points="727.93,-78.47 737.06,-73.1 726.57,-71.6 727.93,-78.47"/>
</a>
</g>
</g>
<!-- Node14 -->
<g id="Node000014" class="node">
<title>Node14</title>
<g id="a_Node000014"><a xlink:title=" ">
<polygon fill="#e0e0e0" stroke="#999999" points="587.88,-74.5 537.38,-74.5 537.38,-55.25 587.88,-55.25 587.88,-74.5"/>
<text text-anchor="middle" x="562.62" y="-61" font-family="Helvetica,sans-Serif" font-size="10.00">numeric</text>
</a>
</g>
</g>
<!-- Node10&#45;&gt;Node14 -->
<g id="edge16_Node000010_Node000014" class="edge">
<title>Node10&#45;&gt;Node14</title>
<g id="a_edge16_Node000010_Node000014"><a xlink:title=" ">
<path fill="none" stroke="#63b8ff" d="M458,-110.09C477.91,-101.68 507.86,-89.02 530.63,-79.4"/>
<polygon fill="#63b8ff" stroke="#63b8ff" points="531.9,-82.66 539.75,-75.54 529.18,-76.21 531.9,-82.66"/>
</a>
</g>
</g>
<!-- Node15 -->
<g id="Node000015" class="node">
<title>Node15</title>
<g id="a_Node000015"><a xlink:title=" ">
<polygon fill="#e0e0e0" stroke="#999999" points="721.12,-74.5 606.12,-74.5 606.12,-55.25 721.12,-55.25 721.12,-74.5"/>
<text text-anchor="middle" x="663.62" y="-61" font-family="Helvetica,sans-Serif" font-size="10.00">../ThirdParty/exprtk.hpp</text>
</a>
</g>
</g>
<!-- Node10&#45;&gt;Node15 -->
<g id="edge19_Node000010_Node000015" class="edge">
<title>Node10&#45;&gt;Node15</title>
<g id="a_edge19_Node000010_Node000015"><a xlink:title=" ">
<path fill="none" stroke="#63b8ff" d="M471.1,-111.04C509.13,-102.12 570.65,-87.69 613.89,-77.54"/>
<polygon fill="#63b8ff" stroke="#63b8ff" points="614.61,-80.97 623.54,-75.28 613.01,-74.15 614.61,-80.97"/>
</a>
</g>
</g>
<!-- Node16&#45;&gt;Node13 -->
<g id="edge24_Node000016_Node000013" class="edge">
<title>Node16&#45;&gt;Node13</title>
<g id="a_edge24_Node000016_Node000013"><a xlink:title=" ">
<path fill="none" stroke="#63b8ff" d="M799.85,-110.33C794.31,-103.13 786.28,-92.71 779.4,-83.76"/>
<polygon fill="#63b8ff" stroke="#63b8ff" points="782.34,-81.85 773.47,-76.06 776.79,-86.12 782.34,-81.85"/>
</a>
</g>
</g>
<!-- Node17 -->
<g id="Node000017" class="node">
<title>Node17</title>
<g id="a_Node000017"><a xlink:title=" ">
<polygon fill="#e0e0e0" stroke="#999999" points="884.5,-74.5 810.75,-74.5 810.75,-55.25 884.5,-55.25 884.5,-74.5"/>
<text text-anchor="middle" x="847.62" y="-61" font-family="Helvetica,sans-Serif" font-size="10.00">Eigen/Sparse</text>
</a>
</g>
</g>
<!-- Node16&#45;&gt;Node17 -->
<g id="edge22_Node000016_Node000017" class="edge">
<title>Node16&#45;&gt;Node17</title>
<g id="a_edge22_Node000016_Node000017"><a xlink:title=" ">
<path fill="none" stroke="#63b8ff" d="M813.4,-110.33C818.94,-103.13 826.97,-92.71 833.85,-83.76"/>
<polygon fill="#63b8ff" stroke="#63b8ff" points="836.46,-86.12 839.78,-76.06 830.91,-81.85 836.46,-86.12"/>
</a>
</g>
</g>
<!-- Node18 -->
<g id="Node000018" class="node">
<title>Node18</title>
<g id="a_Node000018"><a xlink:title=" ">
<polygon fill="#e0e0e0" stroke="#999999" points="990.25,-74.5 903,-74.5 903,-55.25 990.25,-55.25 990.25,-74.5"/>
<text text-anchor="middle" x="946.62" y="-61" font-family="Helvetica,sans-Serif" font-size="10.00">Eigen/SparseLU</text>
</a>
</g>
</g>
<!-- Node16&#45;&gt;Node18 -->
<g id="edge23_Node000016_Node000018" class="edge">
<title>Node16&#45;&gt;Node18</title>
<g id="a_edge23_Node000016_Node000018"><a xlink:title=" ">
<path fill="none" stroke="#63b8ff" d="M830.37,-110.09C852.8,-101.56 886.69,-88.67 912.1,-79.01"/>
<polygon fill="#63b8ff" stroke="#63b8ff" points="913.24,-82.32 921.34,-75.49 910.75,-75.77 913.24,-82.32"/>
</a>
</g>
</g>
<!-- Node19 -->
<g id="Node000019" class="node">
<title>Node19</title>
<g id="a_Node000019"><a xlink:title=" ">
<polygon fill="#e0e0e0" stroke="#999999" points="1058.88,-74.5 1008.38,-74.5 1008.38,-55.25 1058.88,-55.25 1058.88,-74.5"/>
<text text-anchor="middle" x="1033.62" y="-61" font-family="Helvetica,sans-Serif" font-size="10.00">memory</text>
</a>
</g>
</g>
<!-- Node16&#45;&gt;Node19 -->
<g id="edge25_Node000016_Node000019" class="edge">
<title>Node16&#45;&gt;Node19</title>
<g id="a_edge25_Node000016_Node000019"><a xlink:title=" ">
<path fill="none" stroke="#63b8ff" d="M846.98,-110.06C883.7,-101.75 939.69,-88.93 996.94,-75.12"/>
<polygon fill="#63b8ff" stroke="#63b8ff" points="997.65,-78.54 1006.55,-72.79 996.01,-71.74 997.65,-78.54"/>
</a>
</g>
</g>
</g>
</svg>
