<?xml version="1.0" encoding="UTF-8" standalone="no"?>
<!DOCTYPE svg PUBLIC "-//W3C//DTD SVG 1.1//EN"
 "http://www.w3.org/Graphics/SVG/1.1/DTD/svg11.dtd">
<!-- Generated by graphviz version 11.0.0 (20240428.1522)
 -->
<!-- Title: model/ValveTanh.h Pages: 1 -->
<svg width="939pt" height="248pt"
 viewBox="0.00 0.00 939.25 248.25" xmlns="http://www.w3.org/2000/svg" xmlns:xlink="http://www.w3.org/1999/xlink">
<g id="graph0" class="graph" transform="scale(1 1) rotate(0) translate(4 244.25)">
<title>model/ValveTanh.h</title>
<!-- Node1 -->
<g id="Node000001" class="node">
<title>Node1</title>
<g id="a_Node000001"><a xlink:title="model::ValveTanh source file">
<polygon fill="#999999" stroke="#666666" points="560.25,-240.25 461,-240.25 461,-221 560.25,-221 560.25,-240.25"/>
<text text-anchor="middle" x="510.62" y="-226.75" font-family="Helvetica,sans-Serif" font-size="10.00">model/ValveTanh.h</text>
</a>
</g>
</g>
<!-- Node2 -->
<g id="Node000002" class="node">
<title>Node2</title>
<g id="a_Node000002"><a xlink:title=" ">
<polygon fill="#e0e0e0" stroke="#999999" points="45.25,-74.5 0,-74.5 0,-55.25 45.25,-55.25 45.25,-74.5"/>
<text text-anchor="middle" x="22.62" y="-61" font-family="Helvetica,sans-Serif" font-size="10.00">math.h</text>
</a>
</g>
</g>
<!-- Node1&#45;&gt;Node2 -->
<g id="edge1_Node000001_Node000002" class="edge">
<title>Node1&#45;&gt;Node2</title>
<g id="a_edge1_Node000001_Node000002"><a xlink:title=" ">
<path fill="none" stroke="#63b8ff" d="M470.62,-220.52C404.6,-205.01 269.15,-171.07 158.62,-129.75 119.76,-115.22 76.68,-94.08 49.63,-80.16"/>
<polygon fill="#63b8ff" stroke="#63b8ff" points="51.25,-77.06 40.76,-75.55 48.02,-83.27 51.25,-77.06"/>
</a>
</g>
</g>
<!-- Node3 -->
<g id="Node000003" class="node">
<title>Node3</title>
<g id="a_Node000003"><a xlink:href="_block_8h.html" target="_top" xlink:title="model::Block source file">
<polygon fill="white" stroke="#666666" points="501.75,-185 453.5,-185 453.5,-165.75 501.75,-165.75 501.75,-185"/>
<text text-anchor="middle" x="477.62" y="-171.5" font-family="Helvetica,sans-Serif" font-size="10.00">Block.h</text>
</a>
</g>
</g>
<!-- Node1&#45;&gt;Node3 -->
<g id="edge2_Node000001_Node000003" class="edge">
<title>Node1&#45;&gt;Node3</title>
<g id="a_edge2_Node000001_Node000003"><a xlink:title=" ">
<path fill="none" stroke="#63b8ff" d="M505.18,-220.83C500.85,-213.86 494.66,-203.87 489.24,-195.12"/>
<polygon fill="#63b8ff" stroke="#63b8ff" points="492.23,-193.3 483.99,-186.65 486.28,-196.99 492.23,-193.3"/>
</a>
</g>
</g>
<!-- Node16 -->
<g id="Node000016" class="node">
<title>Node16</title>
<g id="a_Node000016"><a xlink:href="_sparse_system_8h.html" target="_top" xlink:title="SparseSystem source file.">
<polygon fill="white" stroke="#666666" points="748.25,-129.75 661,-129.75 661,-110.5 748.25,-110.5 748.25,-129.75"/>
<text text-anchor="middle" x="704.62" y="-116.25" font-family="Helvetica,sans-Serif" font-size="10.00">SparseSystem.h</text>
</a>
</g>
</g>
<!-- Node1&#45;&gt;Node16 -->
<g id="edge27_Node000001_Node000016" class="edge">
<title>Node1&#45;&gt;Node16</title>
<g id="a_edge27_Node000001_Node000016"><a xlink:title=" ">
<path fill="none" stroke="#63b8ff" d="M536.67,-220.57C558.62,-212.5 590.53,-199.7 616.62,-185 641.74,-170.85 668.21,-150.85 685.48,-137.01"/>
<polygon fill="#63b8ff" stroke="#63b8ff" points="687.33,-140.02 692.88,-131 682.91,-134.59 687.33,-140.02"/>
</a>
</g>
</g>
<!-- Node20 -->
<g id="Node000020" class="node">
<title>Node20</title>
<g id="a_Node000020"><a xlink:href="debug_8h.html" target="_top" xlink:title="DEBUG_MSG source file.">
<polygon fill="white" stroke="#666666" points="607.5,-185 557.75,-185 557.75,-165.75 607.5,-165.75 607.5,-185"/>
<text text-anchor="middle" x="582.62" y="-171.5" font-family="Helvetica,sans-Serif" font-size="10.00">debug.h</text>
</a>
</g>
</g>
<!-- Node1&#45;&gt;Node20 -->
<g id="edge28_Node000001_Node000020" class="edge">
<title>Node1&#45;&gt;Node20</title>
<g id="a_edge28_Node000001_Node000020"><a xlink:title=" ">
<path fill="none" stroke="#63b8ff" d="M522.84,-220.59C533.45,-212.74 549.06,-201.2 561.67,-191.87"/>
<polygon fill="#63b8ff" stroke="#63b8ff" points="563.42,-194.94 569.37,-186.17 559.25,-189.31 563.42,-194.94"/>
</a>
</g>
</g>
<!-- Node4 -->
<g id="Node000004" class="node">
<title>Node4</title>
<g id="a_Node000004"><a xlink:title=" ">
<polygon fill="#e0e0e0" stroke="#999999" points="509.25,-129.75 446,-129.75 446,-110.5 509.25,-110.5 509.25,-129.75"/>
<text text-anchor="middle" x="477.62" y="-116.25" font-family="Helvetica,sans-Serif" font-size="10.00">Eigen/Core</text>
</a>
</g>
</g>
<!-- Node3&#45;&gt;Node4 -->
<g id="edge3_Node000003_Node000004" class="edge">
<title>Node3&#45;&gt;Node4</title>
<g id="a_edge3_Node000003_Node000004"><a xlink:title=" ">
<path fill="none" stroke="#63b8ff" d="M477.62,-165.58C477.62,-159.07 477.62,-149.92 477.62,-141.62"/>
<polygon fill="#63b8ff" stroke="#63b8ff" points="481.13,-141.62 477.63,-131.62 474.13,-141.62 481.13,-141.62"/>
</a>
</g>
</g>
<!-- Node5 -->
<g id="Node000005" class="node">
<title>Node5</title>
<g id="a_Node000005"><a xlink:title=" ">
<polygon fill="#e0e0e0" stroke="#999999" points="556.02,-129.75 527.23,-129.75 527.23,-110.5 556.02,-110.5 556.02,-129.75"/>
<text text-anchor="middle" x="541.62" y="-116.25" font-family="Helvetica,sans-Serif" font-size="10.00">list</text>
</a>
</g>
</g>
<!-- Node3&#45;&gt;Node5 -->
<g id="edge4_Node000003_Node000005" class="edge">
<title>Node3&#45;&gt;Node5</title>
<g id="a_edge4_Node000003_Node000005"><a xlink:title=" ">
<path fill="none" stroke="#63b8ff" d="M488.48,-165.34C497.73,-157.65 511.25,-146.4 522.33,-137.18"/>
<polygon fill="#63b8ff" stroke="#63b8ff" points="524.32,-140.08 529.77,-130.99 519.84,-134.7 524.32,-140.08"/>
</a>
</g>
</g>
<!-- Node6 -->
<g id="Node000006" class="node">
<title>Node6</title>
<g id="a_Node000006"><a xlink:title=" ">
<polygon fill="#e0e0e0" stroke="#999999" points="576,-19.25 541.25,-19.25 541.25,0 576,0 576,-19.25"/>
<text text-anchor="middle" x="558.62" y="-5.75" font-family="Helvetica,sans-Serif" font-size="10.00">map</text>
</a>
</g>
</g>
<!-- Node3&#45;&gt;Node6 -->
<g id="edge5_Node000003_Node000006" class="edge">
<title>Node3&#45;&gt;Node6</title>
<g id="a_edge5_Node000003_Node000006"><a xlink:title=" ">
<path fill="none" stroke="#63b8ff" d="M501.97,-169.28C522.65,-163.52 551.08,-151.91 564.62,-129.75 583.37,-99.07 573.93,-55.23 565.92,-30.17"/>
<polygon fill="#63b8ff" stroke="#63b8ff" points="569.3,-29.26 562.72,-20.96 562.69,-31.55 569.3,-29.26"/>
</a>
</g>
</g>
<!-- Node7 -->
<g id="Node000007" class="node">
<title>Node7</title>
<g id="a_Node000007"><a xlink:title=" ">
<polygon fill="#e0e0e0" stroke="#999999" points="133.12,-19.25 90.12,-19.25 90.12,0 133.12,0 133.12,-19.25"/>
<text text-anchor="middle" x="111.62" y="-5.75" font-family="Helvetica,sans-Serif" font-size="10.00">vector</text>
</a>
</g>
</g>
<!-- Node3&#45;&gt;Node7 -->
<g id="edge6_Node000003_Node000007" class="edge">
<title>Node3&#45;&gt;Node7</title>
<g id="a_edge6_Node000003_Node000007"><a xlink:title=" ">
<path fill="none" stroke="#63b8ff" d="M453.04,-172.52C407.23,-168.53 306.18,-157.15 225.62,-129.75 175.33,-112.64 149.95,-118.12 119.62,-74.5 110.83,-61.84 109.19,-44.28 109.55,-30.78"/>
<polygon fill="#63b8ff" stroke="#63b8ff" points="113.03,-31.09 110.23,-20.87 106.05,-30.61 113.03,-31.09"/>
</a>
</g>
</g>
<!-- Node8 -->
<g id="Node000008" class="node">
<title>Node8</title>
<g id="a_Node000008"><a xlink:href="_block_type_8h.html" target="_top" xlink:title="Specifies the types of blocks and their parameters.">
<polygon fill="white" stroke="#666666" points="428.25,-129.75 359,-129.75 359,-110.5 428.25,-110.5 428.25,-129.75"/>
<text text-anchor="middle" x="393.62" y="-116.25" font-family="Helvetica,sans-Serif" font-size="10.00">BlockType.h</text>
</a>
</g>
</g>
<!-- Node3&#45;&gt;Node8 -->
<g id="edge7_Node000003_Node000008" class="edge">
<title>Node3&#45;&gt;Node8</title>
<g id="a_edge7_Node000003_Node000008"><a xlink:title=" ">
<path fill="none" stroke="#63b8ff" d="M463.38,-165.34C450.83,-157.39 432.29,-145.64 417.48,-136.25"/>
<polygon fill="#63b8ff" stroke="#63b8ff" points="419.54,-133.41 409.22,-131.01 415.79,-139.32 419.54,-133.41"/>
</a>
</g>
</g>
<!-- Node10 -->
<g id="Node000010" class="node">
<title>Node10</title>
<g id="a_Node000010"><a xlink:href="_d_o_f_handler_8h.html" target="_top" xlink:title="model::DOFHandler source file">
<polygon fill="white" stroke="#666666" points="517.38,-74.5 439.88,-74.5 439.88,-55.25 517.38,-55.25 517.38,-74.5"/>
<text text-anchor="middle" x="478.62" y="-61" font-family="Helvetica,sans-Serif" font-size="10.00">DOFHandler.h</text>
</a>
</g>
</g>
<!-- Node3&#45;&gt;Node10 -->
<g id="edge9_Node000003_Node000010" class="edge">
<title>Node3&#45;&gt;Node10</title>
<g id="a_edge9_Node000003_Node000010"><a xlink:title=" ">
<path fill="none" stroke="#63b8ff" d="M453.13,-171.77C408.69,-166.02 321.82,-149.54 349.62,-110.5 359.19,-97.07 396.44,-85.06 428.48,-76.89"/>
<polygon fill="#63b8ff" stroke="#63b8ff" points="429.19,-80.32 438.06,-74.53 427.52,-73.53 429.19,-80.32"/>
</a>
</g>
</g>
<!-- Node11 -->
<g id="Node000011" class="node">
<title>Node11</title>
<g id="a_Node000011"><a xlink:href="_parameter_8h.html" target="_top" xlink:title="model::Parameter source file">
<polygon fill="white" stroke="#666666" points="302.88,-129.75 234.38,-129.75 234.38,-110.5 302.88,-110.5 302.88,-129.75"/>
<text text-anchor="middle" x="268.62" y="-116.25" font-family="Helvetica,sans-Serif" font-size="10.00">Parameter.h</text>
</a>
</g>
</g>
<!-- Node3&#45;&gt;Node11 -->
<g id="edge13_Node000003_Node000011" class="edge">
<title>Node3&#45;&gt;Node11</title>
<g id="a_edge13_Node000003_Node000011"><a xlink:title=" ">
<path fill="none" stroke="#63b8ff" d="M453.24,-168.16C419.24,-159.5 356.95,-143.63 314.2,-132.74"/>
<polygon fill="#63b8ff" stroke="#63b8ff" points="315.27,-129.4 304.71,-130.32 313.54,-136.18 315.27,-129.4"/>
</a>
</g>
</g>
<!-- Node3&#45;&gt;Node16 -->
<g id="edge22_Node000003_Node000016" class="edge">
<title>Node3&#45;&gt;Node16</title>
<g id="a_edge22_Node000003_Node000016"><a xlink:title=" ">
<path fill="none" stroke="#63b8ff" d="M501.92,-168.68C538.24,-160.16 607.48,-143.91 654.83,-132.81"/>
<polygon fill="#63b8ff" stroke="#63b8ff" points="655.36,-136.28 664.3,-130.58 653.76,-129.46 655.36,-136.28"/>
</a>
</g>
</g>
<!-- Node9 -->
<g id="Node000009" class="node">
<title>Node9</title>
<g id="a_Node000009"><a xlink:title=" ">
<polygon fill="#e0e0e0" stroke="#999999" points="498.62,-19.25 458.62,-19.25 458.62,0 498.62,0 498.62,-19.25"/>
<text text-anchor="middle" x="478.62" y="-5.75" font-family="Helvetica,sans-Serif" font-size="10.00">string</text>
</a>
</g>
</g>
<!-- Node8&#45;&gt;Node9 -->
<g id="edge8_Node000008_Node000009" class="edge">
<title>Node8&#45;&gt;Node9</title>
<g id="a_edge8_Node000008_Node000009"><a xlink:title=" ">
<path fill="none" stroke="#63b8ff" d="M428.62,-112.19C463.97,-104.38 515,-90.66 526.62,-74.5 538.65,-57.78 520.58,-38.96 503.27,-26.11"/>
<polygon fill="#63b8ff" stroke="#63b8ff" points="505.39,-23.32 495.18,-20.5 501.4,-29.07 505.39,-23.32"/>
</a>
</g>
</g>
<!-- Node10&#45;&gt;Node6 -->
<g id="edge10_Node000010_Node000006" class="edge">
<title>Node10&#45;&gt;Node6</title>
<g id="a_edge10_Node000010_Node000006"><a xlink:title=" ">
<path fill="none" stroke="#63b8ff" d="M492.2,-54.84C504.03,-46.96 521.46,-35.36 535.5,-26.02"/>
<polygon fill="#63b8ff" stroke="#63b8ff" points="537.34,-29 543.73,-20.54 533.46,-23.17 537.34,-29"/>
</a>
</g>
</g>
<!-- Node10&#45;&gt;Node7 -->
<g id="edge12_Node000010_Node000007" class="edge">
<title>Node10&#45;&gt;Node7</title>
<g id="a_edge12_Node000010_Node000007"><a xlink:title=" ">
<path fill="none" stroke="#63b8ff" d="M439.61,-56.73C436.57,-56.22 433.55,-55.72 430.62,-55.25 326.49,-38.62 202.66,-22.27 144.67,-14.82"/>
<polygon fill="#63b8ff" stroke="#63b8ff" points="145.19,-11.36 134.83,-13.56 144.3,-18.3 145.19,-11.36"/>
</a>
</g>
</g>
<!-- Node10&#45;&gt;Node9 -->
<g id="edge11_Node000010_Node000009" class="edge">
<title>Node10&#45;&gt;Node9</title>
<g id="a_edge11_Node000010_Node000009"><a xlink:title=" ">
<path fill="none" stroke="#63b8ff" d="M478.62,-55.08C478.62,-48.57 478.62,-39.42 478.62,-31.12"/>
<polygon fill="#63b8ff" stroke="#63b8ff" points="482.13,-31.12 478.63,-21.12 475.13,-31.12 482.13,-31.12"/>
</a>
</g>
</g>
<!-- Node11&#45;&gt;Node2 -->
<g id="edge14_Node000011_Node000002" class="edge">
<title>Node11&#45;&gt;Node2</title>
<g id="a_edge14_Node000011_Node000002"><a xlink:title=" ">
<path fill="none" stroke="#63b8ff" d="M233.9,-111.61C186.77,-101.41 103.1,-83.29 56.44,-73.2"/>
<polygon fill="#63b8ff" stroke="#63b8ff" points="57.42,-69.83 46.9,-71.13 55.94,-76.67 57.42,-69.83"/>
</a>
</g>
</g>
<!-- Node11&#45;&gt;Node7 -->
<g id="edge19_Node000011_Node000007" class="edge">
<title>Node11&#45;&gt;Node7</title>
<g id="a_edge19_Node000011_Node000007"><a xlink:title=" ">
<path fill="none" stroke="#63b8ff" d="M234.09,-115.79C204.43,-111.19 162.35,-100.29 135.62,-74.5 123.49,-62.79 117.43,-44.36 114.44,-30.3"/>
<polygon fill="#63b8ff" stroke="#63b8ff" points="117.96,-30.09 112.79,-20.84 111.06,-31.29 117.96,-30.09"/>
</a>
</g>
</g>
<!-- Node11&#45;&gt;Node9 -->
<g id="edge18_Node000011_Node000009" class="edge">
<title>Node11&#45;&gt;Node9</title>
<g id="a_edge18_Node000011_Node000009"><a xlink:title=" ">
<path fill="none" stroke="#63b8ff" d="M233.93,-111.12C196.71,-100.97 145.83,-81.56 168.62,-55.25 204.47,-13.88 375.7,-9.98 447.18,-10.2"/>
<polygon fill="#63b8ff" stroke="#63b8ff" points="447,-13.7 457.02,-10.26 447.04,-6.7 447,-13.7"/>
</a>
</g>
</g>
<!-- Node11&#45;&gt;Node10 -->
<g id="edge21_Node000011_Node000010" class="edge">
<title>Node11&#45;&gt;Node10</title>
<g id="a_edge21_Node000011_Node000010"><a xlink:title=" ">
<path fill="none" stroke="#63b8ff" d="M303.3,-110.33C338.4,-101.43 392.89,-87.61 431.81,-77.75"/>
<polygon fill="#63b8ff" stroke="#63b8ff" points="432.54,-81.17 441.37,-75.32 430.82,-74.39 432.54,-81.17"/>
</a>
</g>
</g>
<!-- Node12 -->
<g id="Node000012" class="node">
<title>Node12</title>
<g id="a_Node000012"><a xlink:title=" ">
<polygon fill="#e0e0e0" stroke="#999999" points="421.75,-74.5 379.5,-74.5 379.5,-55.25 421.75,-55.25 421.75,-74.5"/>
<text text-anchor="middle" x="400.62" y="-61" font-family="Helvetica,sans-Serif" font-size="10.00">cstdio</text>
</a>
</g>
</g>
<!-- Node11&#45;&gt;Node12 -->
<g id="edge15_Node000011_Node000012" class="edge">
<title>Node11&#45;&gt;Node12</title>
<g id="a_edge15_Node000011_Node000012"><a xlink:title=" ">
<path fill="none" stroke="#63b8ff" d="M291.02,-110.09C312.32,-101.5 344.6,-88.48 368.62,-78.79"/>
<polygon fill="#63b8ff" stroke="#63b8ff" points="369.63,-82.15 377.6,-75.16 367.01,-75.66 369.63,-82.15"/>
</a>
</g>
</g>
<!-- Node13 -->
<g id="Node000013" class="node">
<title>Node13</title>
<g id="a_Node000013"><a xlink:title=" ">
<polygon fill="#e0e0e0" stroke="#999999" points="665.38,-74.5 611.88,-74.5 611.88,-55.25 665.38,-55.25 665.38,-74.5"/>
<text text-anchor="middle" x="638.62" y="-61" font-family="Helvetica,sans-Serif" font-size="10.00">iostream</text>
</a>
</g>
</g>
<!-- Node11&#45;&gt;Node13 -->
<g id="edge16_Node000011_Node000013" class="edge">
<title>Node11&#45;&gt;Node13</title>
<g id="a_edge16_Node000011_Node000013"><a xlink:title=" ">
<path fill="none" stroke="#63b8ff" d="M303.1,-114.16C372.44,-104.18 528.28,-81.76 600.52,-71.36"/>
<polygon fill="#63b8ff" stroke="#63b8ff" points="600.88,-74.84 610.28,-69.95 599.88,-67.91 600.88,-74.84"/>
</a>
</g>
</g>
<!-- Node14 -->
<g id="Node000014" class="node">
<title>Node14</title>
<g id="a_Node000014"><a xlink:title=" ">
<polygon fill="#e0e0e0" stroke="#999999" points="227.88,-74.5 177.38,-74.5 177.38,-55.25 227.88,-55.25 227.88,-74.5"/>
<text text-anchor="middle" x="202.62" y="-61" font-family="Helvetica,sans-Serif" font-size="10.00">numeric</text>
</a>
</g>
</g>
<!-- Node11&#45;&gt;Node14 -->
<g id="edge17_Node000011_Node000014" class="edge">
<title>Node11&#45;&gt;Node14</title>
<g id="a_edge17_Node000011_Node000014"><a xlink:title=" ">
<path fill="none" stroke="#63b8ff" d="M257.43,-110.09C247.89,-102.4 233.95,-91.15 222.52,-81.93"/>
<polygon fill="#63b8ff" stroke="#63b8ff" points="224.81,-79.28 214.83,-75.73 220.42,-84.73 224.81,-79.28"/>
</a>
</g>
</g>
<!-- Node15 -->
<g id="Node000015" class="node">
<title>Node15</title>
<g id="a_Node000015"><a xlink:title=" ">
<polygon fill="#e0e0e0" stroke="#999999" points="361.12,-74.5 246.12,-74.5 246.12,-55.25 361.12,-55.25 361.12,-74.5"/>
<text text-anchor="middle" x="303.62" y="-61" font-family="Helvetica,sans-Serif" font-size="10.00">../ThirdParty/exprtk.hpp</text>
</a>
</g>
</g>
<!-- Node11&#45;&gt;Node15 -->
<g id="edge20_Node000011_Node000015" class="edge">
<title>Node11&#45;&gt;Node15</title>
<g id="a_edge20_Node000011_Node000015"><a xlink:title=" ">
<path fill="none" stroke="#63b8ff" d="M274.4,-110.33C279.04,-103.28 285.7,-93.15 291.49,-84.33"/>
<polygon fill="#63b8ff" stroke="#63b8ff" points="294.32,-86.4 296.89,-76.12 288.47,-82.56 294.32,-86.4"/>
</a>
</g>
</g>
<!-- Node16&#45;&gt;Node13 -->
<g id="edge25_Node000016_Node000013" class="edge">
<title>Node16&#45;&gt;Node13</title>
<g id="a_edge25_Node000016_Node000013"><a xlink:title=" ">
<path fill="none" stroke="#63b8ff" d="M693.43,-110.09C683.89,-102.4 669.95,-91.15 658.52,-81.93"/>
<polygon fill="#63b8ff" stroke="#63b8ff" points="660.81,-79.28 650.83,-75.73 656.42,-84.73 660.81,-79.28"/>
</a>
</g>
</g>
<!-- Node17 -->
<g id="Node000017" class="node">
<title>Node17</title>
<g id="a_Node000017"><a xlink:title=" ">
<polygon fill="#e0e0e0" stroke="#999999" points="825.5,-74.5 751.75,-74.5 751.75,-55.25 825.5,-55.25 825.5,-74.5"/>
<text text-anchor="middle" x="788.62" y="-61" font-family="Helvetica,sans-Serif" font-size="10.00">Eigen/Sparse</text>
</a>
</g>
</g>
<!-- Node16&#45;&gt;Node17 -->
<g id="edge23_Node000016_Node000017" class="edge">
<title>Node16&#45;&gt;Node17</title>
<g id="a_edge23_Node000016_Node000017"><a xlink:title=" ">
<path fill="none" stroke="#63b8ff" d="M718.87,-110.09C731.42,-102.14 749.96,-90.39 764.77,-81"/>
<polygon fill="#63b8ff" stroke="#63b8ff" points="766.46,-84.07 773.03,-75.76 762.71,-78.16 766.46,-84.07"/>
</a>
</g>
</g>
<!-- Node18 -->
<g id="Node000018" class="node">
<title>Node18</title>
<g id="a_Node000018"><a xlink:title=" ">
<polygon fill="#e0e0e0" stroke="#999999" points="931.25,-74.5 844,-74.5 844,-55.25 931.25,-55.25 931.25,-74.5"/>
<text text-anchor="middle" x="887.62" y="-61" font-family="Helvetica,sans-Serif" font-size="10.00">Eigen/SparseLU</text>
</a>
</g>
</g>
<!-- Node16&#45;&gt;Node18 -->
<g id="edge24_Node000016_Node000018" class="edge">
<title>Node16&#45;&gt;Node18</title>
<g id="a_edge24_Node000016_Node000018"><a xlink:title=" ">
<path fill="none" stroke="#63b8ff" d="M735.67,-110.09C765.9,-101.29 812.08,-87.86 845.59,-78.11"/>
<polygon fill="#63b8ff" stroke="#63b8ff" points="846.35,-81.53 854.98,-75.38 844.4,-74.81 846.35,-81.53"/>
</a>
</g>
</g>
<!-- Node19 -->
<g id="Node000019" class="node">
<title>Node19</title>
<g id="a_Node000019"><a xlink:title=" ">
<polygon fill="#e0e0e0" stroke="#999999" points="733.88,-74.5 683.38,-74.5 683.38,-55.25 733.88,-55.25 733.88,-74.5"/>
<text text-anchor="middle" x="708.62" y="-61" font-family="Helvetica,sans-Serif" font-size="10.00">memory</text>
</a>
</g>
</g>
<!-- Node16&#45;&gt;Node19 -->
<g id="edge26_Node000016_Node000019" class="edge">
<title>Node16&#45;&gt;Node19</title>
<g id="a_edge26_Node000016_Node000019"><a xlink:title=" ">
<path fill="none" stroke="#63b8ff" d="M705.29,-110.33C705.78,-103.74 706.48,-94.46 707.11,-86.07"/>
<polygon fill="#63b8ff" stroke="#63b8ff" points="710.58,-86.6 707.84,-76.37 703.6,-86.08 710.58,-86.6"/>
</a>
</g>
</g>
<!-- Node20&#45;&gt;Node13 -->
<g id="edge29_Node000020_Node000013" class="edge">
<title>Node20&#45;&gt;Node13</title>
<g id="a_edge29_Node000020_Node000013"><a xlink:title=" ">
<path fill="none" stroke="#63b8ff" d="M587.21,-165.5C596.23,-148.01 616.49,-108.77 628.71,-85.09"/>
<polygon fill="#63b8ff" stroke="#63b8ff" points="631.81,-86.71 633.28,-76.22 625.59,-83.5 631.81,-86.71"/>
</a>
</g>
</g>
</g>
</svg>
